<svg width="23" height="24" viewBox="0 0 23 24" fill="none" xmlns="http://www.w3.org/2000/svg">
<path d="M13.5497 5.29467C13.5497 4.84447 13.1747 4.49487 12.7499 4.49487C12.2997 4.49487 11.9501 4.86987 11.9501 5.29467C11.9501 5.74487 12.3251 6.09447 12.7499 6.09447C13.1747 6.09447 13.5497 5.74487 13.5497 5.29467Z" fill="white"/>
<path d="M5.75 13.9695C4.8496 13.9695 4.125 14.6941 4.125 15.5945C4.125 16.4949 4.8496 17.2195 5.75 17.2195C6.6504 17.2195 7.375 16.4949 7.375 15.5945C7.34961 14.6951 6.625 13.9695 5.75 13.9695Z" fill="white"/>
<path d="M6.29968 11.1199C6.74988 11.1199 7.09948 10.7449 7.09948 10.3201C7.09948 9.89526 6.72448 9.52026 6.29968 9.52026C5.84948 9.52026 5.49988 9.89526 5.49988 10.3201C5.49988 10.7449 5.84948 11.1199 6.29968 11.1199Z" fill="white"/>
<path d="M18.4503 16.7449C18.4503 17.8113 16.8497 17.8113 16.8497 16.7449C16.8497 15.6785 18.4503 15.6785 18.4503 16.7449Z" fill="white"/>
<path d="M14.6747 12.3699C14.6747 13.8699 12.4247 13.8699 12.4247 12.3699C12.4247 10.8699 14.6747 10.8699 14.6747 12.3699Z" fill="white"/>
<path d="M19.25 7.24511C19.25 8.12891 18.5332 8.84471 17.6504 8.84471C16.7666 8.84471 16.0498 8.12888 16.0498 7.24511C16.0498 6.36131 16.7666 5.64453 17.6504 5.64453C18.5332 5.64453 19.25 6.36133 19.25 7.24511Z" fill="white"/>
<path d="M11.9247 19.8943C11.9247 20.9617 10.3251 20.9617 10.3251 19.8943C10.3251 18.8279 11.9247 18.8279 11.9247 19.8943Z" fill="white"/>
<path d="M11.5 0.544733H11.3496C11.1748 0.544733 11.0244 0.669733 10.9746 0.844533C10.6748 2.01933 9.52439 2.79473 8.27434 2.51933C8.14934 2.49394 8.02434 2.51933 7.92474 2.61894C7.82513 2.71855 7.77435 2.84355 7.79974 2.96854C7.82513 3.09354 7.82513 3.19315 7.82513 3.29374C7.82513 4.54374 6.79973 5.56914 5.54973 5.56914C5.39934 5.56914 5.22453 5.54375 5.07513 5.51934C4.95013 5.49395 4.82513 5.51934 4.72553 5.61895C4.62592 5.71856 4.57514 5.81914 4.60053 5.94415V6.14434C4.60053 7.06914 4.05073 7.89434 3.17573 8.24394C2.97553 8.31914 2.87593 8.54374 2.95112 8.74394C3.05073 9.01934 3.10151 9.26934 3.10151 9.56914C3.10151 10.8191 2.07611 11.8445 0.826107 11.8445H0.651302C0.551692 11.8445 0.426691 11.8699 0.351501 11.9442C0.299744 12.0193 0.249939 12.1443 0.249939 12.2449C0.499939 18.2947 5.42469 23.0447 11.4999 23.0447C17.7002 23.0447 22.7499 17.9949 22.7499 11.7947C22.7499 5.59443 17.7002 0.544678 11.4999 0.544678L11.5 0.544733ZM11.5 22.2692C5.99998 22.2692 1.49998 18.069 1.07523 12.6442C2.67483 12.5192 3.92473 11.194 3.92473 9.59448C3.92473 9.34448 3.89934 9.09448 3.82512 8.84448C4.72552 8.34448 5.32512 7.41968 5.40032 6.36988C7.12492 6.46949 8.60057 5.09448 8.62482 3.36988C9.99982 3.44508 11.2001 2.59448 11.6503 1.34448C17.3506 1.41968 21.9501 6.09448 21.9501 11.819C21.9501 17.57 17.2753 22.2692 11.4998 22.2692H11.5Z" fill="white" stroke="white" stroke-width="0.5"/>
</svg>
