<svg width="242" height="188" viewBox="0 0 242 188" fill="none" xmlns="http://www.w3.org/2000/svg">
<path opacity="0.1" d="M219.124 130.408C213.604 141.801 202.388 149.418 190.769 154.442C181.467 158.438 171.633 161.062 161.577 162.232C159.65 162.461 157.718 162.638 155.78 162.764C150.826 163.087 145.857 163.082 140.904 162.748C137.925 162.55 134.956 162.233 131.997 161.798C121.718 160.298 111.696 157.38 102.219 153.126C99.4834 151.894 96.8035 150.55 94.179 149.092C89.7955 146.662 85.5955 143.915 81.6124 140.874C80.7311 140.2 79.8609 139.512 79.0018 138.81L78.6485 138.521C77.973 137.964 77.3037 137.394 76.624 136.841C75.4943 135.895 74.2951 135.035 73.0365 134.268C72.9513 134.218 72.8661 134.168 72.7788 134.12C72.546 133.985 72.309 133.859 72.0679 133.738C71.5712 133.488 71.062 133.263 70.5423 133.065C68.1416 132.15 65.5705 131.817 62.9641 131.874C62.5318 131.874 62.0994 131.903 61.665 131.932C61.0581 131.973 60.4491 132.036 59.8422 132.115L59.6177 132.146C57.6837 132.42 55.7715 132.83 53.8956 133.374C50.9982 134.206 48.1527 135.245 45.2885 136.182C44.0726 136.583 42.8546 136.966 41.6262 137.309L41.356 137.384C39.6089 137.875 37.8305 138.247 36.0329 138.498C31.9482 139.02 27.7994 138.686 23.8508 137.517L23.7137 137.477L23.4601 137.402L23.113 137.294C22.531 137.111 21.9539 136.911 21.3816 136.694L21.0345 136.561C20.4802 136.347 19.9377 136.118 19.407 135.873L19.0599 135.715C18.5056 135.457 17.9631 135.185 17.4324 134.898C17.2412 134.798 17.0521 134.69 16.865 134.588C16.2996 134.272 15.7454 133.941 15.2022 133.595C14.6258 133.227 14.0618 132.844 13.5103 132.445C13.2553 132.262 13.0031 132.075 12.7537 131.882C11.3159 130.782 9.96949 129.568 8.72766 128.251C8.65907 128.182 8.59463 128.112 8.5302 128.043C8.19972 127.685 7.87547 127.322 7.56162 126.95C7.44522 126.812 7.32882 126.675 7.21451 126.534C6.84176 126.079 6.48218 125.615 6.13576 125.139C6.0838 125.071 6.03392 125 5.98403 124.931C4.56387 122.967 3.38651 120.839 2.4776 118.592C2.4485 118.523 2.42148 118.453 2.39654 118.384C2.1194 117.671 1.86652 116.945 1.63788 116.208C1.54435 115.9 1.45498 115.584 1.37599 115.277C1.34897 115.185 1.32403 115.092 1.30117 115C0.153833 110.484 0.0228882 105.788 0.0228882 101.12C0.0228882 100.576 0.0228882 100.032 0.0228882 99.4885C0.0561442 91.9373 0.17254 84.2572 1.28662 76.8099C1.28662 76.758 1.30117 76.706 1.30948 76.6561C1.68236 74.149 2.18955 71.6637 2.82887 69.2109C3.49798 66.6373 4.3531 64.1157 5.3875 61.666C7.9503 55.6383 11.6771 50.1531 15.8154 45.0691C20.8038 38.9521 26.5196 33.3069 32.8861 28.6489C33.8006 27.9797 34.7276 27.3298 35.6671 26.6993L36.1015 26.4146C36.2533 26.3127 36.405 26.2067 36.5567 26.1173C36.8685 25.9095 37.1803 25.7141 37.4962 25.5166L37.8496 25.2963L38.523 24.8806L38.7308 24.7621L39.0904 24.5543L39.4458 24.3464C39.8615 24.1012 40.2821 23.8615 40.7075 23.6273C42.5241 22.6144 44.3837 21.6887 46.2862 20.8504C46.8474 20.6024 47.4121 20.3633 47.9802 20.1333C50.5595 19.0828 53.2091 18.214 55.9097 17.5331C56.9073 17.2809 57.9113 17.0592 58.9214 16.868C60.1131 16.638 61.311 16.4474 62.5151 16.2964C64.4313 16.0553 66.3585 15.9117 68.2892 15.8662C81.866 15.5357 95.58 19.9546 106.22 28.4245C110.46 31.8 114.27 35.7969 119.032 38.3847C123.189 40.6377 128.054 41.571 132.507 39.798C136.186 38.3327 138.58 37.6052 142.712 37.8276C151.262 38.3092 159.692 40.0721 167.719 43.0571C168.043 43.1756 168.367 43.2982 168.689 43.4209C189.622 51.4335 207.62 67.3444 216.969 87.7906C217.215 88.3311 217.456 88.8756 217.69 89.4244C223.267 102.446 225.279 117.713 219.124 130.408Z" fill="#07923B"/>
<path opacity="0.1" d="M41.6199 58.5045V137.313L41.3496 137.388C39.6026 137.879 37.8241 138.252 36.0266 138.502C31.9418 139.024 27.7931 138.69 23.8445 137.521L23.7073 137.481L23.4537 137.407L23.1066 137.298C22.5246 137.116 21.9475 136.915 21.3752 136.698L21.0281 136.565C20.4739 136.351 19.9314 136.122 19.4007 135.877L19.0535 135.719C18.4993 135.461 17.9568 135.189 17.4261 134.902C17.2349 134.802 17.0457 134.694 16.8586 134.592C16.2933 134.276 15.739 133.945 15.1958 133.599C14.6194 133.232 14.0554 132.848 13.5039 132.449C13.249 132.266 12.9968 132.079 12.7474 131.886C11.3096 130.786 9.96314 129.572 8.72131 128.255C8.65272 128.186 8.58828 128.116 8.52385 128.047C8.19337 127.69 7.86912 127.326 7.55527 126.954C7.43887 126.817 7.32248 126.679 7.20816 126.538C6.83542 126.084 6.47583 125.619 6.12942 125.143C6.07745 125.075 6.02757 125.004 5.97769 124.936C4.55752 122.972 3.38016 120.843 2.47125 118.596C2.44215 118.528 2.41513 118.457 2.39019 118.388C2.11306 117.675 1.86017 116.949 1.63154 116.212C1.538 115.904 1.44863 115.589 1.36965 115.281C1.34262 115.189 1.31768 115.096 1.29482 115.004C0.147486 110.488 0.0165405 105.793 0.0165405 101.124C0.0165405 100.58 0.0165405 100.036 0.0165405 99.4926C0.0497966 91.9414 0.166192 84.2613 1.28027 76.8141C1.28027 76.7621 1.29482 76.7101 1.30313 76.6603C1.67601 74.1531 2.1832 71.6678 2.82252 69.2151H24.0482V58.5045H28.28V49.9016H37.388V58.5045H41.6199Z" fill="#07923B"/>
<path opacity="0.1" d="M219.124 130.408C213.604 141.8 202.388 149.418 190.769 154.442C181.467 158.438 171.633 161.062 161.577 162.232C159.651 162.461 157.718 162.638 155.78 162.764C150.826 163.087 145.857 163.082 140.904 162.748C137.925 162.549 134.956 162.233 131.997 161.798C121.718 160.298 111.696 157.38 102.219 153.126C99.4834 151.894 96.8035 150.55 94.1791 149.092C89.7956 146.662 85.5955 143.915 81.6125 140.873C80.7312 140.2 79.861 139.512 79.0019 138.81L78.6485 138.521C77.973 137.964 77.3037 137.394 76.6241 136.841C75.4943 135.895 74.2951 135.035 73.0366 134.268C72.9513 134.218 72.8661 134.168 72.7788 134.12C72.546 133.985 72.3091 133.859 72.068 133.738C71.5713 133.488 71.0621 133.263 70.5424 133.065V100.825H109.117V108.002H126.047V55.5031H145.973V76.496H155.83V64.0666H163.973V50.7891H167.714V43.0571C168.039 43.1755 168.363 43.2982 168.685 43.4208V50.7891H172.327V64.0749H180.464V76.5043H192.463V123.859H211.535V89.4201H217.682C223.267 102.446 225.279 117.713 219.124 130.408Z" fill="#07923B"/>
<path opacity="0.1" d="M140.908 63.4036H132.001V72.3099H140.908V63.4036Z" fill="#07923B"/>
<path opacity="0.1" d="M140.908 81.8648H132.001V90.7712H140.908V81.8648Z" fill="#07923B"/>
<path opacity="0.1" d="M140.908 100.328H132.001V109.235H140.908V100.328Z" fill="#07923B"/>
<path opacity="0.1" d="M140.908 118.792H132.001V127.698H140.908V118.792Z" fill="#07923B"/>
<path opacity="0.1" d="M140.908 137.253H132.001V146.159H140.908V137.253Z" fill="#07923B"/>
<path opacity="0.1" d="M140.908 155.712V162.746C137.929 162.547 134.96 162.231 132.001 161.796V155.712H140.908Z" fill="#07923B"/>
<path opacity="0.1" d="M104.655 112.336H73.4792V116.37H104.655V112.336Z" fill="#07923B"/>
<path opacity="0.1" d="M104.655 124.588H73.4792V128.623H104.655V124.588Z" fill="#07923B"/>
<path opacity="0.1" d="M104.655 136.841V140.873H81.6165C80.7352 140.2 79.865 139.512 79.0059 138.81L78.6525 138.521C77.977 137.964 77.3077 137.394 76.6281 136.841H104.655Z" fill="#07923B"/>
<path opacity="0.1" d="M104.655 149.092V153.126H102.223C99.4874 151.894 96.8075 150.55 94.183 149.092H104.655Z" fill="#07923B"/>
<path opacity="0.1" d="M161.581 87.5204H155.784V93.3174H161.581V87.5204Z" fill="#07923B"/>
<path opacity="0.1" d="M36.0391 60.5041H30.2421V66.301H36.0391V60.5041Z" fill="#07923B"/>
<path opacity="0.1" d="M36.0391 73.9727H30.2421V79.7697H36.0391V73.9727Z" fill="#07923B"/>
<path opacity="0.1" d="M36.0391 87.4394H30.2421V93.2363H36.0391V87.4394Z" fill="#07923B"/>
<path opacity="0.1" d="M36.0391 100.908H30.2421V106.705H36.0391V100.908Z" fill="#07923B"/>
<path opacity="0.1" d="M36.0391 114.377H30.2421V120.174H36.0391V114.377Z" fill="#07923B"/>
<path opacity="0.1" d="M36.0391 127.843H30.2421V133.64H36.0391V127.843Z" fill="#07923B"/>
<path opacity="0.1" d="M183.715 87.5204H177.918V93.3174H183.715V87.5204Z" fill="#07923B"/>
<path opacity="0.1" d="M161.581 101.821H155.784V107.617H161.581V101.821Z" fill="#07923B"/>
<path opacity="0.1" d="M183.715 101.821H177.918V107.617H183.715V101.821Z" fill="#07923B"/>
<path opacity="0.1" d="M161.581 116.123H155.784V121.92H161.581V116.123Z" fill="#07923B"/>
<path opacity="0.1" d="M183.715 116.123H177.918V121.92H183.715V116.123Z" fill="#07923B"/>
<path opacity="0.1" d="M161.581 130.425H155.784V136.222H161.581V130.425Z" fill="#07923B"/>
<path opacity="0.1" d="M183.715 130.425H177.918V136.222H183.715V130.425Z" fill="#07923B"/>
<path opacity="0.1" d="M161.581 144.725H155.784V150.522H161.581V144.725Z" fill="#07923B"/>
<path opacity="0.1" d="M183.715 144.725H177.918V150.522H183.715V144.725Z" fill="#07923B"/>
<path opacity="0.1" d="M155.784 162.764V159.025H161.581V162.232L155.784 162.764Z" fill="#07923B"/>
<path opacity="0.1" d="M1.28229 76.6624V79.988H23.4537V76.6624H1.28229ZM3.25686 79.7801H1.6294V76.8702H3.25686V79.7801ZM5.23144 79.7801H3.60397V76.8702H5.23144V79.7801ZM7.20602 79.7801H5.57855V76.8702H7.20602V79.7801ZM9.1806 79.7801H7.55313V76.8702H9.1806V79.7801ZM11.1552 79.7801H9.52771V76.8702H11.1552V79.7801ZM13.1298 79.7801H11.5023V76.8702H13.1298V79.7801ZM15.1043 79.7801H13.4769V76.8702H15.1043V79.7801ZM17.0789 79.7801H15.4514V76.8702H17.0789V79.7801ZM19.0535 79.7801H17.426V76.8702H19.0535V79.7801ZM21.0281 79.7801H19.4006V76.8702H21.0281V79.7801ZM23.1066 79.7801H21.3752V76.8702H23.1066V79.7801Z" fill="#07923B"/>
<path opacity="0.1" d="M1.28229 86.3191V89.6343H23.4537V86.3191H1.28229ZM3.25686 89.4264H1.6294V86.5269H3.25686V89.4264ZM5.23144 89.4264H3.60397V86.5269H5.23144V89.4264ZM7.20602 89.4264H5.57855V86.5269H7.20602V89.4264ZM9.1806 89.4264H7.55313V86.5269H9.1806V89.4264ZM11.1552 89.4264H9.52771V86.5269H11.1552V89.4264ZM13.1298 89.4264H11.5023V86.5269H13.1298V89.4264ZM15.1043 89.4264H13.4769V86.5269H15.1043V89.4264ZM17.0789 89.4264H15.4514V86.5269H17.0789V89.4264ZM19.0535 89.4264H17.426V86.5269H19.0535V89.4264ZM21.0281 89.4264H19.4006V86.5269H21.0281V89.4264ZM23.1066 89.4264H21.3752V86.5269H23.1066V89.4264Z" fill="#07923B"/>
<path opacity="0.1" d="M1.28229 95.9737V99.2889H23.4537V95.9737H1.28229ZM3.25686 99.081H1.6294V96.1815H3.25686V99.081ZM5.23144 99.081H3.60397V96.1815H5.23144V99.081ZM7.20602 99.081H5.57855V96.1815H7.20602V99.081ZM9.1806 99.081H7.55313V96.1815H9.1806V99.081ZM11.1552 99.081H9.52771V96.1815H11.1552V99.081ZM13.1298 99.081H11.5023V96.1815H13.1298V99.081ZM15.1043 99.081H13.4769V96.1815H15.1043V99.081ZM17.0789 99.081H15.4514V96.1815H17.0789V99.081ZM19.0535 99.081H17.426V96.1815H19.0535V99.081ZM21.0281 99.081H19.4006V96.1815H21.0281V99.081ZM23.1066 99.081H21.3752V96.1815H23.1066V99.081Z" fill="#07923B"/>
<path opacity="0.1" d="M1.28229 105.62V108.946H23.4537V105.62H1.28229ZM3.25686 108.738H1.6294V105.828H3.25686V108.738ZM5.23144 108.738H3.60397V105.828H5.23144V108.738ZM7.20602 108.738H5.57855V105.828H7.20602V108.738ZM9.1806 108.738H7.55313V105.828H9.1806V108.738ZM11.1552 108.738H9.52771V105.828H11.1552V108.738ZM13.1298 108.738H11.5023V105.828H13.1298V108.738ZM15.1043 108.738H13.4769V105.828H15.1043V108.738ZM17.0789 108.738H15.4514V105.828H17.0789V108.738ZM19.0535 108.738H17.426V105.828H19.0535V108.738ZM21.0281 108.738H19.4006V105.828H21.0281V108.738ZM23.1066 108.738H21.3752V105.828H23.1066V108.738Z" fill="#07923B"/>
<path opacity="0.1" d="M1.36755 115.283C1.44654 115.595 1.53591 115.907 1.62945 116.214V115.491H3.25691V118.401H2.3881C2.41304 118.469 2.44006 118.54 2.46916 118.609H23.462V115.283H1.36755ZM5.23149 118.401H3.60402V115.491H5.23149V118.401ZM7.20607 118.401H5.5786V115.491H7.20607V118.401ZM9.18065 118.401H7.55318V115.491H9.18065V118.401ZM11.1552 118.401H9.52775V115.491H11.1552V118.401ZM13.1298 118.401H11.5023V115.491H13.1298V118.401ZM15.1044 118.401H13.4769V115.491H15.1044V118.401ZM17.079 118.401H15.4515V115.491H17.079V118.401ZM19.0535 118.401H17.4261V115.491H19.0535V118.401ZM21.0281 118.401H19.4006V115.491H21.0281V118.401ZM23.1066 118.401H21.3752V115.491H23.1066V118.401Z" fill="#07923B"/>
<path opacity="0.1" d="M5.97559 124.938C6.02547 125.006 6.07535 125.077 6.12732 125.146H7.20606V126.54C7.32038 126.679 7.43677 126.817 7.55317 126.956V125.148H9.18064V128.058H8.52175C8.58618 128.126 8.65062 128.197 8.71921 128.265H23.4537V124.94L5.97559 124.938ZM11.1552 128.055H9.52775V125.146H11.1552V128.055ZM13.1298 128.055H11.5023V125.146H13.1298V128.055ZM15.1044 128.055H13.4769V125.146H15.1044V128.055ZM17.0789 128.055H15.4515V125.146H17.0789V128.055ZM19.0535 128.055H17.4261V125.146H19.0535V128.055ZM21.0281 128.055H19.4006V125.146H21.0281V128.055ZM23.1066 128.055H21.3752V125.146H23.1066V128.055Z" fill="#07923B"/>
<path opacity="0.1" d="M16.8587 134.592C17.0458 134.698 17.2349 134.8 17.4261 134.902V134.8H19.0536V135.719L19.4007 135.877V134.8H21.0282V136.565L21.3753 136.698V134.8H23.1067V137.294L23.4538 137.402V134.592H16.8587Z" fill="#07923B"/>
<path opacity="0.1" d="M85.2247 47.873C85.2247 47.873 80.2696 47.5737 80.8599 51.0448C80.8296 51.2212 80.8559 51.4027 80.9351 51.5632C81.0142 51.7238 81.1421 51.8551 81.3005 51.9385C81.3005 51.9385 81.3005 51.6808 81.8077 51.7681C81.9855 51.7973 82.1662 51.8057 82.346 51.793C82.5892 51.777 82.8205 51.6822 83.0049 51.5228C83.0049 51.5228 84.3975 50.9471 84.94 48.6711C84.94 48.6711 85.339 48.1744 85.3245 48.0476L84.4931 48.4051C84.4931 48.4051 84.7799 49.0079 84.5555 49.5088C84.5555 49.5088 84.5284 48.4279 84.3663 48.4529C84.3351 48.4529 83.9319 48.6607 83.9319 48.6607C83.9319 48.6607 84.4245 49.7125 84.0525 50.4753C84.0525 50.4753 84.1938 49.1824 83.7802 48.7376L83.1774 49.0848C83.1774 49.0848 83.7531 50.1697 83.3624 51.0552C83.3624 51.0552 83.4642 49.6979 83.0548 49.17L82.5206 49.5857C82.5206 49.5857 83.061 50.654 82.7284 51.3898C82.7284 51.3898 82.6848 49.8081 82.4021 49.6875C82.1993 49.8585 82.0185 50.054 81.8638 50.2695C81.8638 50.2695 82.2338 51.0448 82.0051 51.4542C82.0051 51.4542 81.8638 50.4025 81.7474 50.3963C81.7474 50.3963 81.2839 51.0947 81.2361 51.5727C81.2574 51.1292 81.3951 50.6991 81.6352 50.3256C81.3674 50.3763 81.1203 50.5042 80.9243 50.6935C80.9243 50.6935 80.9971 50.2009 81.7557 50.1573C81.7557 50.1573 82.1402 49.6293 82.2442 49.5961C82.2442 49.5961 81.4938 49.5337 81.0386 49.7353C81.0386 49.7353 81.4398 49.2697 82.3813 49.4818L82.9072 49.0515C82.9072 49.0515 81.9199 48.9164 81.5021 49.0661C81.5021 49.0661 81.9823 48.6503 83.0485 48.9538L83.6222 48.6109C83.1815 48.5144 82.7302 48.4752 82.2795 48.4945C82.2795 48.4945 82.8074 48.2097 83.7906 48.5194L84.2063 48.3344C84.2063 48.3344 83.5827 48.2139 83.4102 48.1952C83.2377 48.1765 83.219 48.1266 83.219 48.1266C83.6094 48.0615 84.0102 48.1061 84.3767 48.2554C84.3767 48.2554 85.2393 47.927 85.2247 47.873Z" fill="#07923B"/>
<path opacity="0.1" d="M72.2176 64.765C72.2176 64.765 70.5236 69.4291 74.0196 69.8552C74.1797 69.934 74.3606 69.9601 74.5364 69.9299C74.7122 69.8996 74.874 69.8146 74.9986 69.6869C74.9986 69.6869 74.7554 69.6058 74.9799 69.1506C75.0585 68.9889 75.1185 68.8187 75.1586 68.6434C75.2112 68.4053 75.1849 68.1566 75.0838 67.9347C75.0838 67.9347 74.9279 66.4361 72.8993 65.27C72.8993 65.27 72.5376 64.7442 72.4109 64.7234L72.5148 65.6275C72.5148 65.6275 73.1737 65.5236 73.5914 65.8811C73.5914 65.8811 72.5522 65.6005 72.5252 65.7626C72.5252 65.7938 72.6021 66.2386 72.6021 66.2386C72.6021 66.2386 73.7494 66.064 74.375 66.6377C74.375 66.6377 73.1737 66.1347 72.6312 66.407L72.7933 67.0679C72.7933 67.0679 73.9968 66.8268 74.7346 67.4504C74.7346 67.4504 73.4626 66.9703 72.839 67.2114L73.0864 67.8349C73.0864 67.8349 74.2649 67.6271 74.876 68.1446C74.876 68.1446 73.3462 67.7289 73.1529 67.9742C73.2593 68.2162 73.3947 68.4444 73.5561 68.6538C73.5561 68.6538 74.4062 68.5208 74.7325 68.8617C74.7325 68.8617 73.6829 68.6975 73.6455 68.8056C73.6455 68.8056 74.1838 69.4499 74.6286 69.637C74.2109 69.4892 73.8391 69.2348 73.5499 68.8991C73.5223 69.1709 73.5751 69.4448 73.7016 69.6869C73.7016 69.6869 73.2485 69.479 73.421 68.7411C73.421 68.7411 73.0219 68.2236 73.0219 68.1176C73.0219 68.1176 72.7476 68.818 72.8141 69.3127C72.8141 69.3127 72.4815 68.7952 72.9513 67.9534L72.6894 67.3298C72.6894 67.3298 72.2737 68.2381 72.3028 68.6829C72.3028 68.6829 72.045 68.103 72.6353 67.1656L72.4711 66.5192C72.2536 66.9118 72.088 67.331 71.9785 67.7663C71.9785 67.7663 71.8538 67.1781 72.4296 66.3238L72.3693 65.879C72.3693 65.879 72.0783 66.4361 72.0097 66.6044C71.9411 66.7728 71.8892 66.7666 71.8892 66.7666C71.937 66.3735 72.0932 66.0015 72.3402 65.692C72.3402 65.692 72.2737 64.765 72.2176 64.765Z" fill="#07923B"/>
<path opacity="0.1" d="M105.064 60.8325C105.064 60.8325 103.372 65.5049 106.866 65.9206C107.027 65.9993 107.208 66.0252 107.384 65.9946C107.561 65.964 107.723 65.8784 107.847 65.7502C107.847 65.7502 107.602 65.6691 107.828 65.216C107.908 65.0541 107.967 64.8831 108.005 64.7068C108.058 64.4689 108.033 64.2202 107.932 63.998C107.932 63.998 107.777 62.4994 105.748 61.3334C105.748 61.3334 105.384 60.8096 105.257 60.7888L105.363 61.6909C105.363 61.6909 106.022 61.589 106.44 61.9465C106.44 61.9465 105.401 61.6659 105.372 61.826C105.372 61.8592 105.449 62.302 105.449 62.302C105.449 62.302 106.596 62.1295 107.224 62.701C107.224 62.701 106.022 62.2001 105.478 62.4703L105.642 63.1334C105.642 63.1334 106.845 62.8902 107.583 63.5158C107.583 63.5158 106.309 63.0336 105.686 63.2747L105.933 63.8983C105.933 63.8983 107.111 63.6904 107.722 64.208C107.722 64.208 106.195 63.7923 105.999 64.0396C106.109 64.2826 106.249 64.5109 106.415 64.7193C106.415 64.7193 107.263 64.5842 107.592 64.9271C107.592 64.9271 106.542 64.7629 106.504 64.8731C106.504 64.8731 107.041 65.5153 107.486 65.7045C107.068 65.5573 106.697 65.3028 106.409 64.9666C106.381 65.2382 106.433 65.5118 106.559 65.7544C106.559 65.7544 106.107 65.5465 106.28 64.8107C106.28 64.8107 105.881 64.2911 105.879 64.1872C105.879 64.1872 105.607 64.8897 105.671 65.3823C105.671 65.3823 105.338 64.8668 105.808 64.023L105.546 63.3994C105.546 63.3994 105.131 64.3077 105.16 64.7504C105.16 64.7504 104.902 64.1726 105.492 63.2352L105.326 62.5867C105.108 62.9793 104.943 63.3985 104.833 63.8338C104.833 63.8338 104.711 63.2456 105.286 62.3913L105.226 61.9465C105.226 61.9465 104.935 62.5036 104.865 62.6719C104.794 62.8403 104.744 62.8341 104.744 62.8341C104.793 62.441 104.95 62.0691 105.197 61.7595C105.197 61.7595 105.122 60.8345 105.064 60.8325Z" fill="#07923B"/>
<path opacity="0.1" d="M58.1107 98.9688C58.1107 98.9688 56.4168 103.635 59.9128 104.061C60.073 104.14 60.2541 104.166 60.43 104.135C60.606 104.105 60.7676 104.019 60.8918 103.891C60.8918 103.891 60.6486 103.81 60.8731 103.357C60.953 103.195 61.013 103.024 61.0518 102.847C61.1055 102.609 61.0792 102.36 60.977 102.139C60.977 102.139 60.8211 100.64 58.7925 99.476C58.7925 99.476 58.4308 98.9501 58.304 98.9293L58.408 99.8314C58.408 99.8314 59.0689 99.7295 59.4846 100.087C59.4846 100.087 58.4454 99.8064 58.4184 99.9665C58.4184 99.9997 58.4953 100.442 58.4953 100.442C58.4953 100.442 59.6426 100.27 60.2682 100.842C60.2682 100.842 59.0668 100.341 58.5244 100.611L58.6865 101.274C58.6865 101.274 59.8899 101.031 60.6278 101.656C60.6278 101.656 59.3558 101.174 58.7322 101.415L58.9796 102.039C58.9796 102.039 60.1581 101.831 60.7691 102.348C60.7691 102.348 59.2414 101.933 59.0461 102.18C59.1525 102.422 59.2879 102.65 59.4493 102.86C59.4493 102.86 60.2994 102.725 60.6278 103.068C60.6278 103.068 59.5761 102.903 59.5387 103.014C59.5387 103.014 60.077 103.656 60.5218 103.845C60.104 103.698 59.732 103.445 59.4431 103.109C59.4156 103.38 59.4683 103.653 59.5948 103.895C59.5948 103.895 59.1417 103.687 59.3142 102.951C59.3142 102.951 58.9172 102.432 58.9151 102.328C58.9151 102.328 58.6408 103.03 58.7073 103.523C58.7073 103.523 58.3747 103.007 58.8445 102.163L58.5826 101.54C58.5826 101.54 58.1669 102.448 58.198 102.891C58.198 102.891 57.9403 102.313 58.5306 101.376L58.3643 100.729C58.1464 101.122 57.9808 101.541 57.8717 101.976C57.8717 101.976 57.747 101.386 58.3227 100.534L58.2625 100.087C58.2625 100.087 57.9715 100.644 57.9029 100.812C57.8343 100.981 57.7823 100.975 57.7823 100.975C57.8304 100.581 57.9873 100.209 58.2355 99.9C58.2355 99.9 58.1669 98.9688 58.1107 98.9688Z" fill="#07923B"/>
<path opacity="0.1" d="M51.3888 54.9898C51.3888 54.9898 49.6969 59.6539 53.1908 60.08C53.3513 60.1586 53.5325 60.1847 53.7086 60.1544C53.8847 60.1242 54.0468 60.0393 54.1719 59.9116C54.1719 59.9116 53.9266 59.8306 54.1532 59.3754C54.2316 59.2131 54.2909 59.0422 54.3299 58.8662C54.3831 58.629 54.3575 58.3809 54.2571 58.1595C54.2571 58.1595 54.1012 56.6609 52.0705 55.4948C52.0705 55.4948 51.7089 54.969 51.5821 54.9482L51.6881 55.8523C51.6881 55.8523 52.347 55.7484 52.7627 56.1059C52.7627 56.1059 51.7234 55.8253 51.6964 55.9874C51.6964 56.0186 51.7733 56.4634 51.7733 56.4634C51.7733 56.4634 52.9206 56.2888 53.5483 56.8625C53.5483 56.8625 52.347 56.3595 51.8024 56.6318L51.9645 57.2927C51.9645 57.2927 53.168 57.0495 53.9079 57.6752C53.9079 57.6752 52.6338 57.193 52.0103 57.4361L52.2576 58.0597C52.2576 58.0597 53.4361 57.8518 54.0472 58.3715C54.0472 58.3715 52.5195 57.9558 52.3241 58.201C52.4306 58.4431 52.566 58.6713 52.7273 58.8807C52.7273 58.8807 53.5774 58.7477 53.9058 59.0886C53.9058 59.0886 52.8562 58.9244 52.8188 59.0324C52.8188 59.0324 53.355 59.6768 53.7998 59.8638C53.3824 59.7155 53.0107 59.4612 52.7211 59.126C52.6936 59.3977 52.7463 59.6716 52.8728 59.9137C52.8728 59.9137 52.4197 59.7059 52.5943 58.968C52.5943 58.968 52.1952 58.4505 52.1932 58.3445C52.1932 58.3445 51.9209 59.0449 51.9853 59.5396C51.9853 59.5396 51.6507 59.022 52.1225 58.1803L51.8585 57.5567C51.8585 57.5567 51.4428 58.465 51.474 58.9098C51.474 58.9098 51.2163 58.3299 51.8066 57.3925L51.6403 56.7461C51.4228 57.1387 51.2572 57.5579 51.1477 57.9932C51.1477 57.9932 51.025 57.405 51.5987 56.5507L51.5405 56.1059C51.5405 56.1059 51.2474 56.6629 51.1789 56.8292C51.1103 56.9955 51.0583 56.9934 51.0583 56.9934C51.1063 56.6 51.2633 56.2279 51.5114 55.9188C51.5114 55.9188 51.447 54.9898 51.3888 54.9898Z" fill="#07923B"/>
<path opacity="0.1" d="M63.9514 80.3891C63.9514 80.3891 65.2588 85.1696 68.3599 83.5068C68.5361 83.4788 68.699 83.3958 68.8252 83.2696C68.9514 83.1434 69.0344 82.9805 69.0625 82.8043C69.0625 82.8043 68.8172 82.8791 68.7403 82.3782C68.711 82.2004 68.6607 82.0267 68.5906 81.8607C68.4985 81.635 68.334 81.4464 68.123 81.3244C68.123 81.3244 67.1315 80.1896 64.7974 80.4057C64.7974 80.4057 64.1988 80.1875 64.0824 80.2436L64.6893 80.9191C64.6893 80.9191 65.1694 80.4556 65.7161 80.5034C65.7161 80.5034 64.6997 80.8775 64.7745 81.021C64.7911 81.0501 65.1112 81.366 65.1112 81.366C65.1112 81.366 65.9426 80.5616 66.7907 80.6676C66.7907 80.6676 65.5207 80.9503 65.2338 81.4865L65.7472 81.9334C65.7472 81.9334 66.5911 81.0417 67.5555 81.1249C67.5555 81.1249 66.2357 81.4658 65.8657 82.0228L66.4311 82.3949C66.4311 82.3949 67.2625 81.5406 68.0731 81.6175C68.0731 81.6175 66.589 82.1641 66.5662 82.4718C66.7932 82.6083 67.0361 82.7165 67.2895 82.7939C67.2895 82.7939 67.913 82.1953 68.3682 82.2805C68.3682 82.2805 67.4142 82.7524 67.4475 82.8625C67.4475 82.8625 68.2581 83.0704 68.7257 82.9706C68.2999 83.0913 67.8499 83.0985 67.4204 82.9914C67.5541 83.2293 67.7552 83.4223 67.9983 83.5463C67.9983 83.5463 67.5077 83.6357 67.2251 82.9353C67.2251 82.9353 66.6015 82.742 66.535 82.6547C66.535 82.6547 66.7179 83.3863 67.0546 83.7521C67.0546 83.7521 66.4851 83.5214 66.3833 82.5611L65.8075 82.2015C65.8075 82.2015 65.9967 83.1805 66.271 83.5276C66.271 83.5276 65.7265 83.2034 65.6683 82.0976L65.1611 81.6653C65.2105 82.1138 65.3181 82.554 65.4812 82.9747C65.4812 82.9747 65.0426 82.5591 65.0198 81.5364L64.7142 81.2059C64.7142 81.2059 64.7974 81.8295 64.8369 82.0062C64.8764 82.1828 64.8369 82.214 64.8369 82.214C64.6496 81.8649 64.5633 81.4705 64.5874 81.075C64.5874 81.075 63.9992 80.3579 63.9514 80.3891Z" fill="#07923B"/>
<path opacity="0.1" d="M99.4189 84.6584C99.4189 84.6584 100.726 89.4389 103.825 87.7761C104.002 87.7488 104.166 87.666 104.292 87.5397C104.419 87.4135 104.502 87.2502 104.53 87.0736C104.53 87.0736 104.283 87.1484 104.206 86.6579C104.178 86.4799 104.128 86.3061 104.058 86.1403C103.964 85.9149 103.799 85.7266 103.588 85.6041C103.588 85.6041 102.597 84.4692 100.263 84.6875C100.263 84.6875 99.6641 84.4671 99.5498 84.5233L100.155 85.1988C100.155 85.1988 100.635 84.7353 101.181 84.7831C101.181 84.7831 100.165 85.1572 100.242 85.3006C100.257 85.3297 100.579 85.6456 100.579 85.6456C100.579 85.6456 101.41 84.8413 102.258 84.9473C102.258 84.9473 100.986 85.2299 100.699 85.7662L101.215 86.2131C101.215 86.2131 102.046 85.3214 103.021 85.4045C103.021 85.4045 101.703 85.7454 101.333 86.3024L101.899 86.6745C101.899 86.6745 102.73 85.8202 103.538 85.8971C103.538 85.8971 102.054 86.4438 102.034 86.7514C102.26 86.888 102.502 86.9962 102.755 87.0736C102.755 87.0736 103.378 86.475 103.834 86.5602C103.834 86.5602 102.882 87.032 102.913 87.1422C102.913 87.1422 103.723 87.35 104.193 87.2502C103.767 87.3709 103.316 87.378 102.886 87.271C103.02 87.5084 103.221 87.7013 103.464 87.826C103.464 87.826 102.973 87.9154 102.69 87.2149C102.69 87.2149 102.067 87.0216 102.002 86.9343C102.002 86.9343 102.183 87.6659 102.52 88.0318C102.52 88.0318 101.951 87.801 101.849 86.8408L101.273 86.477C101.273 86.477 101.462 87.456 101.738 87.8031C101.738 87.8031 101.194 87.4789 101.136 86.3731L100.626 85.9408C100.676 86.3895 100.784 86.8298 100.949 87.2502C100.949 87.2502 100.508 86.8345 100.485 85.8119L100.18 85.4814C100.18 85.4814 100.263 86.105 100.302 86.2817C100.342 86.4583 100.302 86.4895 100.302 86.4895C100.115 86.1403 100.029 85.746 100.053 85.3505C100.053 85.3505 99.4667 84.6272 99.4189 84.6584Z" fill="#07923B"/>
<path d="M86.1123 132.668C86.1123 132.668 96.8956 129.036 94.6633 116.171L80.9659 112.614L77.7858 123.171L86.1123 132.668Z" fill="#CED7E7"/>
<path opacity="0.1" d="M77.7858 123.171L86.1102 132.668C86.1102 132.668 96.8935 129.036 94.6612 116.171L77.7858 123.171Z" fill="black"/>
<path d="M32.4744 28.121C32.4744 28.121 33.9294 30.4884 35.9185 29.3057C37.9076 28.123 35.9996 24.8556 35.9996 24.8556C35.9996 24.8556 32.1897 24.3339 32.4744 28.121Z" fill="#FED253"/>
<path opacity="0.1" d="M35.9186 29.3057C35.6839 29.4575 35.4208 29.5598 35.1452 29.6063C34.8696 29.6527 34.5875 29.6424 34.316 29.5759C33.5865 29.3909 33.0253 28.8298 32.7239 28.4619C32.634 28.3541 32.5507 28.2409 32.4745 28.1231C32.3726 26.772 32.7925 25.9677 33.3745 25.4938C34.1747 24.8432 35.2825 24.8162 35.7606 24.8369C35.9082 24.8369 35.9934 24.8577 35.9934 24.8577L36.0329 24.9242C36.089 25.0302 36.2116 25.2651 36.3426 25.579C36.7874 26.6078 37.3174 28.4722 35.9186 29.3057Z" fill="black"/>
<path d="M87.1723 115.566L94.6549 116.17L108.581 116.285L97.6085 129.795C97.6085 129.795 94.127 129.984 93.4099 130.475C92.6928 130.965 82.6245 130.703 82.6245 130.703L80.9991 123.778L87.1723 115.566Z" fill="#FFA2A2"/>
<path opacity="0.05" d="M87.1723 115.566L94.6549 116.17L108.581 116.285L97.6085 129.795C97.6085 129.795 94.127 129.984 93.4099 130.475C92.6928 130.965 82.6245 130.703 82.6245 130.703L80.9991 123.778L87.1723 115.566Z" fill="black"/>
<path d="M79.6045 79.2418L81.3442 82.1933L81.7225 87.3396C81.7225 87.3396 82.9343 91.7274 83.8426 93.014C84.7509 94.3006 85.1292 97.7072 85.1292 97.7072C85.1292 97.7072 85.5075 100.885 85.9606 101.565C86.4137 102.245 87.0206 107.177 87.0206 107.177C87.0206 107.177 91.0321 115.198 94.6633 116.181C94.6633 116.181 76.653 122.084 86.1123 132.678C86.1123 132.678 79.378 134.341 77.7879 132.451C76.1978 130.562 72.0367 102.561 72.0367 102.561L73.3233 78.9487L79.6045 79.2418Z" fill="#CED7E7"/>
<path opacity="0.05" d="M79.6045 79.2418L81.3442 82.1933L81.7225 87.3396C81.7225 87.3396 82.9343 91.7274 83.8426 93.014C84.7509 94.3006 85.1292 97.7072 85.1292 97.7072C85.1292 97.7072 85.5075 100.885 85.9606 101.565C86.4137 102.245 87.0206 107.177 87.0206 107.177C87.0206 107.177 91.0321 115.198 94.6633 116.181C94.6633 116.181 76.653 122.084 86.1123 132.678C86.1123 132.678 79.378 134.341 77.7879 132.451C76.1978 130.562 72.0367 102.561 72.0367 102.561L73.3233 78.9487L79.6045 79.2418Z" fill="black"/>
<path d="M57.7533 50.4774C57.2479 53.0992 57.3978 55.8051 58.1898 58.355L55.3879 66.3759C55.3879 66.3759 34.0479 54.4952 35.8646 51.6185C36.8934 49.9869 37.0244 45.6699 36.9412 42.2403C36.8809 39.6339 36.696 37.5429 36.696 37.5429C36.696 37.5429 62.8851 40.1182 59.3994 46.0959C58.6106 47.4546 58.0543 48.9355 57.7533 50.4774Z" fill="#FFA2A2"/>
<path opacity="0.1" d="M59.3995 46.0959C58.6107 47.4546 58.0543 48.9355 57.7534 50.4774C53.8668 51.7208 49.6696 51.5796 45.8754 50.0779C42.0812 48.5762 38.9242 45.8067 36.9413 42.2403C36.881 39.6339 36.696 37.5429 36.696 37.5429C36.696 37.5429 62.8789 40.1182 59.3995 46.0959Z" fill="black"/>
<path d="M69.9935 33.2299C69.9953 36.0045 69.3424 38.7403 68.0878 41.215C66.8333 43.6897 65.0125 45.8334 62.7734 47.472C60.5344 49.1105 57.9403 50.1976 55.2021 50.6448C52.4638 51.0921 49.6587 50.8869 47.0147 50.0459C44.3707 49.205 41.9624 47.752 39.9856 45.8051C38.0088 43.8582 36.5194 41.4723 35.6383 38.8414C34.7572 36.2105 34.5093 33.4088 34.9148 30.664C35.3204 27.9193 36.3678 25.309 37.9721 23.0453C38.2215 22.6947 38.4841 22.3524 38.7598 22.0185C40.331 20.1088 42.2863 18.5509 44.4986 17.4458C45.6988 16.8453 46.9648 16.3863 48.2711 16.0781C50.6296 15.5194 53.078 15.4519 55.4637 15.88C57.8495 16.308 60.1217 17.2224 62.1389 18.5662C64.1561 19.9101 65.8753 21.6546 67.1894 23.6914C68.5034 25.7281 69.3844 28.0135 69.7773 30.4053C69.9241 31.3396 69.9964 32.2841 69.9935 33.2299Z" fill="#FFA2A2"/>
<path d="M76.9546 105.73C76.6906 107.139 77.0211 109.715 77.522 112.336C77.5428 112.45 77.5656 112.564 77.5885 112.679C77.6114 112.793 77.6446 112.97 77.6737 113.113C77.9044 114.24 78.1559 115.356 78.4012 116.37C78.6465 117.384 78.8668 118.253 79.0538 118.968C79.3365 120.039 79.5298 120.712 79.5298 120.712C79.5298 120.712 79.5548 121.373 79.588 122.425C79.6067 123.032 79.6275 123.772 79.6483 124.588C79.6483 124.825 79.6628 125.066 79.6691 125.316C79.6795 125.75 79.6899 126.201 79.7003 126.663C79.7003 126.812 79.7003 126.962 79.7106 127.114C79.7106 127.611 79.7294 128.118 79.7377 128.623C79.7481 129.317 79.7564 130.011 79.7605 130.685C79.7605 130.942 79.7605 131.196 79.7605 131.445C79.7605 132.09 79.7605 132.707 79.7605 133.274C79.7377 134.885 79.6732 136.101 79.5361 136.453C79.4883 136.573 79.4446 136.704 79.403 136.841C79.2228 137.486 79.0922 138.144 79.0123 138.81L78.6589 138.521C77.9834 137.964 77.3141 137.394 76.6345 136.841C75.5047 135.895 74.3055 135.035 73.047 134.268C72.9618 134.218 72.8765 134.168 72.7892 134.12C72.5564 133.985 72.3195 133.859 72.0784 133.738C71.5817 133.488 71.0725 133.263 70.5528 133.065C68.1521 132.15 65.581 131.817 62.9745 131.874C61.9353 132.271 61.2598 132.555 61.2598 132.555L59.9379 132.954L59.7175 133.021C58.2854 133.457 56.2714 134.077 55.546 134.335C54.3737 134.75 44.1953 136.868 44.1953 136.868C43.2654 137.122 42.3155 137.296 41.356 137.388C39.609 137.879 37.8305 138.251 36.033 138.502C31.9482 139.024 27.7995 138.69 23.8509 137.521C23.733 137.528 23.6148 137.524 23.4975 137.51C23.5703 137.51 23.641 137.494 23.7054 137.481L23.4518 137.407L23.1047 137.298C22.5227 137.116 21.9456 136.915 21.3733 136.698L21.0262 136.565C20.4719 136.351 19.9295 136.122 19.3987 135.877L19.0516 135.719C18.4974 135.461 17.9549 135.189 17.4242 134.902C17.2329 134.802 17.0438 134.694 16.8567 134.592C16.2914 134.276 15.7371 133.945 15.1939 133.599C15.1025 132.815 15.0547 132.291 15.0547 132.291L14.2441 128.255L14.2025 128.047L13.6205 125.137L13.5789 124.929L12.3131 118.598L12.2716 118.39L11.6896 115.48L11.648 115.273L10.3656 108.946L10.324 108.738L9.74202 105.828L9.70045 105.62L8.4284 99.2806L8.38684 99.0727L7.80485 96.1732L7.76328 95.9654L7.53257 94.8222L7.18546 93.0908C7.18546 93.0908 6.07762 91.507 4.83052 89.6343L4.69126 89.4264C4.33583 88.9005 3.97002 88.3539 3.61459 87.8176C3.49612 87.641 3.3818 87.4664 3.26748 87.2939C3.09428 87.032 2.92661 86.7763 2.76449 86.5269L2.65225 86.3544L2.62938 86.319C0.837715 83.5463 2.03701 82.3408 2.03701 82.3408C2.03701 82.3408 2.78943 81.3223 3.76009 79.9755C3.80789 79.9069 3.85778 79.8383 3.90974 79.7676C4.32544 79.1856 4.78271 78.5496 5.23167 77.9136L5.57878 77.4189C5.70972 77.2339 5.83859 77.0489 5.9633 76.866C6.01319 76.7974 6.06099 76.7268 6.10672 76.6582C7.06491 75.2739 7.85474 74.0663 8.01686 73.6381C8.27044 72.9626 9.88751 70.9651 11.4984 69.213C12.7683 67.8287 14.032 66.5982 14.5995 66.3031C15.8861 65.6234 16.4161 63.4264 16.4161 63.4264C16.4161 63.4264 19.2158 62.4454 19.5941 61.6888C19.9724 60.9322 25.2705 57.5318 25.2705 57.5318C25.2705 57.5318 27.4134 56.1517 28.2802 55.3203C28.4029 55.2115 28.5099 55.0863 28.5982 54.9482C28.8996 54.4078 30.8679 53.963 31.6681 53.803C31.876 53.7614 32.0049 53.7385 32.0049 53.7385C32.3279 53.1515 32.7363 52.6156 33.2166 52.1485C33.543 51.8595 33.9503 50.864 34.2933 49.8995C34.6653 48.8478 34.9543 47.8356 34.9543 47.8356C35.5612 45.7924 36.7709 46.3972 36.7709 46.3972C36.7692 46.6763 36.7957 46.9549 36.8498 47.2286C37.3549 49.7229 40.0985 50.7621 41.5389 51.9281C43.129 53.2127 45.6253 56.5445 47.5936 57.2242C49.2232 57.7874 51.1125 59.9117 51.7111 60.6204L51.7569 60.6745C51.8566 60.7909 51.9065 60.8574 51.9065 60.8574C51.9065 60.8574 53.0227 60.7992 53.7023 60.7867H53.9497C54.0879 60.7728 54.2193 60.7194 54.328 60.6329C55.0035 60.1736 56.0095 58.8267 56.448 58.517C56.976 58.1366 57.5081 52.0071 57.5081 52.0071L57.5351 51.9947C59.4203 51.1113 61.4427 59.9532 61.4427 59.9532C61.4427 59.9532 64.999 61.0133 65.3025 61.7698C65.3607 61.9195 65.6288 62.1855 66.032 62.5077C67.868 63.9108 69.8222 65.1522 71.8726 66.2178C71.9183 66.2407 71.962 66.2636 72.0077 66.2823C72.0489 66.3045 72.0913 66.3246 72.1345 66.3426C72.2114 66.38 72.2862 66.4132 72.3569 66.4444C72.4691 66.4943 72.5731 66.5359 72.6687 66.5691L72.7934 66.6128C73.0913 66.7119 73.3718 66.857 73.6248 67.043C73.6996 67.097 73.7744 67.1532 73.8472 67.2134C74.1302 67.449 74.3905 67.7107 74.6246 67.995C74.6599 68.0365 74.6931 68.0802 74.7264 68.1218C74.8844 68.3192 75.0257 68.5146 75.1421 68.6954C75.3331 68.9744 75.5073 69.2645 75.6638 69.5642C75.6638 69.5642 78.7649 74.8623 79.7501 75.4651C80.7354 76.0679 81.3402 82.2015 81.3402 82.2015L78.0146 94.5291C78.0146 94.5291 77.8587 97.6469 77.5677 100.827C77.4056 102.61 77.1998 104.425 76.9546 105.73Z" fill="#CED7E7"/>
<path d="M51.9065 61.2315C51.9065 61.2315 49.6762 62.4412 47.9345 62.5555C47.7065 62.5662 47.478 62.553 47.2527 62.5161C45.4278 62.2396 42.7507 60.7389 42.7507 60.7389L45.8913 57.2949L49.7116 59.1884L51.1166 60.4958L51.9065 61.2315Z" fill="#63667E"/>
<path opacity="0.1" d="M69.769 30.4053C69.69 30.5171 69.6002 30.6208 69.5009 30.715C68.4076 31.7543 66.4663 31.324 64.976 31.0829C63.681 30.8712 62.4159 30.5055 61.2077 29.9938C60.156 29.5448 58.8943 28.9961 57.9486 29.6404C57.5848 29.8857 57.3354 30.2785 56.9571 30.4947C56.5789 30.7108 56.0966 30.7254 55.6498 30.7316C54.1948 30.7316 52.7399 30.7483 51.3202 30.4199C49.2022 29.9252 47.0115 28.6801 44.9974 29.5012C43.4219 30.1413 42.5677 31.8561 42.1416 33.5044C41.9337 34.3129 41.7799 35.1672 41.3102 35.8531C40.8404 36.539 39.9321 37.0253 39.1589 36.7032C38.0178 36.2272 37.8495 34.29 36.4735 34.1923C34.9624 34.0863 34.9811 35.6473 35.4218 36.7759C36.0744 38.4387 36.9287 40.1015 36.9661 41.835C35.3421 38.9263 34.5747 35.6172 34.7528 32.2906C34.9308 28.964 36.0469 25.7558 37.9721 23.037C38.3071 22.8295 38.5693 22.523 38.7224 22.1599C38.7378 22.1108 38.7503 22.0608 38.7598 22.0102C38.8742 21.4303 38.552 20.8213 38.5333 20.2144C38.4605 18.7324 40.0651 17.6994 41.5367 17.5124C42.5157 17.3876 43.5175 17.4833 44.4986 17.4521C44.9928 17.4412 45.4842 17.3757 45.9639 17.2567C46.7916 17.0087 47.5666 16.6106 48.2503 16.0823C50.6089 15.5236 53.0572 15.4561 55.443 15.8842C57.8287 16.3122 60.1009 17.2266 62.1181 18.5704C64.1354 19.9143 65.8545 21.6588 67.1686 23.6956C68.4827 25.7323 69.3636 28.0177 69.7566 30.4095L69.769 30.4053Z" fill="black"/>
<path d="M70.1244 29.181C70.0208 29.5921 69.8049 29.9663 69.5008 30.2618C68.4075 31.3011 66.4662 30.8687 64.9759 30.6276C63.6809 30.4205 62.4156 30.0576 61.2076 29.5468C60.1559 29.0999 58.8942 28.5512 57.9485 29.1955C57.5848 29.4408 57.3354 29.8336 56.9571 30.0498C56.5788 30.266 56.0966 30.2805 55.6497 30.2847C54.1947 30.2951 52.7398 30.3034 51.3202 29.975C49.2022 29.4782 47.0114 28.2353 44.9974 29.0542C43.4219 29.6944 42.5676 31.4112 42.1415 33.0595C41.9337 33.868 41.7798 34.7223 41.3101 35.4061C40.8404 36.0899 39.9321 36.5805 39.1589 36.2583C38.0178 35.7823 37.8494 33.8452 36.4734 33.7475C34.9624 33.6415 34.9811 35.2024 35.4217 36.331C36.1949 38.2994 37.2466 40.2573 36.9016 42.3442C36.5586 42.3442 35.9912 42.3317 35.6545 42.3234C35.9164 41.8765 35.4176 41.3444 34.9208 41.1927C34.424 41.0409 33.8441 41.043 33.4658 40.6814C33.0875 40.3197 33.0855 39.7606 33.125 39.2597C33.2112 38.189 33.4731 37.1399 33.9002 36.1544C34.1725 35.5308 34.5238 34.8553 34.3159 34.2027C34.1912 33.9068 34.041 33.6224 33.867 33.3525C33.4347 32.5211 33.5365 31.4819 33.9065 30.6235C34.0644 30.2577 34.1788 29.9126 34.3097 29.5842C34.4751 29.1174 34.7144 28.6802 35.0185 28.2893C35.4945 27.6969 35.96 26.8053 35.4342 26.2545C35.3012 26.1152 35.5672 26.0196 35.482 25.8388C35.4669 25.8079 35.4564 25.775 35.4508 25.7411C35.4264 25.5221 35.4793 25.3015 35.6005 25.1175C35.625 25.0697 35.6521 25.0232 35.6815 24.9783C35.7054 24.9308 35.7325 24.8849 35.7626 24.8411C36.2228 24.0726 36.8345 23.4058 37.5605 22.8811C38.0115 22.5547 38.5395 22.2409 38.7182 21.7129C38.9261 21.0894 38.5602 20.4263 38.5291 19.7675C38.4563 18.2855 40.0609 17.2525 41.5325 17.0654C43.0041 16.8783 44.5297 17.188 45.9639 16.8077C47.9987 16.2714 49.4287 14.4756 51.2765 13.4675C52.2874 12.927 53.4084 12.6247 54.5539 12.5836C55.6994 12.5426 56.8392 12.7638 57.8862 13.2306C60.0437 14.2158 61.6711 16.207 63.9242 16.9552C64.7224 17.2213 65.587 17.3273 66.3062 17.7679C67.1376 18.2793 67.6427 19.173 68.075 20.0543C68.7339 21.3908 68.8669 22.7335 69.3221 24.1489C69.6837 25.2713 70.1847 26.7388 70.2262 28.0316C70.2496 28.4177 70.2153 28.8051 70.1244 29.181Z" fill="#896363"/>
<g opacity="0.1">
<path opacity="0.1" d="M35.7046 26.5767C35.7378 26.4437 35.7411 26.3049 35.7141 26.1704C35.6872 26.036 35.6307 25.9092 35.5487 25.7993C35.6027 25.9614 35.3678 26.055 35.4967 26.1901C35.5994 26.298 35.6712 26.4315 35.7046 26.5767Z" fill="black"/>
<path opacity="0.1" d="M35.5424 25.3233C35.5179 25.3958 35.5033 25.4713 35.4988 25.5478C35.5383 25.4813 35.5923 25.4127 35.5424 25.3233Z" fill="black"/>
<path opacity="0.1" d="M69.5592 29.7547C68.4638 30.7939 66.5246 30.3637 65.0302 30.1205C63.736 29.9121 62.472 29.5471 61.266 29.0334C60.2122 28.5845 58.9526 28.0358 58.0048 28.6801C57.6431 28.9254 57.3937 29.3182 57.0134 29.5344C56.633 29.7505 56.1529 29.7651 55.706 29.7692C54.251 29.7692 52.7961 29.7879 51.3744 29.4575C49.2585 28.9628 47.0677 27.7219 45.0537 28.5388C43.4782 29.181 42.6239 30.8958 42.1978 32.544C41.9899 33.3526 41.8382 34.2068 41.3664 34.8927C40.8946 35.5787 39.9863 36.065 39.2151 35.7449C38.074 35.2669 37.9057 33.3318 36.5297 33.2341C35.4551 33.1572 35.1558 33.9262 35.2286 34.7805C35.2909 34.1279 35.6443 33.6249 36.5297 33.6872C37.9057 33.7849 38.074 35.7221 39.2151 36.198C39.9863 36.5202 40.8967 36.0359 41.3664 35.3459C41.8361 34.6558 41.9899 33.8057 42.1978 32.9992C42.6239 31.351 43.4782 29.6341 45.0537 28.994C47.0677 28.175 49.2585 29.4097 51.3744 29.9127C52.7878 30.2431 54.2552 30.2327 55.706 30.2224C56.1529 30.2224 56.6247 30.2099 57.0134 29.9896C57.402 29.7692 57.6369 29.3806 58.0048 29.1332C58.9526 28.491 60.2122 29.0397 61.266 29.4866C62.4722 29.9999 63.7361 30.3656 65.0302 30.5757C66.5246 30.8168 68.4638 31.2512 69.5592 30.2078C70.1537 29.6404 70.3324 28.8194 70.2929 27.9214C70.2597 28.6344 70.0518 29.2808 69.5592 29.7547Z" fill="black"/>
<path opacity="0.1" d="M38.602 19.3912C38.5905 19.4947 38.5863 19.5989 38.5895 19.703C38.6103 20.1353 38.7745 20.5677 38.8265 20.9896C38.9034 20.4721 38.6644 19.9316 38.602 19.3912Z" fill="black"/>
<path opacity="0.1" d="M34.3784 34.1382C34.3956 34.2004 34.4088 34.2636 34.4179 34.3274C34.4516 34.113 34.4381 33.8938 34.3784 33.6851C34.2545 33.3882 34.1043 33.103 33.9295 32.8329C33.7733 32.5255 33.6807 32.1897 33.6572 31.8456C33.6149 32.3423 33.7091 32.8411 33.9295 33.2881C34.1047 33.5573 34.2549 33.8418 34.3784 34.1382Z" fill="black"/>
<path opacity="0.1" d="M36.9579 41.8246L35.7419 41.8059C35.7703 41.8793 35.7817 41.9583 35.7752 42.0367C35.7687 42.1152 35.7446 42.1912 35.7045 42.259C36.0475 42.259 36.617 42.2715 36.9516 42.2798C37.0098 41.924 37.03 41.5631 37.0119 41.2031C37.0072 41.4112 36.9891 41.6188 36.9579 41.8246Z" fill="black"/>
<path opacity="0.1" d="M34.9688 40.6752C34.472 40.5255 33.8942 40.5234 33.5242 40.1597C33.3064 39.9215 33.1836 39.6116 33.1792 39.2888C33.148 39.7669 33.1792 40.2823 33.5242 40.6149C33.8942 40.9786 34.472 40.9807 34.9688 41.1304C35.1304 41.1774 35.2807 41.257 35.4104 41.3642C35.5402 41.4714 35.6466 41.604 35.7233 41.7539C35.9332 41.3237 35.451 40.8186 34.9688 40.6752Z" fill="black"/>
</g>
<path opacity="0.1" d="M72.7829 134.12C72.5501 133.985 72.3132 133.858 72.0721 133.738C71.5754 133.488 71.0662 133.263 70.5464 133.064C68.1458 132.15 65.5747 131.817 62.9682 131.874C61.929 132.271 61.2535 132.555 61.2535 132.555L59.9315 132.954L59.7112 133.021C59.6967 132.875 59.68 132.73 59.6655 132.582C59.6509 132.435 59.6343 132.293 59.6177 132.148C59.1521 127.739 58.7863 123.21 58.7863 123.21V119.299V118.843L58.7613 107.318L58.5535 103.519L58.4558 101.837L58.4371 101.517L58.3997 100.86L58.3789 100.469C58.333 100.346 58.2942 100.219 58.2625 100.091C58.2479 100.039 58.2334 99.981 58.2209 99.9207C58.169 99.7129 58.1128 99.4447 58.0546 99.1537C57.6743 97.2415 57.1983 94.0178 57.1692 93.363C57.1318 92.4901 56.3752 87.2689 56.3752 87.2689C56.2983 84.3943 53.881 78.9819 53.272 77.9613C52.663 76.9408 51.9833 70.8092 52.212 70.4787C52.3304 70.302 52.4074 69.2566 52.4552 68.2921C52.4552 68.182 52.4656 68.0739 52.4697 67.9679C52.5009 67.2134 52.5154 66.5836 52.5154 66.5836L54.8932 66.1139L55.5313 65.9891L55.5812 65.9788L55.602 66.0203C55.6706 66.1471 55.8847 66.5524 56.1362 67.0845C56.1653 67.1406 56.1923 67.2009 56.2214 67.2612C56.2339 67.2903 56.2484 67.3194 56.263 67.3485C56.7286 68.367 57.2669 69.7076 57.244 70.4787C57.2066 71.8422 58.7593 75.1346 58.7593 75.1346C58.9089 75.8911 62.2013 83.4195 62.2013 83.4195C62.2013 83.4195 64.8888 90.7982 64.737 92.0099C64.5853 93.2217 66.0236 101.243 66.0236 101.243L67.4994 109.492C68.2164 111.118 69.1622 114.863 69.1622 114.863L69.5217 116.987L69.5903 117.393L70.5485 123.061L71.0183 125.838C71.0183 125.838 71.2157 127.313 71.515 128.955C71.54 129.103 71.5691 129.253 71.5982 129.402C71.7826 130.483 72.0444 131.549 72.3818 132.593C72.549 133.093 72.683 133.603 72.7829 134.12Z" fill="black"/>
<path d="M73.0405 134.268C72.9553 134.218 72.8701 134.168 72.7828 134.121C72.55 133.985 72.313 133.859 72.0719 133.738C71.5752 133.488 71.066 133.263 70.5463 133.065C68.1456 132.15 65.5745 131.818 62.9681 131.874C61.9288 132.271 61.2533 132.555 61.2533 132.555L59.9314 132.954C59.9148 132.809 59.9002 132.663 59.8836 132.516C59.867 132.368 59.8545 132.25 59.842 132.117C59.3764 127.719 59.0106 123.21 59.0106 123.21V119.261V118.806L58.9857 107.31L58.7778 103.681L58.7363 102.928L58.7071 102.419L58.6697 101.746L58.6323 101.062L58.6053 100.569V100.461C58.6053 100.451 58.6053 100.438 58.5908 100.426C58.5513 100.314 58.5035 100.143 58.4515 99.9271L58.4266 99.8231C58.4162 99.7753 58.4037 99.7234 58.3933 99.6714C58.0025 97.8985 57.4289 94.0761 57.3977 93.359C57.3603 92.486 56.6037 87.2648 56.6037 87.2648C56.5268 84.3903 54.1095 78.9778 53.5005 77.9573C52.8915 76.9368 52.2139 70.8052 52.4405 70.4747C52.5714 70.2668 52.6483 69.0052 52.6982 67.9639C52.6982 67.8807 52.6982 67.7997 52.6982 67.7228C52.7252 67.0805 52.7356 66.5796 52.7356 66.5796L54.9471 66.1431L55.5083 66.0329L55.5956 66.0163L55.8035 65.9747C55.8035 65.9747 56.0758 66.4777 56.4021 67.1699L56.4437 67.2572C56.9196 68.2839 57.4829 69.6807 57.4663 70.4747C57.4289 71.8382 58.9815 75.1305 58.9815 75.1305C59.1312 75.8871 62.4235 83.4154 62.4235 83.4154C62.4235 83.4154 65.111 90.7941 64.9593 92.0059C64.8076 93.2177 66.2459 101.239 66.2459 101.239L67.7216 109.488C68.4387 111.114 69.3844 114.859 69.3844 114.859L69.7191 116.838L69.7876 117.239L70.5421 121.712L71.2384 125.834C71.2384 125.834 71.4463 127.303 71.7331 128.951C71.7601 129.101 71.7872 129.251 71.8163 129.402C72.0004 130.488 72.2622 131.559 72.5999 132.607C72.7841 133.15 72.9313 133.705 73.0405 134.268Z" fill="#63667E"/>
<path d="M71.1658 27.5182C71.1658 27.5182 70.3719 28.5409 69.6548 28.5409C68.9377 28.5409 66.1463 28.4265 64.6913 27.9734C63.2364 27.5203 56.1029 27.1774 56.1029 27.1774C56.1029 27.1774 46.0014 27.2148 45.6605 26.8739C45.3197 26.533 39.3793 24.7164 38.7745 24.8307C38.6477 24.8557 38.338 24.9097 37.9244 24.9783L37.4505 25.0552C36.7334 25.1695 35.8375 25.3026 35.0186 25.4002C34.0064 25.5187 33.1168 25.579 32.8341 25.4751V24.6042C32.8341 24.6042 34.0064 22.8998 34.0812 22.4114C34.156 21.9229 35.1412 14.8415 37.7144 12.3078C38.7775 10.2756 40.4978 8.66373 42.5948 7.73506C46.0762 6.21983 49.5577 4.93531 49.5577 4.93531L50.1667 4.84802L52.1309 4.55703C52.1906 4.49759 52.2553 4.44335 52.3242 4.3949C52.8688 3.9792 54.5191 3.07505 56.6704 5.01845L57.0507 5.62538C57.0507 5.62538 63.6708 7.17594 66.7345 12.5863C69.7982 17.9966 69.952 23.2947 70.1786 25.7162C70.1786 25.7162 70.0268 26.3979 70.3303 26.6619C70.4402 26.7589 70.5449 26.8616 70.6441 26.9695C70.6712 26.9965 70.6982 27.0236 70.7231 27.0527C70.8104 27.14 70.8915 27.2314 70.958 27.3062C70.9659 27.3121 70.9729 27.3191 70.9788 27.327C70.995 27.3467 71.0124 27.3654 71.0307 27.3831L71.1658 27.5182Z" fill="#FED253"/>
<path opacity="0.05" d="M71.1658 27.5183C71.1658 27.5183 70.3718 28.5409 69.6548 28.5409C68.9377 28.5409 66.1463 28.4266 64.6913 27.9734C63.2363 27.5203 56.1029 27.1774 56.1029 27.1774C56.1029 27.1774 46.0014 27.2148 45.6605 26.8739C45.3197 26.533 39.3793 24.7164 38.7745 24.8308C38.6477 24.8557 38.338 24.9097 37.9243 24.9783L37.8163 24.3132L37.7892 24.149C37.7892 24.149 49.2543 21.6901 56.8969 22.9788C64.5396 24.2675 70.1785 25.7016 70.1785 25.7016C70.1785 25.7016 70.0268 26.3834 70.3303 26.6474C70.4401 26.7444 70.5449 26.8471 70.6441 26.955C70.6712 26.982 70.6982 27.009 70.7231 27.0381C70.8104 27.1254 70.8915 27.2169 70.958 27.2917C70.9659 27.2975 70.9729 27.3045 70.9788 27.3125C70.995 27.3321 71.0124 27.3509 71.0307 27.3686L71.1658 27.5183Z" fill="black"/>
<path opacity="0.1" d="M70.1245 29.1811C68.7091 29.2912 66.1006 28.9462 64.9595 28.7778C64.6352 28.73 64.3172 28.6718 63.9971 28.6012C62.7729 28.3351 59.0087 27.5889 56.7224 27.934C53.96 28.3497 46.1656 27.5931 46.1656 27.5931C46.1656 27.5931 41.3601 26.61 39.4292 25.816C38.7204 25.5229 37.5357 25.4315 36.3572 25.5769C36.0566 25.6144 35.7583 25.6679 35.4634 25.737C33.8547 26.1174 32.4974 26.9841 32.7323 28.4619C32.6424 28.3541 32.5591 28.241 32.4829 28.1231C32.381 26.7721 32.8009 25.9677 33.3828 25.4938L33.52 25.4377C34.231 25.2357 34.9545 25.0808 35.6858 24.9742C35.8001 24.9555 35.9186 24.9388 36.0392 24.9243C38.1073 24.6458 41.0983 24.5834 43.6216 25.8534C43.6216 25.8534 45.9661 26.9529 47.5562 26.9529C49.1462 26.9529 62.0849 27.0672 65.1133 27.936C65.7161 28.1102 66.3309 28.2401 66.9527 28.3247C68.0568 28.4671 69.1788 28.3613 70.2368 28.015C70.2584 28.4071 70.2206 28.8003 70.1245 29.1811Z" fill="black"/>
<path opacity="0.1" d="M71.1658 27.5182C71.1658 27.5182 70.3719 28.5409 69.6548 28.5409C68.9377 28.5409 66.1463 28.4266 64.6913 27.9734C63.2364 27.5203 56.1029 27.1774 56.1029 27.1774C56.1029 27.1774 46.0014 27.2148 45.6605 26.8739C45.3197 26.533 39.3793 24.7164 38.7745 24.8307C38.6477 24.8557 38.338 24.9097 37.9244 24.9783L37.4505 25.0552C36.6274 25.051 35.8081 25.1673 35.0186 25.4003C34.0064 25.5187 33.1168 25.579 32.8341 25.4751V25.3026C33.052 25.1761 33.2793 25.0663 33.5138 24.9742C34.9164 24.5814 36.3607 24.3567 37.8163 24.3049C39.6308 24.2384 41.753 24.4504 43.6174 25.3899C43.6174 25.3899 45.9619 26.4894 47.552 26.4894C49.142 26.4894 62.0807 26.6016 65.1091 27.4725C65.7123 27.6451 66.327 27.7743 66.9486 27.8591C68.3125 28.031 69.6975 27.8321 70.958 27.2834C70.9659 27.2892 70.9729 27.2962 70.9788 27.3042C70.9951 27.3238 71.0124 27.3425 71.0307 27.3603L71.1658 27.5182Z" fill="black"/>
<path d="M32.7613 28.4265C32.7613 28.4265 30.2255 26.4956 33.5179 25.209C33.5179 25.209 39.2691 23.4319 43.6215 25.6247C43.6215 25.6247 45.966 26.7201 47.5561 26.7201C49.1462 26.7201 62.0848 26.8344 65.1132 27.7053C65.7163 27.878 66.3311 28.0072 66.9527 28.0919C68.5638 28.2872 70.1959 27.9771 71.6231 27.2044C71.8309 27.09 72.018 27.0318 72.0741 27.0984C72.2633 27.327 72.1136 28.651 70.4487 28.915C69.1497 29.1228 66.1982 28.73 64.9573 28.5492C64.6352 28.5013 64.3151 28.4411 63.9971 28.3725C62.7728 28.1064 59.0086 27.3602 56.7119 27.7053C53.9516 28.121 46.1552 27.3644 46.1552 27.3644C46.1552 27.3644 41.3518 26.3813 39.4208 25.5852C37.4899 24.7891 32.0422 25.475 32.7613 28.4265Z" fill="#FED253"/>
<path opacity="0.1" d="M54.1386 8.1383C53.9307 7.839 51.2599 5.70022 50.1707 4.83556L52.1349 4.54457C52.1946 4.48513 52.2593 4.43089 52.3282 4.38245C53.7561 5.88105 54.1386 8.1383 54.1386 8.1383Z" fill="black"/>
<path opacity="0.1" d="M45.4756 19.6096L44.6047 20.8961L47.9345 20.7839L48.0093 19.3456L45.4756 19.6096Z" fill="black"/>
<path opacity="0.1" d="M65.7928 21.1622L66.1711 22.3344L68.2911 22.6753L67.3828 21.2744L65.7928 21.1622Z" fill="black"/>
<path opacity="0.1" d="M29.394 60.5165C29.6206 60.8948 37.0741 70.7011 39.0425 70.4289C41.0108 70.1566 29.394 60.5165 29.394 60.5165Z" fill="black"/>
<path opacity="0.1" d="M54.3674 69.4791C54.3674 69.4791 56.184 71.2208 55.9179 71.9005C55.6519 72.5802 54.3674 69.4791 54.3674 69.4791Z" fill="black"/>
<path opacity="0.1" d="M34.5405 81.4367C34.5405 81.4367 32.9505 88.8902 33.784 89.1272C34.6174 89.3641 34.5405 81.4367 34.5405 81.4367Z" fill="black"/>
<path opacity="0.1" d="M54.9722 110.382C55.2362 111.138 57.4311 116.058 57.9237 116.322C58.4163 116.586 54.9722 110.382 54.9722 110.382Z" fill="black"/>
<path opacity="0.1" d="M80.4755 90.1768C80.3986 90.4407 78.5071 91.9934 78.9228 92.5608C79.3385 93.1282 80.4755 90.1768 80.4755 90.1768Z" fill="black"/>
<path opacity="0.1" d="M65.7929 103.986C65.7555 104.178 65.3772 108.143 66.0964 108.906C66.8156 109.669 65.7929 103.986 65.7929 103.986Z" fill="black"/>
<path opacity="0.1" d="M85.1812 124.588C84.6325 124.894 84.0651 125.189 83.4873 125.472C82.8637 125.775 82.2402 126.064 81.6041 126.336C81.3506 126.447 81.097 126.555 80.8455 126.659C80.463 126.817 80.0848 126.968 79.7106 127.114C78.5737 127.559 77.4783 127.945 76.5035 128.272C76.1252 128.398 75.7635 128.515 75.4268 128.623C73.7308 129.161 72.6042 129.454 72.6042 129.454C72.3469 129.399 72.0835 129.377 71.8206 129.39C71.7479 129.39 71.673 129.39 71.5961 129.39C71.2441 129.415 70.8938 129.46 70.5465 129.523C68.2248 129.938 64.9449 131.105 62.9683 131.867C61.929 132.264 61.2535 132.549 61.2535 132.549L59.9316 132.948L59.7113 133.015C58.2792 133.451 56.2651 134.071 55.5397 134.328C54.3674 134.744 44.189 136.862 44.189 136.862C43.2591 137.116 42.3093 137.29 41.3498 137.382C38.9854 137.599 36.6089 137.653 34.2371 137.544C31.8552 137.698 28.0016 137.174 25.7589 136.82L25.4014 136.764C24.5347 136.623 23.9839 136.521 23.9839 136.521L24.2749 136.12L30.2423 127.887L30.2776 127.837L35.8376 120.17L36.0454 119.891L36.5505 119.195C36.5505 119.195 36.854 118.779 38.0221 118.752C38.1593 118.752 38.3089 118.752 38.4731 118.752C39.4543 118.831 40.4223 119.028 41.356 119.34L41.6262 119.421C45.6523 120.575 51.8753 120.286 51.8753 120.286C51.8753 120.286 55.7476 119.662 58.7905 119.288L59.017 119.259C60.0114 119.119 61.0126 119.032 62.0163 118.999C63.8703 119.037 67.8819 118.054 67.8819 118.054C68.7444 117.869 69.1082 117.713 69.5945 117.366C69.659 117.32 69.7276 117.27 69.8024 117.216C70.0102 117.06 70.2493 116.869 70.5569 116.632C71.1181 116.202 71.9058 115.618 73.1446 114.799C73.2527 114.728 73.367 114.657 73.4897 114.591C73.6123 114.524 73.7682 114.435 73.9178 114.36C75.1175 113.792 76.3824 113.373 77.6841 113.113C78.7639 112.881 79.8595 112.73 80.9619 112.662H81.1261C84.2438 112.496 87.4281 113.03 89.2904 114.782C89.6161 115.09 89.8998 115.439 90.1343 115.821C90.2481 116.003 90.3495 116.192 90.4378 116.387C90.6077 116.759 90.7339 117.149 90.814 117.551C90.8292 117.625 90.8417 117.7 90.8514 117.775C90.8514 117.798 90.8514 117.819 90.8514 117.842C90.8514 117.902 90.8639 117.962 90.868 118.022C91.0343 120.51 88.4528 122.759 85.1812 124.588Z" fill="black"/>
<path d="M23.9839 136.074C23.9839 136.074 30.7182 137.321 34.2371 137.095C34.2371 137.095 40.7075 137.436 44.189 136.415C44.189 136.415 54.3737 134.295 55.5397 133.879C56.7058 133.464 61.2535 132.1 61.2535 132.1C61.2535 132.1 70.1079 128.392 72.6042 128.997C72.6042 128.997 92.2045 123.927 90.8036 117.079C89.4027 110.23 77.0314 111.783 73.1363 114.354C69.2412 116.925 69.8107 117.193 67.8777 117.609C67.8777 117.609 63.8662 118.592 62.0122 118.555C60.1581 118.517 51.8712 119.841 51.8712 119.841C51.8712 119.841 45.3634 120.145 41.3539 118.895C37.3445 117.646 36.5484 118.744 36.5484 118.744L23.9839 136.074Z" fill="#FFA2A2"/>
<path opacity="0.1" d="M38.5874 118.299C38.5884 118.307 38.5884 118.316 38.5874 118.324C38.5729 118.478 38.5329 118.629 38.4689 118.771C37.6708 120.729 33.1397 126.01 33.1397 126.01C32.9331 126.638 32.6838 127.25 32.3935 127.843C31.7691 129.112 31.05 130.331 30.2422 131.491C29.0449 133.227 27.7376 134.884 26.3284 136.453H26.318C26.1387 136.586 25.952 136.708 25.7589 136.82C25.2705 137.111 24.5367 137.471 23.8446 137.515C23.7267 137.522 23.6085 137.518 23.4913 137.504C23.564 137.504 23.6347 137.488 23.6991 137.475L23.4455 137.4L23.0984 137.292C22.5164 137.109 21.9393 136.909 21.367 136.692L21.0199 136.559C20.4657 136.345 19.9232 136.116 19.3925 135.871L19.0453 135.713C18.4911 135.455 17.9486 135.183 17.4179 134.896C17.2267 134.796 17.0375 134.688 16.8504 134.586C16.2851 134.27 15.7308 133.939 15.1876 133.593C14.6112 133.225 14.0472 132.842 13.4957 132.443C13.08 131.672 12.7371 130.988 12.55 130.62C12.2091 129.936 12.18 128.957 12.2216 128.249C12.2216 128.176 12.2216 128.107 12.2341 128.041C12.2694 127.596 12.3235 127.291 12.3235 127.291C12.0155 126.879 11.7376 126.445 11.4921 125.994C11.351 125.769 11.2708 125.512 11.2593 125.247C11.2687 125.141 11.2588 125.034 11.2302 124.931C11.0701 124.275 10.3821 123.146 9.74612 122.437C9.27223 121.916 9.24313 119.966 9.28885 118.584C9.31587 117.752 9.36784 117.141 9.36784 117.141C9.2747 117.081 9.205 116.991 9.17038 116.886C9.00325 116.431 8.89023 115.958 8.83366 115.476C8.83366 115.408 8.81496 115.339 8.80456 115.268C8.67154 114.314 8.61126 113.356 8.61126 113.356C7.07317 112.236 6.34154 110.488 6.00066 108.929L5.95701 108.721C5.76981 107.763 5.69033 106.787 5.72006 105.811C5.72006 105.718 5.72006 105.647 5.72006 105.603C5.72006 105.56 5.72006 105.551 5.72006 105.551C5.72006 105.551 5.92376 101.047 6.49327 99.2889C6.51613 99.2141 6.54107 99.1455 6.56601 99.0811C6.60797 98.9707 6.66236 98.8654 6.72814 98.7672C6.93599 98.4908 7.08356 97.9691 7.20619 97.3518C7.29141 96.9236 7.36208 96.4476 7.41404 95.9737C7.46185 95.5788 7.49926 95.186 7.52836 94.8222C7.60942 93.8495 7.63436 93.0909 7.63436 93.0909L7.24984 91.1953C7.14384 90.6777 7.06278 90.156 7.00666 89.6343C7.00666 89.5657 6.99003 89.4971 6.98172 89.4264C6.8845 88.463 6.86712 87.4932 6.92975 86.5269C6.92975 86.4563 6.92975 86.3877 6.94222 86.3191C7.10452 84.1182 7.6799 81.9676 8.63828 79.9797L8.74221 79.7718C8.88077 79.4947 9.02627 79.2224 9.17869 78.955C9.28885 78.7575 9.40525 78.5621 9.5258 78.3688C9.84539 77.8512 10.1923 77.351 10.5651 76.8702C10.6191 76.7995 10.6752 76.731 10.7313 76.6624C11.3799 75.8583 12.1007 75.1153 12.8847 74.4425C14.984 72.6384 16.9107 71.8548 18.6608 71.7945C26.3139 71.5243 30.606 85.0595 31.3002 87.4311C31.3667 87.6597 31.4 87.7844 31.4 87.7844C31.4 87.7844 34.5011 90.8876 33.5928 92.2491C33.4167 92.5487 33.3095 92.8839 33.2789 93.2301C33.0295 95.0613 33.7445 98.0772 33.7445 98.0772C33.7445 98.0772 33.9981 98.9086 34.738 100.9L34.9563 101.482C35.4198 102.729 35.5279 104.822 35.2618 106.697C35.0062 108.493 34.4055 110.081 33.4431 110.488C31.4748 111.319 32.0048 112.151 32.4579 112.835C32.7272 113.325 32.9519 113.838 33.1293 114.368C33.414 115.135 33.678 115.942 33.7778 116.256C33.8069 116.343 33.8214 116.391 33.8214 116.391C34.0971 116.284 34.3835 116.207 34.6757 116.162C35.0477 116.11 35.4156 116.148 35.4863 116.466C35.5237 116.636 35.7378 116.838 36.0392 117.039C36.9329 117.655 38.5874 118.299 38.5874 118.299Z" fill="black"/>
<path d="M38.1342 118.299C38.1215 118.457 38.0814 118.612 38.0157 118.756C37.2217 120.716 32.6864 126.01 32.6864 126.01C32.4789 126.637 32.2297 127.25 31.9402 127.843C31.4387 128.868 30.8714 129.858 30.2421 130.809C28.9392 132.775 27.4957 134.644 25.923 136.401L25.8752 136.453C25.8752 136.453 25.6923 136.592 25.4013 136.771C24.8813 137.102 24.3084 137.343 23.7073 137.481L23.4537 137.407L23.1066 137.299C22.5246 137.116 21.9475 136.915 21.3752 136.698L21.0281 136.565C20.4738 136.351 19.9313 136.122 19.4006 135.877L19.0535 135.719C18.4993 135.461 17.9568 135.189 17.4261 134.902C17.2348 134.802 17.0457 134.694 16.8586 134.592C16.2933 134.276 15.739 133.945 15.1958 133.599C14.6194 133.232 14.0554 132.848 13.5039 132.449C13.249 132.266 12.9968 132.079 12.7473 131.886C12.4667 131.354 12.2423 130.905 12.103 130.627C11.7621 129.943 11.733 128.964 11.7746 128.255C11.7746 128.182 11.7746 128.114 11.7871 128.047C11.8224 127.602 11.8765 127.297 11.8765 127.297C11.8765 127.297 11.7081 127.07 11.5044 126.763C11.3901 126.592 11.2675 126.395 11.1573 126.199C10.9494 125.834 10.7873 125.464 10.8185 125.254C10.8227 125.218 10.8227 125.181 10.8185 125.146C10.8154 125.075 10.8049 125.006 10.7873 124.938C10.6273 124.281 9.93721 123.152 9.30119 122.443C8.82729 121.922 8.79819 119.972 8.84184 118.59C8.84184 118.519 8.84184 118.451 8.84184 118.382C8.87094 117.665 8.91459 117.147 8.91459 117.147C8.67972 117.046 8.49889 116.291 8.38249 115.485L8.35131 115.277C8.21829 114.323 8.15801 113.365 8.15801 113.365C6.61992 112.244 5.88829 110.496 5.54949 108.937C5.31346 107.846 5.22261 106.727 5.27929 105.612C5.27929 105.579 5.27929 105.56 5.27929 105.56C5.27929 105.56 5.45804 101.033 6.02755 99.2723C6.05041 99.1975 6.07535 99.1289 6.10029 99.0645C6.15017 98.9566 6.21224 98.8548 6.28528 98.761C6.60121 98.3204 6.81114 97.2603 6.94832 96.1754L6.97326 95.9675C7.14578 94.5126 7.19359 93.0846 7.19359 93.0846L6.80699 91.189C6.70167 90.6694 6.62061 90.1491 6.5638 89.6281C6.55341 89.5595 6.54717 89.4888 6.53886 89.4202C6.44167 88.4568 6.42429 87.487 6.4869 86.5207C6.4869 86.45 6.4869 86.3815 6.50145 86.3129C6.66275 84.1118 7.23818 81.961 8.1975 79.9734C8.23076 79.9028 8.26401 79.8342 8.30143 79.7656C8.56867 79.2258 8.86566 78.7012 9.19103 78.1942C9.30327 78.0176 9.41758 77.843 9.53814 77.6705C9.72728 77.3961 9.92474 77.1259 10.1305 76.864L10.2968 76.6561C10.9398 75.8551 11.6543 75.1142 12.4314 74.4425C14.7178 72.4825 16.7963 71.7259 18.6669 71.7945C26.0352 72.0585 30.1714 85.1073 30.8511 87.4311C30.9176 87.6597 30.9509 87.7844 30.9509 87.7844C30.9509 87.7844 34.0541 90.8877 33.1458 92.2491C32.9697 92.5488 32.8624 92.8839 32.8319 93.2301C32.5804 95.0613 33.2975 98.0772 33.2975 98.0772C33.2975 98.0772 33.5511 98.9086 34.291 100.9C34.3575 101.085 34.4303 101.278 34.4989 101.482C34.9624 102.729 35.0705 104.822 34.8044 106.697C34.5488 108.495 33.9502 110.081 32.9857 110.488C31.0195 111.319 31.5474 112.151 32.0026 112.835C32.2718 113.325 32.4965 113.838 32.674 114.368C33.0335 115.347 33.364 116.391 33.364 116.391C33.5 116.338 33.6388 116.293 33.7797 116.256C34.0689 116.161 34.3751 116.129 34.6776 116.162C34.7614 116.169 34.8409 116.202 34.9047 116.256C34.9686 116.311 35.0135 116.384 35.033 116.466C35.0892 116.715 35.5194 117.025 36.0411 117.318C36.7185 117.687 37.4175 118.014 38.1342 118.299Z" fill="#CED7E7"/>
<path opacity="0.1" d="M10.777 98.312C11.4962 98.2746 19.2158 95.2857 20.8058 96.3062C22.3959 97.3268 32.2376 103.949 32.2376 103.949C32.2376 103.949 26.0707 95.8905 20.6977 93.9991C15.3248 92.1077 10.777 98.312 10.777 98.312Z" fill="black"/>
<path opacity="0.1" d="M21.8741 110.496C21.8741 110.496 29.5936 112.047 30.7659 113.107L21.8741 110.496Z" fill="black"/>
<path opacity="0.1" d="M20.3879 122.04C20.2756 122.155 17.478 128.434 17.7025 128.434C17.9269 128.434 20.3131 124.692 20.3131 124.692L20.3879 122.04Z" fill="black"/>
<path opacity="0.1" d="M25.6487 114.506C25.6487 114.506 23.379 115.302 23.6429 115.377C23.9069 115.451 25.5718 114.846 25.6487 114.506Z" fill="black"/>
<path opacity="0.1" d="M23.379 124.004C23.7573 124.798 24.967 127.182 25.2331 126.804C25.4991 126.426 23.379 124.004 23.379 124.004Z" fill="black"/>
<path opacity="0.1" d="M51.713 61.0715L51.3888 61.5329C51.3888 61.5329 48.8135 59.7184 47.7556 58.8101C46.6976 57.9018 44.1993 62.0629 42.2309 63.1978C40.2626 64.3326 36.9349 64.6361 36.9349 64.6361C36.9349 64.6361 34.3617 62.0629 34.4407 61.3105C34.5197 60.5581 33.231 60.3274 33.1541 59.7974C33.0772 59.2673 32.6241 57.7542 32.0192 56.9976C31.6991 56.5985 31.6534 55.3494 31.6825 54.2623C31.8904 54.2207 32.0192 54.1979 32.0192 54.1979C32.3423 53.6108 32.7507 53.075 33.231 52.6078C33.9127 52.003 34.9707 48.2949 34.9707 48.2949C35.5755 46.2518 36.7852 46.8566 36.7852 46.8566C36.7852 49.9598 39.9653 51.0947 41.5533 52.3813C43.1413 53.6678 45.6397 56.9976 47.608 57.6794C49.223 58.2302 51.1124 60.3606 51.713 61.0715Z" fill="black"/>
<path d="M51.7131 60.6163L51.3889 61.0798C51.3889 61.0798 48.8032 59.2694 47.7453 58.3549C46.6873 57.4404 44.1889 61.6077 42.2206 62.7426C40.2523 63.8775 36.9246 64.183 36.9246 64.183C36.9246 64.183 34.3514 61.6078 34.4304 60.8574C34.5094 60.1071 33.2207 59.8743 33.1438 59.3422C33.0669 58.8101 32.6138 57.299 32.0089 56.5424C31.6888 56.1434 31.6431 54.8942 31.6722 53.8071L32.0089 53.7448C32.332 53.1577 32.7403 52.6219 33.2207 52.1547C33.9024 51.5478 34.9604 47.8418 34.9604 47.8418C35.5652 45.7987 36.7749 46.4014 36.7749 46.4014C36.7749 49.5046 39.955 50.6416 41.543 51.9282C43.131 53.2148 45.6293 56.5424 47.5977 57.2242C49.2231 57.7833 51.1124 59.9055 51.7131 60.6163Z" fill="#CED7E7"/>
<path opacity="0.1" d="M51.9063 61.2315C51.9063 61.2315 49.6761 62.4412 47.9343 62.5556C47.7063 62.5662 47.4778 62.553 47.2526 62.5161C47.2526 62.5161 49.1752 61.0798 50.9606 60.7867L51.9063 61.2315Z" fill="black"/>
<path opacity="0.1" d="M56.4479 67.3985C56.4479 67.3985 53.6357 66.3031 52.7066 67.9513C52.7378 67.1948 52.7503 66.5671 52.7503 66.5671L55.816 65.9601C55.816 65.9601 56.1112 66.5068 56.4562 67.2426C56.4479 67.3403 56.4479 67.3985 56.4479 67.3985Z" fill="black"/>
<path d="M47.2526 62.516C47.2526 62.516 50.6218 60.4936 52.241 60.6641C53.9391 60.8407 57.2294 60.9655 57.2294 60.9655C57.2294 60.9655 56.0945 63.5386 56.2462 64.0687C56.398 64.5987 56.4354 67.1719 56.4354 67.1719C56.4354 67.1719 53.0308 65.8479 52.4634 68.3067C52.4634 68.3067 50.6093 65.5444 49.3602 64.7109C48.5313 64.1121 47.8173 63.3685 47.2526 62.516Z" fill="#63667E"/>
<path opacity="0.1" d="M66.2855 64.8648C65.3024 64.8648 61.8209 62.6678 61.0643 61.2315C60.3077 59.7953 59.2477 61.3812 58.2645 61.9133C57.641 62.2542 55.1697 61.5412 53.8373 61.0237C54.5129 60.5643 56.0094 59.2715 56.4479 58.9618C56.9759 58.5815 57.508 52.452 57.508 52.452C59.3994 51.4688 61.4426 60.3981 61.4426 60.3981C61.4426 60.3981 65.001 61.4581 65.3024 62.2147C65.3606 62.3643 65.6287 62.6304 66.0319 62.9525C66.4476 64.0001 66.6763 64.8648 66.2855 64.8648Z" fill="black"/>
<path d="M66.2854 64.4096C65.3023 64.4096 61.8208 62.2147 61.0642 60.7784C60.3077 59.3422 59.2476 60.9281 58.2645 61.4581C57.6409 61.799 55.6601 61.1401 54.3278 60.6267C55.0033 60.1694 56.0093 58.8225 56.4479 58.5108C56.9758 58.1325 57.5079 52.003 57.5079 52.003C59.3994 51.0198 61.4425 59.9491 61.4425 59.9491C61.4425 59.9491 65.0009 61.0091 65.3023 61.7657C65.3605 61.9154 65.6286 62.1814 66.0319 62.5036C66.4476 63.5449 66.6762 64.4096 66.2854 64.4096Z" fill="#CED7E7"/>
<path d="M79.7314 130.708L112.636 103.271C112.965 102.994 113.383 102.846 113.813 102.856L126.088 103.178C126.088 103.178 126.938 103.801 125.691 105.165L94.6509 130.637C94.3155 130.911 93.8992 131.067 93.4661 131.082L80.0432 131.527C79.9468 131.53 79.8518 131.502 79.7716 131.449C79.6913 131.395 79.6298 131.318 79.5955 131.228C79.5611 131.138 79.5558 131.039 79.5802 130.946C79.6045 130.853 79.6574 130.769 79.7314 130.708Z" fill="#07923B"/>
<path d="M95.6486 127.332C95.6486 127.332 102.836 137.625 110.822 128.051C118.807 118.478 116.498 113.448 114.077 113.182C111.655 112.916 98.0305 123.397 95.6486 127.332Z" fill="#FFA2A2"/>
<path opacity="0.1" d="M144.125 12.2122C144.125 12.2122 153.389 -5.7669 164.339 3.5053C164.339 3.5053 166.729 4.3762 166.548 6.90366C166.548 6.90366 165.627 6.39858 164.896 8.32951C164.627 9.01466 164.278 9.6656 163.857 10.2688C163.296 11.0836 162.487 11.6947 161.549 12.0105C161.549 12.0105 156.636 15.6916 147.534 12.8523C147.534 12.8523 144.961 13.2223 144.545 12.9022L147.536 10.7156C147.536 10.7156 149.056 12.9708 151.277 13.2285C151.277 13.2285 147.536 10.8798 147.964 10.3706C148.052 10.2667 149.602 9.28354 149.602 9.28354C149.602 9.28354 152.261 13.1932 155.707 13.4821C155.707 13.4821 150.878 11.281 150.186 8.90941L152.612 7.55631C152.612 7.55631 155.218 11.8276 159.132 12.3057C159.132 12.3057 154.164 9.83019 153.163 7.29649L155.73 6.29465C155.73 6.29465 158.355 10.4101 161.612 10.7863C161.612 10.7863 156.162 7.34638 156.332 6.10343C156.332 6.10343 158.745 5.32607 159.485 5.42792C159.485 5.42792 161.437 8.33782 163.349 8.38979C163.349 8.38979 159.951 5.70436 160.176 5.29074C160.176 5.29074 163.588 5.11407 165.372 5.93923C165.372 5.93923 162.836 4.52793 160.176 4.75656C160.176 4.75656 161.379 3.3411 162.948 3.02933C162.948 3.02933 161.067 2.25613 159.348 4.80853C159.348 4.80853 156.694 5.05171 156.366 5.34686C156.366 5.34686 157.708 2.58661 159.361 1.41225C159.361 1.41225 156.898 1.84666 155.678 5.58797L153.075 6.53784C153.075 6.53784 154.657 2.79654 156.052 1.64089C156.052 1.64089 153.607 2.47229 152.439 6.83714L150.045 8.13829C150.045 8.13829 151.161 4.81268 152.435 3.18937C152.435 3.18937 150.334 4.44895 149.371 8.53528L147.875 9.58908C147.875 9.58908 148.733 7.17386 149.043 6.5025C149.353 5.83115 149.197 5.69189 149.197 5.69189C148.157 6.92178 147.478 8.41626 147.237 10.0089C147.237 10.0089 144.298 12.3784 144.125 12.2122Z" fill="#07923B"/>
<path opacity="0.1" d="M182.438 21.8273C182.438 21.8273 186.625 13.7025 191.571 17.8927C191.571 17.8927 192.652 18.2856 192.569 19.4267C192.569 19.4267 192.153 19.2001 191.823 20.0731C191.703 20.3823 191.547 20.6761 191.357 20.9481C191.104 21.3154 190.74 21.5916 190.318 21.7359C190.318 21.7359 188.096 23.3987 183.983 22.1163C183.983 22.1163 182.821 22.2825 182.634 22.1391L183.985 21.1498C183.985 21.1498 184.671 22.1703 185.677 22.2846C185.677 22.2846 183.989 21.2246 184.18 20.9939C184.218 20.9481 184.918 20.5033 184.918 20.5033C184.918 20.5033 186.12 22.2701 187.678 22.401C187.678 22.401 185.496 21.4054 185.184 20.3225L186.282 19.7135C186.282 19.7135 187.458 21.6444 189.227 21.8606C189.227 21.8606 186.982 20.7424 186.525 19.5971L187.685 19.144C187.685 19.144 188.869 21.0043 190.341 21.1747C190.341 21.1747 187.878 19.62 187.957 19.0588C187.957 19.0588 189.046 18.7075 189.381 18.7532C189.381 18.7532 190.262 20.0689 191.127 20.0897C191.127 20.0897 189.591 18.8779 189.692 18.6909C189.692 18.6909 191.235 18.6119 192.037 18.9839C192.037 18.9839 190.892 18.3458 189.692 18.4498C190.023 18.0735 190.457 17.8019 190.94 17.6683C190.94 17.6683 190.089 17.3191 189.312 18.4726C189.312 18.4726 188.113 18.5828 187.965 18.7158C187.965 18.7158 188.572 17.4687 189.318 16.9387C189.318 16.9387 188.204 17.1341 187.656 18.826L186.492 19.2625C186.492 19.2625 187.204 17.5726 187.836 17.0489C187.836 17.0489 186.731 17.4251 186.203 19.3955L185.122 19.9816C185.122 19.9816 185.625 18.4768 186.201 17.7452C186.201 17.7452 185.251 18.3147 184.818 20.1604L184.141 20.6364C184.141 20.6364 184.529 19.5451 184.669 19.2417C184.808 18.9382 184.737 18.8759 184.737 18.8759C184.267 19.4335 183.961 20.1105 183.852 20.8317C183.852 20.8317 182.511 21.9022 182.438 21.8273Z" fill="#07923B"/>
<path opacity="0.1" d="M137.079 31.2803C137.079 31.2803 141.265 23.1554 146.225 27.3457C146.225 27.3457 147.303 27.7385 147.222 28.8817C147.222 28.8817 146.807 28.6531 146.476 29.526C146.356 29.8349 146.2 30.1286 146.011 30.4011C145.755 30.7701 145.387 31.0465 144.961 31.1888C144.961 31.1888 142.741 32.8516 138.628 31.5692C138.628 31.5692 137.466 31.7376 137.279 31.5921L138.63 30.6027C138.63 30.6027 139.316 31.6232 140.32 31.7396C140.32 31.7396 138.632 30.6775 138.823 30.4468C138.863 30.4011 139.563 29.9563 139.563 29.9563C139.563 29.9563 140.765 31.723 142.321 31.8539C142.321 31.8539 140.141 30.8583 139.827 29.7754L140.925 29.1685C140.925 29.1685 142.103 31.0974 143.872 31.3135C143.872 31.3135 141.627 30.1953 141.17 29.05L142.33 28.5969C142.33 28.5969 143.516 30.4572 144.988 30.6276C144.988 30.6276 142.525 29.0729 142.602 28.5117C142.602 28.5117 143.693 28.1604 144.028 28.2062C144.028 28.2062 144.909 29.5219 145.774 29.5447C145.774 29.5447 144.238 28.3309 144.34 28.1438C144.34 28.1438 145.88 28.0648 146.684 28.4369C146.684 28.4369 145.537 27.7988 144.337 27.9027C144.668 27.5264 145.102 27.2548 145.585 27.1212C145.585 27.1212 144.737 26.772 143.959 27.9256C143.959 27.9256 142.76 28.0357 142.612 28.1688C142.612 28.1688 143.217 26.9217 143.965 26.3916C143.965 26.3916 142.851 26.587 142.303 28.2789L141.124 28.7154C141.124 28.7154 141.839 27.0256 142.469 26.5039C142.469 26.5039 141.365 26.878 140.837 28.8484L139.754 29.4346C139.754 29.4346 140.259 27.9297 140.835 27.1981C140.835 27.1981 139.885 27.7676 139.451 29.6133L138.773 30.0893C138.773 30.0893 139.162 28.9981 139.301 28.6946C139.441 28.3912 139.372 28.3288 139.372 28.3288C138.901 28.8859 138.594 29.5632 138.486 30.2847C138.486 30.2847 137.152 31.3551 137.079 31.2803Z" fill="#07923B"/>
<path opacity="0.1" d="M204.036 187.791C224.695 187.791 241.443 185.635 241.443 182.976C241.443 180.317 224.695 178.161 204.036 178.161C183.376 178.161 166.628 180.317 166.628 182.976C166.628 185.635 183.376 187.791 204.036 187.791Z" fill="#07923B"/>
<path opacity="0.1" d="M208.894 55.1507H200.144V63.9002H208.894V55.1507Z" fill="#07923B"/>
<path opacity="0.1" d="M208.894 76.7323H200.144V85.4818H208.894V76.7323Z" fill="#07923B"/>
<path opacity="0.1" d="M208.894 98.3109H200.144V107.06H208.894V98.3109Z" fill="#07923B"/>
<path opacity="0.1" d="M208.894 119.892H200.144V128.642H208.894V119.892Z" fill="#07923B"/>
<path d="M235.607 92.1054C235.607 92.1054 230.527 66.8351 232.472 63.6909C232.472 63.6909 232.543 60.7683 232.426 57.0426C232.426 56.9011 232.426 56.7596 232.426 56.615C232.768 56.8431 233.124 57.0486 233.493 57.2303C235.285 58.1507 237.341 58.4162 239.308 57.981L237.77 56.2674C237.4 55.8582 237.016 55.4152 236.936 54.8737C236.856 54.3322 237.077 53.8492 237.268 53.3662C238.729 49.6744 238.806 45.032 235.991 42.2139C233.613 39.845 233.035 36.787 230.454 34.6242C228.568 33.0398 227.531 30.7171 226.553 28.4713C225.725 26.5731 224.891 24.6595 224.418 22.6474C224.048 21.0754 223.901 19.4479 223.393 17.9127C222.886 16.3776 221.935 14.8855 220.449 14.1994C219.92 13.9564 219.332 13.8179 218.849 13.4949C218.215 13.0673 217.834 12.372 217.376 11.7628C215.047 8.68633 207.248 10.4984 203.556 11.7474C202.552 12.062 201.623 12.5769 200.824 13.2611L200.858 13.2057C200.886 13.1596 200.919 13.1134 200.95 13.0673C200.546 13.394 200.197 13.7835 199.916 14.2209C199.378 15.0731 199.153 16.0668 198.704 16.9898C198.163 18.0819 195.151 21.1307 196.446 22.3583C196.537 22.4407 196.641 22.5073 196.754 22.5552C197.24 22.7575 197.775 22.8111 198.292 22.709L198.237 22.8413C197.794 23.9243 197.568 25.0832 197.569 26.2531C197.569 31.3078 201.738 35.4057 206.885 35.4057C207.852 35.4066 208.814 35.2582 209.737 34.9657C209.758 35.0826 209.777 35.1995 209.798 35.3165C209.798 35.3626 209.813 35.4087 209.82 35.4549L209.657 35.6826C209.648 35.6685 209.639 35.6551 209.629 35.6426L204.799 42.3924C204.06 42.9123 199.809 45.9888 199.569 48.2962C199.316 50.822 199.064 53.7785 199.064 53.7785L199.03 54.4122C198.819 54.5886 198.572 54.7171 198.307 54.7888C198.041 54.8605 197.763 54.8737 197.492 54.8276C195.985 54.5814 195.985 60.3652 195.985 60.3652C195.985 60.3652 194.982 61.2882 194.293 60.4883C193.603 59.6884 191.782 62.3988 191.782 62.3988L180.368 62.8911L180.107 62.9064L179.492 61.0021C179.425 60.8012 179.283 60.6346 179.094 60.5384C178.906 60.4422 178.687 60.4242 178.486 60.4883C178.438 60.504 178.392 60.5235 178.347 60.5468L178.304 60.5714L178.224 60.6268L178.184 60.6637C178.162 60.6837 178.141 60.7053 178.123 60.7283L178.086 60.7713L178.067 60.7898C177.996 60.888 177.949 61.0015 177.93 61.1212C177.911 61.2409 177.92 61.3634 177.956 61.4789L178.486 63.1126C176.283 63.5556 174.031 64.8046 175.867 68.2441L166.558 66.5244L169.57 69.0533L185.118 72.262C184.912 72.6312 185.048 73.1665 185.691 73.9203C188.46 77.1721 193.505 78.0551 195.535 78.2827C196.072 79.4823 196.741 80.6175 197.532 81.6669L197.357 84.9064C197.357 84.9064 192.216 109.598 191.275 110.851C191.75 110.312 192.185 109.739 192.576 109.137C191.084 114.21 188.998 121.154 188.45 122.194C187.57 123.855 186.755 130.577 187.758 131.008C188.066 131.14 188.946 131.075 190.201 130.98V131.537L190.145 152.638C190.145 152.638 190.398 165.581 189.706 166.815C189.013 168.049 188.829 170.636 188.829 170.636C188.829 170.636 186.06 175.74 183.866 177.792C183.851 177.808 183.835 177.822 183.817 177.835L183.749 177.355C183.749 177.355 181.113 180.684 175.28 180.496C175.28 180.496 171.77 182.779 176.975 182.902C182.18 183.025 188.829 182.717 188.829 182.717C188.829 182.717 193.471 175.641 197.36 176.564V181.927H198.55V176.478C199.103 176.115 199.575 175.643 199.94 175.091C200.304 174.54 200.552 173.92 200.67 173.269C200.772 172.599 200.697 171.913 200.454 171.281C200.21 170.648 199.805 170.089 199.28 169.661C199.043 169.447 198.854 169.187 198.723 168.897C198.593 168.607 198.523 168.293 198.52 167.975L198.477 168.012C198.477 167.904 198.449 167.793 198.437 167.679C198.095 164.911 197.667 159.198 199.178 154.97C201.249 149.174 201.876 141.102 200.369 136.296C199.882 134.76 199.483 133.198 199.172 131.617C199.135 131.417 199.101 131.226 199.07 131.048C200.101 131.187 201.121 131.393 202.125 131.663C205.617 132.626 213.256 132.804 219.778 132.752C219.794 132.93 219.812 133.118 219.834 133.306C219.95 134.61 220.193 135.9 220.56 137.158C221.378 139.619 221.753 150.47 221.753 150.47C221.753 150.47 222.809 159.391 222.233 163.022C221.926 165.04 221.618 167.067 221.443 169.104V169.144C221.443 169.144 219.714 174.066 218.449 176.74C218.418 176.807 218.385 176.875 218.354 176.94C218.017 176.97 217.685 177.044 217.366 177.158C217.366 177.158 215.671 180.542 213.982 181.102C212.293 181.662 212.853 183.505 216.677 182.828C220.501 182.151 226.276 181.598 226.276 181.598L226.525 178.146L227.7 176.675L227.393 180.118L228.645 179.872L228.479 175.685L230.401 173.279C230.401 173.279 232.724 171.211 229.272 167.144V167.233C229.235 167.175 229.202 167.113 229.162 167.055V167.036C228.589 166.15 228.134 164.498 228.968 161.566C230.475 156.269 231.352 151.46 231.352 151.46C231.352 151.46 234.718 138.579 230.672 132.484H230.851C230.436 131.627 230.143 130.716 229.98 129.777C229.959 129.666 229.941 129.552 229.924 129.436C232.918 129.263 235.856 128.722 238.253 127.553C238.243 127.54 236.8 96.9724 235.607 92.1054ZM197.603 70.7853V70.8469L196.988 70.8776L197.603 70.7853ZM195.492 71.0776C195.391 71.1 195.297 71.1453 195.216 71.2099C194.951 71.5842 194.785 72.019 194.733 72.4743L193.773 72.259C193.773 72.259 193.099 72.1144 192.13 71.9513L191.671 71.4898C192.933 71.3852 194.243 71.2314 195.492 71.0776Z" fill="url(#paint0_linear)"/>
<path d="M227.251 175.728L226.885 180.087L228.112 179.841L227.928 175.112L227.251 175.728Z" fill="#1D2366"/>
<path d="M199.246 155.029C197.766 159.244 198.184 164.932 198.516 167.695C198.64 168.716 198.753 169.338 198.753 169.338C198.753 169.338 196.541 174.377 196.357 174.568C196.172 174.759 189.847 178.62 189.847 178.62L185.426 181.201C185.426 181.201 180.941 179.235 183.091 178.558C183.53 178.382 183.926 178.112 184.251 177.767C186.404 175.721 189.109 170.636 189.109 170.636C189.109 170.636 189.293 168.055 189.97 166.827C190.647 165.6 190.401 152.7 190.401 152.7L190.453 131.672V128.931L198.867 128.993C198.92 129.923 199.042 130.849 199.23 131.761C199.532 133.337 199.924 134.894 200.402 136.425C201.885 141.222 201.27 149.254 199.246 155.029Z" fill="#FFB0B1"/>
<path opacity="0.1" d="M198.753 169.338C198.753 169.338 196.541 174.377 196.357 174.568C196.172 174.758 189.847 178.619 189.847 178.619L185.426 181.201C185.426 181.201 180.941 179.235 183.091 178.558C183.53 178.382 183.926 178.112 184.251 177.767L184.442 179.112L185.915 179.05L198.529 167.701C198.64 168.716 198.753 169.338 198.753 169.338Z" fill="black"/>
<path d="M198.6 167.987L185.915 179.413L184.442 179.475L184.134 177.321C184.134 177.321 181.556 180.638 175.827 180.453C175.827 180.453 172.388 182.727 177.486 182.85C182.583 182.973 189.093 182.665 189.093 182.665C189.093 182.665 193.64 175.589 197.446 176.512V181.856H198.615V176.463C199.158 176.097 199.622 175.625 199.979 175.075C200.335 174.525 200.577 173.909 200.688 173.263C200.79 172.598 200.718 171.919 200.48 171.289C200.243 170.66 199.847 170.102 199.332 169.67C199.102 169.454 198.918 169.194 198.792 168.904C198.666 168.615 198.601 168.303 198.6 167.987Z" fill="#1D2366"/>
<path d="M228.42 161.6C227.602 164.523 228.048 166.169 228.608 167.052V167.07C229.326 168.161 229.825 169.38 230.078 170.661L230.127 170.938L224.356 179.352L221.224 180.582C221.224 180.582 216.188 178.863 217.108 178.37C217.338 178.25 217.698 177.611 218.111 176.728C219.341 174.066 221.039 169.156 221.039 169.156V169.116C221.218 167.089 221.501 165.068 221.815 163.056C222.378 159.435 221.344 150.547 221.344 150.547C221.344 150.547 220.975 139.739 220.175 137.281C219.814 136.031 219.574 134.749 219.458 133.454C219.292 131.915 219.255 130.648 219.255 130.648C219.255 130.648 222.571 126.033 228.651 131.017C229.137 131.415 229.564 131.879 229.921 132.395C234.121 138.37 230.74 151.531 230.74 151.531C230.74 151.531 229.893 156.318 228.42 161.6Z" fill="#FFB0B1"/>
<path opacity="0.1" d="M230.137 170.938L224.365 179.352L221.233 180.582C221.233 180.582 216.197 178.863 217.117 178.37C217.348 178.25 217.708 177.61 218.12 176.727C220.252 176.709 221.356 178.74 221.356 178.74L224.058 178.309C224.058 178.309 227.62 171.307 228.42 170.879C229.22 170.451 228.543 167.683 228.543 167.683V166.978C228.565 167.003 228.583 167.03 228.608 167.055V167.073C229.326 168.164 229.825 169.383 230.078 170.664L230.137 170.938Z" fill="black"/>
<path d="M221.541 178.921C221.541 178.921 220.003 176.097 217.056 177.14C217.056 177.14 215.397 180.524 213.739 181.071C212.081 181.619 212.635 183.465 216.382 182.791C220.129 182.117 225.777 181.561 225.777 181.561L226.024 178.118L229.832 173.266C229.832 173.266 232.103 171.208 228.725 167.156V167.861C228.725 167.861 229.402 170.63 228.602 171.057C227.802 171.485 224.251 178.49 224.251 178.49L221.541 178.921Z" fill="#1D2366"/>
<path opacity="0.1" d="M198.877 128.986C198.93 129.917 199.051 130.842 199.24 131.755C195.775 131.248 192.56 131.5 190.453 131.666V128.925L198.877 128.986Z" fill="black"/>
<path opacity="0.1" d="M230.263 133.161C230.263 133.161 225.34 133.401 219.47 133.45C219.304 131.912 219.267 130.645 219.267 130.645C219.267 130.645 222.584 126.03 228.663 131.014C229.149 131.411 229.577 131.875 229.934 132.392C230.029 132.654 230.139 132.911 230.263 133.161Z" fill="black"/>
<path d="M230.263 132.608C230.263 132.608 208.703 133.651 202.131 131.808C195.56 129.965 189.047 131.562 188.066 131.134C187.084 130.706 187.881 124.009 188.742 122.351C189.604 120.692 194.329 103.922 194.329 103.922L198.876 80.215L203.666 78.8952L204.005 78.7998L212.351 76.4986L218.467 74.8096C218.467 74.8096 230.629 122.289 229.586 125.79C229.207 127.131 229.146 128.541 229.407 129.91C229.567 130.844 229.855 131.752 230.263 132.608Z" fill="#1D2366"/>
<path d="M183.026 64.0018C183.026 64.0018 178.719 68.6165 181.98 71.1885C185.241 73.7604 187.386 71.4346 187.386 71.4346L183.026 64.0018Z" fill="#C7DAF5"/>
<path opacity="0.1" d="M183.026 64.0018C183.026 64.0018 178.719 68.6165 181.98 71.1885C185.241 73.7604 187.386 71.4346 187.386 71.4346L183.026 64.0018Z" fill="black"/>
<path d="M217.825 33.6614C217.825 33.6614 217.32 34.1413 216.56 34.8489C215.477 35.8611 213.874 37.3409 212.453 38.5807C210.484 40.2943 208.86 41.5526 209.441 40.4789C210.023 39.4052 209.912 37.5347 209.623 35.7842C209.601 35.6673 209.583 35.5504 209.561 35.4365C209.322 34.1509 209.004 32.8811 208.61 31.634C208.61 31.634 211.792 27.5238 213.551 25.9025C214.207 25.2872 214.665 25.0349 214.693 25.4625C214.723 26.0379 215.154 27.3084 215.689 28.6559C215.705 28.699 215.72 28.739 215.739 28.7821C216.096 29.705 216.499 30.6526 216.852 31.4709C217.394 32.7261 217.825 33.6614 217.825 33.6614Z" fill="#FFB0B1"/>
<path opacity="0.1" d="M215.739 28.7821C215.44 30.39 214.714 31.8881 213.639 33.1198C212.563 34.3515 211.176 35.2717 209.623 35.7842C209.378 34.3798 209.04 32.9933 208.61 31.634C208.61 31.634 214.6 23.8966 214.693 25.4625C214.714 26.0563 215.182 27.373 215.739 28.7821Z" fill="black"/>
<path opacity="0.1" d="M209.026 37.8516L209.801 36.7595C209.801 36.7595 210.315 39.8913 212.204 38.51C214.093 37.1286 214.185 48.9054 214.185 48.9054L212.158 79.2181L197.507 78.3413L197.923 63.6941L199.581 56.3106L203.682 45.5767L206.122 42.0295L209.026 37.8516Z" fill="black"/>
<path d="M214.185 49.093L212.339 76.5015L212.145 79.4057L203.977 78.9165L203.67 78.8981L197.517 78.5289L197.932 63.8786L199.59 56.4951L203.691 45.7612L206.131 42.214L209.035 38.0207L209.81 36.9316C209.81 36.9316 210.324 40.0635 212.213 38.6822L212.253 38.6545C214.099 37.4854 214.185 49.093 214.185 49.093Z" fill="#1D2366"/>
<path d="M199.796 53.9293C199.796 53.9293 199.061 55.4676 197.584 55.2184C196.107 54.9692 196.111 60.7561 196.111 60.7561C196.111 60.7561 195.129 61.679 194.452 60.8791C193.775 60.0792 191.991 62.7835 191.991 62.7835L180.811 63.2757C180.811 63.2757 185.786 65.5492 184.811 72.4283C184.811 72.4283 201.7 71.3823 202.254 69.7856C202.808 68.1889 199.796 53.9293 199.796 53.9293Z" fill="white"/>
<path opacity="0.03" d="M199.796 53.9293C199.796 53.9293 199.061 55.4676 197.584 55.2184C196.107 54.9692 196.111 60.7561 196.111 60.7561C196.111 60.7561 195.129 61.679 194.452 60.8791C193.775 60.0792 191.991 62.7835 191.991 62.7835L180.811 63.2757C180.811 63.2757 185.786 65.5492 184.811 72.4283C184.811 72.4283 201.7 71.3823 202.254 69.7856C202.808 68.1889 199.796 53.9293 199.796 53.9293Z" fill="black"/>
<path d="M167.305 66.8906L170.253 69.4071L194.514 74.5049L191.505 71.4345L167.305 66.8906Z" fill="white"/>
<path d="M209.072 38.8206C208.669 39.4359 207.515 42.5862 206.552 45.3366C205.749 47.6286 205.079 49.6437 205.079 49.6437C205.079 49.6437 203.513 59.8392 202.713 61.682C201.913 63.5248 202.347 70.7115 202.347 70.7115L199.366 88.4598C199.366 88.4598 198.015 97.6124 195.929 103.079C193.871 108.46 191.579 110.983 191.508 111.063C192.431 109.814 197.461 85.2203 197.461 85.2203L199.123 54.2031C199.123 54.2031 199.366 51.2558 199.612 48.7362C199.858 46.2165 204.842 42.777 204.842 42.777L209.647 35.9441C210.13 36.5902 209.807 37.7162 209.072 38.8206Z" fill="white"/>
<path d="M196.541 78.6828C196.541 78.6828 189.465 78.3751 186.038 74.2588C182.611 70.1424 193.96 72.6159 193.96 72.6159L196.911 73.2928L196.541 78.6828Z" fill="#FFB0B1"/>
<path opacity="0.1" d="M229.586 125.793C229.207 127.134 229.146 128.544 229.407 129.913C221.688 130.46 213.431 128.374 213.431 128.374C211.893 129.79 207.841 131.875 207.841 131.875L205.632 104.495C204.22 100.803 203.666 81.4609 203.666 81.4609C203.666 81.4609 203.793 80.4488 203.974 78.932C203.974 78.8951 203.974 78.8551 203.989 78.8182C204.54 74.5819 205.632 66.6292 206.168 65.5555C206.906 64.0787 203.897 60.1501 203.897 60.1501L205.266 48.4748L205.432 47.0657C208.318 45.7767 210.53 41.6603 210.53 41.6603L212.228 38.6854C214.074 37.5009 214.17 49.1085 214.17 49.1085L212.324 76.517L218.44 74.828C218.44 74.828 230.629 122.292 229.586 125.793Z" fill="black"/>
<path d="M237.508 127.685C229.094 131.863 213.8 127.993 213.8 127.993C212.262 129.408 208.21 131.494 208.21 131.494L205.998 104.113C204.589 100.421 204.036 81.0794 204.036 81.0794C204.036 81.0794 205.814 66.6475 206.552 65.1739C206.768 64.7432 206.663 64.1033 206.408 63.4141C205.152 60.1341 204.69 56.6036 205.06 53.111L205.651 48.0932L205.814 46.6873C208.703 45.3951 210.915 41.2788 210.915 41.2788L212.453 38.5838L215.283 33.6183L216.625 31.2679L216.852 31.474L218.591 33.0492C218.591 33.0492 219.329 33.6645 220.436 34.5874C222.845 36.6179 227.008 40.1928 229.155 42.3802C231.044 44.3061 231.641 51.7973 231.813 57.4365C231.927 61.1499 231.859 64.0602 231.859 64.0602C229.955 67.1952 234.936 92.3639 234.936 92.3639C236.096 97.2279 237.508 127.685 237.508 127.685Z" fill="white"/>
<path opacity="0.03" d="M221.356 41.2172C221.356 41.2172 215.582 52.2095 216.252 56.3874C216.923 60.5653 218.83 65.2938 217.911 66.3983C217.595 66.8167 217.186 67.1564 216.717 67.3907C216.248 67.625 215.731 67.7476 215.206 67.7489C214.283 67.8104 211.822 69.5302 211.822 69.7147C211.822 69.8993 209.549 69.8993 207.515 70.7608C205.482 71.6222 202.479 72.1113 202.479 72.1113C202.479 72.1113 196.634 71.9267 196.089 72.4805C195.544 73.0343 194.985 76.3477 196.151 78.9904C197.317 81.6331 198.612 83.6051 199.59 83.9651C200.568 84.325 206.777 82.2453 211.813 81.7531C216.849 81.2608 222.316 77.2706 222.316 77.2706C222.316 77.2706 228.337 75.1171 229.392 71.496C230.447 67.875 228.103 47.9732 228.103 47.9732C228.103 47.9732 226.331 38.6975 221.356 41.2172Z" fill="black"/>
<path opacity="0.03" d="M220.618 40.2943C220.618 40.2943 214.843 51.2897 215.52 55.4645C216.197 59.6393 218.098 64.371 217.175 65.4785C216.86 65.8974 216.452 66.2375 215.984 66.4718C215.515 66.7062 214.998 66.8285 214.474 66.8291C213.551 66.8906 211.09 68.6104 211.09 68.795C211.09 68.9796 208.816 68.9796 206.783 69.8379C204.749 70.6962 201.747 71.1885 201.747 71.1885C201.747 71.1885 195.901 71.0039 195.36 71.5577C194.818 72.1114 194.252 75.4279 195.421 78.0675C196.59 80.7071 197.883 82.6823 198.861 83.0422C199.839 83.4022 206.048 81.3224 211.084 80.8333C216.12 80.3441 221.587 76.3478 221.587 76.3478C221.587 76.3478 227.605 74.1942 228.647 70.5763C229.69 66.9583 227.358 47.0503 227.358 47.0503C227.358 47.0503 225.593 37.7778 220.618 40.2943Z" fill="black"/>
<path d="M221.175 40.6635C221.175 40.6635 215.4 51.6589 216.077 55.8337C216.754 60.0085 218.655 64.7401 217.735 65.8446C217.42 66.2645 217.012 66.6053 216.543 66.8403C216.073 67.0752 215.556 67.1978 215.031 67.1982C214.108 67.2598 211.647 68.9795 211.647 69.161C211.647 69.3425 209.376 69.3456 207.34 70.207C205.303 71.0685 202.304 71.5576 202.304 71.5576C202.304 71.5576 196.458 71.373 195.914 71.9268C195.369 72.4806 194.809 75.797 195.975 78.4367C197.141 81.0763 198.436 83.0514 199.415 83.4113C200.393 83.7713 206.601 81.6916 211.638 81.1993C216.674 80.7071 222.141 76.7169 222.141 76.7169C222.141 76.7169 228.162 74.5634 229.217 70.9423C230.272 67.3213 227.943 47.4195 227.943 47.4195C227.943 47.4195 226.146 38.1592 221.175 40.6635Z" fill="white"/>
<path opacity="0.1" d="M221.049 70.1547C221.049 70.1547 216.434 69.2318 218.04 70.77C219.646 72.3083 219.637 73.6558 221.602 73.5942C223.568 73.5327 221.049 70.1547 221.049 70.1547Z" fill="black"/>
<path opacity="0.1" d="M228.848 103.252C228.848 103.252 226.762 104.664 230.752 107.919C234.742 111.174 228.848 103.252 228.848 103.252Z" fill="black"/>
<path opacity="0.1" d="M224.867 114.859C224.867 115.044 224.128 121.628 226.891 123.273C229.654 124.919 224.867 114.859 224.867 114.859Z" fill="black"/>
<path d="M181.002 63.2603C178.775 63.3372 173.963 64.0171 176.458 68.6719C178.664 72.7913 182.371 70.0378 184.457 67.9489C183.948 66.0013 182.712 64.3231 181.002 63.2603Z" fill="#FFB0B1"/>
<path d="M184.485 67.912L184.577 67.8167L184.485 67.912Z" fill="#FFB0B1"/>
<path opacity="0.1" d="M220.436 34.7751C218.074 36.3902 216.092 37.7531 215.705 38.0362C214.646 38.8207 212.628 43.4262 211.327 45.7766C210.29 47.6687 206.921 48.1548 205.651 48.2747L205.814 46.8688C208.703 45.5767 210.915 41.4603 210.915 41.4603L216.625 31.4494L218.59 33.2368C218.59 33.2368 219.329 33.8521 220.436 34.7751Z" fill="black"/>
<path d="M220.436 34.5905C218.074 36.2057 216.092 37.5686 215.705 37.8547C214.646 38.6361 212.628 43.2416 211.327 45.5921C210.29 47.4841 206.921 47.9702 205.651 48.0902L205.814 46.6842C208.703 45.3921 210.915 41.2757 210.915 41.2757L216.625 31.2648L218.59 33.0461C218.59 33.0461 219.329 33.6553 220.436 34.5905Z" fill="#DCE7FF"/>
<path d="M215.889 26.7515C215.891 28.5983 215.331 30.4019 214.283 31.9231C213.047 33.7218 211.206 35.0175 209.096 35.5752C206.985 36.1329 204.745 35.9156 202.781 34.9628C200.817 34.0099 199.26 32.3847 198.392 30.382C197.524 28.3792 197.403 26.1316 198.05 24.0471C198.697 21.9625 200.07 20.179 201.92 19.0202C203.77 17.8615 205.974 17.4042 208.132 17.7313C210.29 18.0585 212.26 19.1485 213.683 20.8034C215.106 22.4584 215.889 24.5688 215.889 26.7515Z" fill="#FFB0B1"/>
<path opacity="0.1" d="M231.813 57.4396C230.564 56.671 229.546 55.578 228.869 54.277C228.355 53.2617 228.014 52.0896 227.137 51.3697C226.346 50.7236 225.291 50.5667 224.307 50.2775C221.07 49.3207 218.357 46.3673 218.255 42.9955C218.206 41.408 218.701 39.8236 218.477 38.2515C218.349 37.3618 217.995 36.5197 217.449 35.8057C217.178 35.4642 216.881 35.1443 216.56 34.8489C216.129 34.4428 215.677 34.049 215.283 33.6183C215.035 33.3516 214.819 33.0574 214.637 32.7415C214.491 32.483 214.372 32.2097 214.284 31.9262C213.668 30.0434 214.228 27.8099 213.551 25.9055L213.514 25.8009C213.259 25.1241 212.739 24.4473 212.016 24.395C211.293 24.3427 210.675 24.9426 209.986 25.2103C208.543 25.7702 206.986 24.8165 205.783 23.8443C204.58 22.8721 203.224 21.7615 201.695 21.9769C200.682 22.1215 199.882 22.8106 198.95 23.1675C198.74 23.2489 198.523 23.3117 198.301 23.3551C199.09 21.3877 200.539 19.7565 202.4 18.7417C204.261 17.7268 206.418 17.3918 208.499 17.794C210.58 18.1963 212.456 19.3107 213.805 20.9459C215.153 22.5811 215.891 24.635 215.889 26.7547C215.89 27.3947 215.823 28.0331 215.689 28.659C215.705 28.7021 215.72 28.7421 215.739 28.7851C216.096 29.7081 216.499 30.6556 216.852 31.474L218.591 33.0492C218.591 33.0492 219.329 33.6645 220.436 34.5874C222.845 36.6179 227.008 40.1928 229.155 42.3802C231.044 44.3122 231.635 51.8004 231.813 57.4396Z" fill="black"/>
<path d="M198.842 17.5467C199.282 16.6514 199.501 15.6485 200.027 14.7994C200.799 13.5688 202.147 12.7812 203.531 12.3044C207.146 11.0584 214.785 9.2494 217.068 12.3044C217.517 12.9197 217.889 13.6026 218.511 14.0272C218.984 14.3502 219.557 14.4887 220.076 14.7317C221.532 15.4147 222.461 16.9037 222.956 18.4235C223.451 19.9433 223.599 21.5738 223.962 23.1398C224.427 25.1487 225.242 27.0531 226.054 28.9451C227.011 31.1786 228.026 33.4952 229.872 35.0735C232.392 37.227 232.948 40.2758 235.287 42.6386C238.055 45.4443 237.966 50.0745 236.539 53.7509C236.351 54.2339 236.139 54.7384 236.213 55.2522C236.286 55.766 236.668 56.2336 237.028 56.6428L238.542 58.3502C234.961 59.2147 230.909 57.3442 229.241 54.0616C228.728 53.0464 228.386 51.8773 227.506 51.1543C226.719 50.5082 225.66 50.3544 224.679 50.0652C221.442 49.1054 218.729 46.1489 218.627 42.777C218.578 41.1926 219.074 39.6082 218.849 38.0392C218.724 37.1435 218.369 36.2955 217.818 35.578C216.972 34.4736 215.696 33.7321 215.006 32.5015C213.84 30.4434 214.726 27.7699 213.887 25.561C213.628 24.8841 213.111 24.2073 212.388 24.155C211.665 24.1027 211.047 24.7026 210.355 24.9703C208.915 25.5302 207.358 24.5796 206.155 23.6043C204.952 22.6291 203.596 21.5215 202.064 21.74C201.051 21.8815 200.255 22.5706 199.322 22.9306C198.633 23.1951 197.237 23.432 196.634 22.8506C195.36 21.6784 198.31 18.6419 198.842 17.5467Z" fill="#591D4B"/>
<path opacity="0.1" d="M230.097 53.0464C229.58 52.0311 229.242 50.8621 228.362 50.1422C227.574 49.4961 226.516 49.3392 225.531 49.05C222.298 48.0932 219.584 45.1367 219.48 41.7649C219.431 40.1805 219.926 38.593 219.704 37.024C219.576 36.134 219.221 35.292 218.674 34.5782C217.825 33.4737 216.548 32.7323 215.862 31.5017C214.696 29.4466 215.582 26.7731 214.739 24.5611C214.484 23.8874 213.964 23.2105 213.244 23.1552C212.524 23.0998 211.899 23.7059 211.21 23.9735C209.77 24.5334 208.211 23.5797 207.011 22.6076C205.811 21.6354 204.448 20.5248 202.919 20.7401C201.907 20.8847 201.107 21.5738 200.178 21.9307C199.489 22.1953 198.089 22.4353 197.486 21.8538C196.219 20.6232 199.169 17.5929 199.698 16.5038C200.138 15.6054 200.356 14.6056 200.886 13.7565C200.913 13.7103 200.944 13.6642 200.975 13.618C200.579 13.9459 200.237 14.3343 199.963 14.7686C199.437 15.6178 199.218 16.6145 198.778 17.516C198.246 18.605 195.296 21.6446 196.566 22.866C197.181 23.4505 198.566 23.2105 199.255 22.946C200.178 22.586 200.984 21.8969 201.996 21.7554C203.534 21.5369 204.888 22.6475 206.088 23.6197C207.288 24.5919 208.857 25.5456 210.29 24.9857C210.98 24.718 211.583 24.115 212.321 24.1704C213.059 24.2258 213.552 24.8995 213.819 25.5764C214.659 27.7853 213.773 30.4588 214.939 32.5169C215.628 33.726 216.905 34.4828 217.751 35.5934C218.301 36.3109 218.657 37.1589 218.782 38.0546C219.006 39.6236 218.511 41.208 218.56 42.7924C218.662 46.1766 221.375 49.1208 224.611 50.0806C225.587 50.3698 226.651 50.5236 227.439 51.1697C228.322 51.8927 228.669 53.0617 229.174 54.077C230.841 57.3596 234.893 59.2301 238.474 58.3656L237.76 57.5596C234.656 57.6057 231.515 55.8398 230.097 53.0464Z" fill="black"/>
<path opacity="0.1" d="M208.887 39.0053C208.484 39.6205 207.331 42.7709 206.368 45.5213C205.466 45.1705 204.648 42.9339 204.648 42.9339L209.453 36.098C209.946 36.7748 209.623 37.8977 208.887 39.0053Z" fill="black"/>
<path d="M209.072 38.8207C208.669 39.436 207.515 42.5863 206.552 45.3367C205.651 44.9891 204.832 42.7494 204.832 42.7494L209.638 35.9165C210.13 36.5903 209.807 37.7163 209.072 38.8207Z" fill="#DCE7FF"/>
<path d="M181.131 70.2501L178.467 61.8482C178.435 61.7499 178.424 61.6462 178.432 61.5433C178.441 61.4404 178.47 61.3401 178.517 61.2484C178.565 61.1566 178.63 61.0751 178.709 61.0086C178.788 60.9421 178.879 60.8918 178.978 60.8607C179.176 60.7988 179.391 60.8177 179.575 60.9134C179.759 61.009 179.899 61.1736 179.962 61.3714L182.626 69.764L182.362 71.5207L181.131 70.2501Z" fill="#BE8B87"/>
<path opacity="0.1" d="M178.719 61.1099C178.918 61.0471 179.134 61.0655 179.319 61.1612C179.504 61.257 179.643 61.4221 179.707 61.6206L182.371 70.0133L182.171 71.33L182.365 71.5331L182.63 69.7764L179.95 61.3837C179.886 61.186 179.747 61.0213 179.563 60.9257C179.378 60.83 179.164 60.8111 178.965 60.873C178.799 60.9271 178.655 61.0354 178.556 61.1807C178.609 61.1526 178.663 61.1289 178.719 61.1099Z" fill="white"/>
<path d="M181.131 70.2501L182.626 69.7764L182.408 71.2162L182.362 71.533L181.925 71.0777L181.131 70.2501Z" fill="#EFC8C4"/>
<path d="M181.925 71.0777C181.951 71.0448 181.983 71.0176 182.02 70.9977C182.042 70.9841 182.067 70.9768 182.092 70.9768C182.118 70.9768 182.143 70.9841 182.165 70.9977C182.186 71.023 182.203 71.051 182.217 71.0808C182.237 71.1147 182.265 71.1437 182.298 71.1655C182.331 71.1874 182.369 71.2015 182.408 71.2069L182.362 71.5146L181.925 71.0777Z" fill="#727A9C"/>
<path d="M178.451 64.8324C178.451 64.8324 183.795 64.8016 182.537 67.0752C181.279 69.3487 179.313 69.6225 179.313 69.6225L178.451 64.8324Z" fill="#FFB0B1"/>
<defs>
<linearGradient id="paint0_linear" x1="68600.1" y1="142783" x2="68600.1" y2="45609.2" gradientUnits="userSpaceOnUse">
<stop stop-color="#808080" stop-opacity="0.25"/>
<stop offset="0.54" stop-color="#808080" stop-opacity="0.12"/>
<stop offset="1" stop-color="#808080" stop-opacity="0.1"/>
</linearGradient>
</defs>
</svg>
