<svg width="201" height="51" viewBox="0 0 201 51" fill="none" xmlns="http://www.w3.org/2000/svg">
<path d="M34.9473 12.272C34.9473 11.57 35.1697 10.9966 35.6143 10.5519C36.059 10.0839 36.6908 9.84985 37.5099 9.84985C38.329 9.84985 38.9843 10.0722 39.4758 10.5168C39.9672 10.9615 40.2129 11.5466 40.2129 12.272C40.2129 12.9975 39.9672 13.5709 39.4758 13.9921C38.9843 14.4134 38.329 14.624 37.5099 14.624C36.6908 14.624 36.059 14.4134 35.6143 13.9921C35.1697 13.5475 34.9473 12.9741 34.9473 12.272Z" fill="white"/>
<path d="M53.0479 12.272C53.0479 11.57 53.2702 10.9966 53.7148 10.5519C54.1595 10.0839 54.7914 9.84985 55.6105 9.84985C56.4296 9.84985 57.0848 10.0722 57.5763 10.5168C58.0678 10.9615 58.3135 11.5466 58.3135 12.272C58.3135 12.9975 58.0678 13.5709 57.5763 13.9921C57.0848 14.4134 56.4296 14.624 55.6105 14.624C54.7914 14.624 54.1595 14.4134 53.7148 13.9921C53.2702 13.5475 53.0479 12.9741 53.0479 12.272Z" fill="white"/>
<path d="M7.8848 30.1225H6.54009V45.0637H0.264771V10.2009H6.54009V25.6899L7.78519 25.0923L15.1064 10.2009H22.1786L14.2099 24.8931L11.8691 26.7358L14.2597 28.6284L23.4735 45.0637H15.8037L7.8848 30.1225Z" fill="white"/>
<rect x="18.8323" y="17.8079" width="178.981" height="32.7894" transform="rotate(-5.64325 18.8323 17.8079)" fill="white"/>
<path d="M32.8853 21.364C32.3236 21.1534 31.8087 21.0481 31.3407 21.0481C30.7088 21.0481 30.1589 21.2236 29.6908 21.5746C29.2461 21.9257 28.9419 22.4171 28.7781 23.049V34.7738H24.6007V17.2217H27.7952L28.2866 19.328H28.4271C28.7313 18.5557 29.1642 17.9589 29.7259 17.5377C30.311 17.093 30.978 16.8707 31.7268 16.8707C32.2885 16.8707 32.8385 16.9877 33.3767 17.2217L32.8853 21.364Z" fill="#07923B"/>
<path d="M35.2362 17.2217H39.4135V34.7738H35.2362V17.2217Z" fill="#07923B"/>
<path d="M41.4008 17.2217H43.3315V13.9219L47.5089 12.6231V17.2217H50.914V20.9427H47.5089V28.5954C47.5089 29.6018 47.6025 30.3155 47.7897 30.7368C48.0003 31.158 48.3631 31.3687 48.8779 31.3687C49.229 31.3687 49.5449 31.3336 49.8257 31.2634C50.1066 31.1931 50.4108 31.0878 50.7384 30.9474L51.265 34.2823C50.7501 34.5397 50.1534 34.7504 49.4747 34.9142C48.796 35.1014 48.0822 35.195 47.3333 35.195C45.9994 35.195 44.9931 34.8089 44.3144 34.0366C43.6591 33.2643 43.3315 31.9654 43.3315 30.14V20.9427H41.4008V17.2217Z" fill="#07923B"/>
<path d="M53.3367 17.2217H57.5141V34.7738H53.3367V17.2217Z" fill="#07923B"/>
<path d="M66.7679 30.1049C66.7679 29.6135 66.604 29.2039 66.2764 28.8763C65.9722 28.5252 65.5743 28.2093 65.0829 27.9285C64.5914 27.6242 64.0648 27.32 63.5032 27.0158C62.9649 26.7115 62.45 26.3371 61.9586 25.8924C61.4671 25.4478 61.0576 24.9095 60.7299 24.2776C60.4257 23.6458 60.2736 22.8501 60.2736 21.8906C60.2736 20.2524 60.7182 18.9886 61.6075 18.0993C62.4968 17.21 63.8074 16.7654 65.5392 16.7654C66.5689 16.7654 67.5401 16.8824 68.4528 17.1164C69.3656 17.327 70.091 17.5962 70.6293 17.9238L69.6464 21.1534C69.2017 20.9661 68.6635 20.7906 68.0316 20.6268C67.3997 20.4396 66.7795 20.346 66.1711 20.346C65.0243 20.346 64.451 20.8257 64.451 21.7852C64.451 22.2299 64.6031 22.6043 64.9073 22.9086C65.235 23.1894 65.6445 23.4702 66.136 23.7511C66.6274 24.0319 67.1423 24.3244 67.6806 24.6287C68.2422 24.9329 68.7688 25.3191 69.2602 25.7871C69.7517 26.2318 70.1495 26.7817 70.4538 27.437C70.7814 28.0923 70.9452 28.8997 70.9452 29.8592C70.9452 31.474 70.4538 32.7728 69.4709 33.7557C68.488 34.7387 67.0253 35.2301 65.0829 35.2301C64.1233 35.2301 63.1755 35.1131 62.2394 34.8791C61.3267 34.645 60.5895 34.3408 60.0279 33.9664L61.1863 30.5964C61.6778 30.8772 62.2394 31.1229 62.8713 31.3336C63.5266 31.5442 64.2052 31.6495 64.9073 31.6495C65.4456 31.6495 65.8903 31.5325 66.2413 31.2985C66.5923 31.041 66.7679 30.6432 66.7679 30.1049Z" fill="#07923B"/>
<path d="M83.4988 33.8259C82.9137 34.294 82.2116 34.645 81.3925 34.8791C80.5734 35.1131 79.7544 35.2301 78.9353 35.2301C77.7417 35.2301 76.7354 35.0195 75.9163 34.5982C75.1206 34.1536 74.4653 33.5334 73.9505 32.7377C73.4356 31.9186 73.0612 30.9474 72.8271 29.8241C72.6165 28.6773 72.5112 27.4019 72.5112 25.9977C72.5112 22.932 73.0612 20.6268 74.1611 19.0822C75.261 17.5376 76.8758 16.7654 79.0055 16.7654C80.0586 16.7654 80.9128 16.859 81.5681 17.0462C82.2467 17.2334 82.8435 17.4674 83.3584 17.7483L82.3755 21.2236C81.9542 21.013 81.5447 20.8608 81.1468 20.7672C80.7724 20.6502 80.316 20.5917 79.7778 20.5917C78.7948 20.5917 78.0577 21.0247 77.5662 21.8906C77.0747 22.7331 76.829 24.1021 76.829 25.9977C76.829 27.5891 77.0747 28.888 77.5662 29.8943C78.0811 30.9006 78.8884 31.4038 79.9884 31.4038C80.5734 31.4038 81.0649 31.3336 81.4627 31.1931C81.884 31.0293 82.2701 30.8304 82.6212 30.5964L83.4988 33.8259Z" fill="#07923B"/>
<path d="M94.1216 34.7738V24.1723C94.1216 22.9086 93.9695 21.9959 93.6653 21.4342C93.3844 20.8725 92.8579 20.5917 92.0856 20.5917C91.5239 20.5917 91.009 20.7906 90.541 21.1885C90.0729 21.5863 89.757 22.0895 89.5932 22.698V34.7738H85.4158V10.2009H89.5932V18.8014H89.6985C90.1666 18.1929 90.7282 17.7015 91.3835 17.327C92.0622 16.9526 92.9047 16.7654 93.911 16.7654C94.6365 16.7654 95.2683 16.8707 95.8066 17.0813C96.3449 17.2919 96.8012 17.643 97.1757 18.1344C97.5501 18.6259 97.8309 19.2929 98.0182 20.1354C98.2054 20.9544 98.299 21.9959 98.299 23.2596V34.7738H94.1216Z" fill="#07923B"/>
<path d="M113.05 33.4749C112.465 33.9898 111.67 34.411 110.663 34.7387C109.657 35.0663 108.604 35.2301 107.504 35.2301C106.287 35.2301 105.234 35.0195 104.345 34.5982C103.479 34.177 102.765 33.5685 102.203 32.7728C101.642 31.9771 101.22 31.0176 100.939 29.8943C100.682 28.7476 100.553 27.4487 100.553 25.9977C100.553 22.8384 101.174 20.5098 102.414 19.012C103.678 17.4908 105.421 16.7303 107.644 16.7303C108.393 16.7303 109.119 16.8473 109.821 17.0813C110.523 17.2919 111.143 17.6664 111.681 18.2046C112.243 18.7195 112.688 19.4216 113.015 20.3109C113.366 21.1768 113.542 22.2767 113.542 23.6107C113.542 24.1255 113.507 24.6755 113.437 25.2605C113.39 25.8456 113.308 26.4775 113.191 27.1562H104.661C104.707 28.6071 105.012 29.7188 105.573 30.4911C106.135 31.2633 107.036 31.6495 108.276 31.6495C109.025 31.6495 109.704 31.5325 110.312 31.2985C110.944 31.0644 111.424 30.8187 111.752 30.5613L113.05 33.4749ZM107.574 20.3109C106.685 20.3109 106.018 20.6736 105.573 21.3991C105.129 22.1012 104.871 23.0958 104.801 24.3829H109.645C109.716 23.049 109.575 22.0427 109.224 21.364C108.873 20.6619 108.323 20.3109 107.574 20.3109Z" fill="#07923B"/>
<path d="M132.204 29.2273H126.412L124.973 34.7738H120.585L127.711 10.0254H131.186L138.348 34.7738H133.714L132.204 29.2273ZM127.36 25.5765H131.432L130.028 19.8545L129.466 15.9931H129.326L128.729 19.8896L127.36 25.5765Z" fill="#07923B"/>
<path d="M148.071 21.364C147.509 21.1534 146.994 21.0481 146.526 21.0481C145.894 21.0481 145.344 21.2236 144.876 21.5746C144.431 21.9257 144.127 22.4171 143.963 23.049V34.7738H139.786V17.2217H142.98L143.472 19.328H143.612C143.917 18.5557 144.35 17.9589 144.911 17.5377C145.496 17.093 146.163 16.8707 146.912 16.8707C147.474 16.8707 148.024 16.9877 148.562 17.2217L148.071 21.364Z" fill="#07923B"/>
<path d="M150.07 10.2009H154.248V18.345H154.353C155.196 17.3153 156.401 16.8005 157.969 16.8005C159.63 16.8005 160.918 17.4908 161.83 18.8716C162.766 20.2524 163.234 22.4756 163.234 25.5414C163.234 28.8646 162.579 31.3102 161.269 32.8781C159.958 34.4227 158.168 35.195 155.898 35.195C154.657 35.195 153.511 35.078 152.457 34.844C151.428 34.6099 150.632 34.3525 150.07 34.0717V10.2009ZM154.248 30.9825C154.739 31.2399 155.383 31.3687 156.179 31.3687C157.068 31.3687 157.746 30.9474 158.215 30.1049C158.683 29.239 158.917 27.7997 158.917 25.7871C158.917 24.0085 158.729 22.7097 158.355 21.8906C157.981 21.0481 157.395 20.6268 156.6 20.6268C155.43 20.6268 154.646 21.2353 154.248 22.4522V30.9825Z" fill="#07923B"/>
<path d="M177.499 33.4749C176.914 33.9898 176.119 34.411 175.112 34.7387C174.106 35.0663 173.053 35.2301 171.953 35.2301C170.736 35.2301 169.683 35.0195 168.793 34.5982C167.928 34.177 167.214 33.5685 166.652 32.7728C166.09 31.9771 165.669 31.0176 165.388 29.8943C165.131 28.7476 165.002 27.4487 165.002 25.9977C165.002 22.8384 165.622 20.5098 166.863 19.012C168.127 17.4908 169.87 16.7303 172.093 16.7303C172.842 16.7303 173.568 16.8473 174.27 17.0813C174.972 17.2919 175.592 17.6664 176.13 18.2046C176.692 18.7195 177.137 19.4216 177.464 20.3109C177.815 21.1768 177.991 22.2767 177.991 23.6107C177.991 24.1255 177.956 24.6755 177.885 25.2605C177.839 25.8456 177.757 26.4775 177.64 27.1562H169.109C169.156 28.6071 169.46 29.7188 170.022 30.4911C170.584 31.2633 171.485 31.6495 172.725 31.6495C173.474 31.6495 174.153 31.5325 174.761 31.2985C175.393 31.0644 175.873 30.8187 176.2 30.5613L177.499 33.4749ZM172.023 20.3109C171.134 20.3109 170.467 20.6736 170.022 21.3991C169.577 22.1012 169.32 23.0958 169.25 24.3829H174.094C174.164 23.049 174.024 22.0427 173.673 21.364C173.322 20.6619 172.772 20.3109 172.023 20.3109Z" fill="#07923B"/>
<path d="M181 17.2217H185.178V34.7738H181V17.2217ZM180.544 12.272C180.544 11.57 180.766 10.9966 181.211 10.5519C181.656 10.0839 182.288 9.84985 183.107 9.84985C183.926 9.84985 184.581 10.0722 185.072 10.5168C185.564 10.9615 185.81 11.5466 185.81 12.272C185.81 12.9975 185.564 13.5709 185.072 13.9921C184.581 14.4134 183.926 14.624 183.107 14.624C182.288 14.624 181.656 14.4134 181.211 13.9921C180.766 13.5475 180.544 12.9741 180.544 12.272Z" fill="#07923B"/>
<path d="M187.165 17.2217H189.096V13.9219L193.273 12.6231V17.2217H196.678V20.9427H193.273V28.5954C193.273 29.6018 193.367 30.3155 193.554 30.7368C193.765 31.158 194.127 31.3687 194.642 31.3687C194.993 31.3687 195.309 31.3336 195.59 31.2634C195.871 31.1931 196.175 31.0878 196.503 30.9474L197.029 34.2823C196.514 34.5397 195.918 34.7504 195.239 34.9142C194.56 35.1014 193.846 35.195 193.098 35.195C191.764 35.195 190.757 34.8089 190.079 34.0366C189.423 33.2643 189.096 31.9654 189.096 30.14V20.9427H187.165V17.2217Z" fill="#07923B"/>
</svg>
