<svg width="290" height="177" viewBox="0 0 290 177" fill="none" xmlns="http://www.w3.org/2000/svg">
<path d="M220.103 157.08C256.271 157.08 285.591 127.76 285.591 91.5919C285.591 55.4235 256.271 26.1033 220.103 26.1033C183.935 26.1033 154.614 55.4235 154.614 91.5919C154.614 127.76 183.935 157.08 220.103 157.08Z" fill="#F2F2F2"/>
<path d="M80.6174 131.04C116.786 131.04 146.106 101.719 146.106 65.5511C146.106 29.3828 116.786 0.0626221 80.6174 0.0626221C44.4491 0.0626221 15.1289 29.3828 15.1289 65.5511C15.1289 101.719 44.4491 131.04 80.6174 131.04Z" fill="#F2F2F2"/>
<path d="M77.5235 134.649C117.252 134.649 149.458 132.918 149.458 130.782C149.458 128.646 117.252 126.915 77.5235 126.915C37.7953 126.915 5.58923 128.646 5.58923 130.782C5.58923 132.918 37.7953 134.649 77.5235 134.649Z" fill="#3F3D56"/>
<path opacity="0.1" d="M63.0851 133.583C92.8457 133.583 116.971 132.388 116.971 130.915C116.971 129.442 92.8457 128.248 63.0851 128.248C33.3245 128.248 9.19885 129.442 9.19885 130.915C9.19885 132.388 33.3245 133.583 63.0851 133.583Z" fill="black"/>
<path d="M217.525 161.979C257.253 161.979 289.459 160.075 289.459 157.725C289.459 155.376 257.253 153.471 217.525 153.471C177.796 153.471 145.59 155.376 145.59 157.725C145.59 160.075 177.796 161.979 217.525 161.979Z" fill="#07923B" fill-opacity="0.2"/>
<path opacity="0.1" d="M203.086 160.806C232.847 160.806 256.972 159.492 256.972 157.872C256.972 156.251 232.847 154.938 203.086 154.938C173.326 154.938 149.2 156.251 149.2 157.872C149.2 159.492 173.326 160.806 203.086 160.806Z" fill="black"/>
<path d="M103.589 150.119C128.942 150.119 149.494 149.08 149.494 147.799C149.494 146.517 128.942 145.478 103.589 145.478C78.2368 145.478 57.6846 146.517 57.6846 147.799C57.6846 149.08 78.2368 150.119 103.589 150.119Z" fill="#07923B" fill-opacity="0.2"/>
<path d="M22.3731 141.184C34.6053 141.184 44.5214 140.682 44.5214 140.064C44.5214 139.446 34.6053 138.944 22.3731 138.944C10.141 138.944 0.224854 139.446 0.224854 140.064C0.224854 140.682 10.141 141.184 22.3731 141.184Z" fill="#3F3D56"/>
<path d="M245.917 176.954C268.683 176.954 287.138 176.022 287.138 174.871C287.138 173.72 268.683 172.787 245.917 172.787C223.151 172.787 204.696 173.72 204.696 174.871C204.696 176.022 223.151 176.954 245.917 176.954Z" fill="#07923B" fill-opacity="0.2"/>
<path d="M241.503 108.351H158.997V157.338H241.503V108.351Z" fill="#3F3D56"/>
<path d="M185.554 151.924C195.806 151.924 204.118 143.613 204.118 133.36C204.118 123.108 195.806 114.797 185.554 114.797C175.301 114.797 166.99 123.108 166.99 133.36C166.99 143.613 175.301 151.924 185.554 151.924Z" fill="#07923B"/>
<path d="M215.978 116.086H209.79V122.274H215.978V116.086Z" fill="#07923B"/>
<path opacity="0.5" d="M223.712 116.086H217.525V122.274H223.712V116.086Z" fill="#07923B"/>
<path opacity="0.2" d="M231.447 116.086H225.26V122.274H231.447V116.086Z" fill="#07923B"/>
<path d="M215.978 123.821H209.79V130.009H215.978V123.821Z" fill="#2F2E41"/>
<path opacity="0.5" d="M223.712 123.821H217.525V130.009H223.712V123.821Z" fill="#2F2E41"/>
<path opacity="0.2" d="M231.447 123.821H225.26V130.009H231.447V123.821Z" fill="#2F2E41"/>
<path d="M215.978 131.556H209.79V137.743H215.978V131.556Z" fill="#FF6584"/>
<path opacity="0.5" d="M223.712 131.556H217.525V137.743H223.712V131.556Z" fill="#FF6584"/>
<path opacity="0.2" d="M231.447 131.556H225.26V137.743H231.447V131.556Z" fill="#FF6584"/>
<path opacity="0.5" d="M185.554 114.797V151.924C195.806 151.924 204.633 143.613 204.633 133.36C204.633 123.108 195.806 114.797 185.554 114.797Z" fill="#3F3D56"/>
<path d="M259.164 111.832C259.164 111.832 269.993 116.73 266.125 122.403C262.258 128.075 250.656 138.904 250.398 141.224C250.14 143.545 248.593 145.607 248.593 145.607C248.593 145.607 243.436 140.193 243.952 139.677C244.468 139.161 249.624 134.263 249.882 132.974C250.14 131.684 257.875 121.629 257.875 121.629L250.914 115.441L259.164 111.832Z" fill="#FFB9B9"/>
<path opacity="0.1" d="M259.164 111.832C259.164 111.832 269.993 116.73 266.125 122.403C262.258 128.075 250.656 138.904 250.398 141.224C250.14 143.545 248.593 145.607 248.593 145.607C248.593 145.607 243.436 140.193 243.952 139.677C244.468 139.161 249.624 134.263 249.882 132.974C250.14 131.684 257.875 121.629 257.875 121.629L250.914 115.441L259.164 111.832Z" fill="black"/>
<path d="M245.499 122.66C245.499 122.66 252.976 125.754 252.46 130.653C251.945 135.552 261.484 149.475 261.484 149.475C261.484 149.475 262.516 152.826 262.258 153.858C262 154.889 268.961 154.631 268.961 154.631V152.311C268.961 152.311 263.547 143.029 263.031 140.451C262.516 137.872 259.422 127.817 259.422 127.817C259.422 127.817 258.39 118.793 253.234 118.793C251.733 118.793 250.253 119.142 248.91 119.814C247.567 120.485 246.4 121.46 245.499 122.66Z" fill="#FFB9B9"/>
<path d="M245.886 99.3269C245.886 99.3269 261.356 111.961 260.84 112.992C260.324 114.023 252.847 117.891 251.558 118.148C250.269 118.406 241.147 99.3269 241.147 99.3269H245.886Z" fill="#2F2E41"/>
<path opacity="0.1" d="M245.886 99.3269C245.886 99.3269 261.356 111.961 260.84 112.992C260.324 114.023 252.847 117.891 251.558 118.148C250.269 118.406 241.147 99.3269 241.147 99.3269H245.886Z" fill="black"/>
<path d="M229.127 101.905C229.127 101.905 227.58 108.867 231.705 111.703C235.83 114.539 242.792 125.625 243.565 125.625C244.339 125.625 255.425 119.695 254.91 118.664C254.394 117.633 248.722 108.609 248.722 108.609L246.917 99.069C246.917 99.069 231.19 98.5534 229.127 101.905Z" fill="#2F2E41"/>
<path d="M245.886 79.2162L248.206 94.1703L252.332 104.741C252.332 104.741 258.519 111.187 254.91 111.703C251.3 112.218 249.238 104.741 249.238 104.741L245.886 98.5534V79.2162Z" fill="#FFB9B9"/>
<path opacity="0.1" d="M245.886 79.2162L248.206 94.1703L252.332 104.741C252.332 104.741 258.519 111.187 254.91 111.703C251.3 112.218 249.238 104.741 249.238 104.741L245.886 98.5534V79.2162Z" fill="black"/>
<path d="M237.249 62.5863C237.249 62.5863 237.249 68.0007 235.444 68.5164C233.639 69.032 242.663 75.9934 242.663 75.9934C242.663 75.9934 241.632 66.9694 245.241 64.6489L237.249 62.5863Z" fill="#FFB9B9"/>
<path opacity="0.1" d="M237.249 62.5863C237.249 62.5863 237.249 68.0007 235.444 68.5164C233.639 69.032 242.663 75.9934 242.663 75.9934C242.663 75.9934 241.632 66.9694 245.241 64.6489L237.249 62.5863Z" fill="black"/>
<path d="M241.374 66.9694C244.649 66.9694 247.304 64.3144 247.304 61.0393C247.304 57.7642 244.649 55.1093 241.374 55.1093C238.099 55.1093 235.444 57.7642 235.444 61.0393C235.444 64.3144 238.099 66.9694 241.374 66.9694Z" fill="#FFB9B9"/>
<path d="M241.632 73.415C241.632 73.415 236.217 66.7115 235.444 66.9693C234.67 67.2271 228.998 72.8994 228.482 74.7042C227.967 76.509 226.935 89.4004 227.709 91.9787C228.482 94.557 228.482 101.261 228.225 101.776C227.967 102.292 226.42 103.581 227.967 103.581C229.514 103.581 234.928 99.7136 238.538 100.487C242.147 101.261 247.046 100.229 247.304 99.7136C247.562 99.1979 247.046 85.7908 247.304 84.7595C247.562 83.7282 246.788 78.5716 246.53 77.5403C246.273 76.509 246.273 72.3837 243.694 71.3524L242.595 71.2437L242.533 73.7941L241.632 73.415Z" fill="#07923B"/>
<path d="M230.287 86.8222C230.287 86.8222 230.803 94.8149 234.67 98.1667C238.538 101.518 246.788 107.191 247.304 108.222C247.82 109.253 252.718 114.668 253.75 112.347C254.049 111.624 254.121 110.827 253.956 110.061C253.807 109.3 253.503 108.578 253.064 107.939C252.625 107.3 252.06 106.758 251.403 106.345L249.109 104.87L237.764 93.0101L237.249 86.8222H230.287Z" fill="#FFB9B9"/>
<path d="M245.112 138.775C245.112 138.775 242.147 138.13 241.116 139.935C240.085 141.74 242.147 146.639 242.147 146.639C242.147 146.639 248.077 159.014 249.109 157.467C250.14 155.92 248.335 150.248 248.335 150.248C248.335 150.248 250.914 144.576 249.882 144.318C248.851 144.06 245.112 141.869 245.112 138.775Z" fill="#2F2E41"/>
<path d="M263.289 153.6C263.289 153.6 261.742 152.826 261.484 153.6C261.227 154.373 259.68 158.241 261.484 158.757C263.289 159.272 281.079 159.788 280.564 158.757C280.048 157.725 277.212 156.436 275.407 155.92C273.602 155.405 268.961 151.537 268.961 151.537C268.961 151.537 266.383 154.889 263.289 153.6Z" fill="#2F2E41"/>
<path d="M247.347 56.3329C247.236 55.9587 246.991 55.6387 246.659 55.4338C246.676 55.033 246.627 54.6322 246.513 54.2474C246.134 53.1273 245.237 53.1915 244.39 52.6962C244.023 52.4814 244.045 52.2915 243.854 51.9386C243.603 51.4759 243.228 51.0929 242.77 50.833C242.227 50.4869 241.654 50.1304 241.011 50.0865C239.66 49.9945 238.624 51.265 237.333 51.6727C236.764 51.8524 236.153 51.8598 235.581 52.0297C235.009 52.1996 234.438 52.6053 234.353 53.196C234.313 53.4686 234.383 53.7484 234.343 54.021C234.264 54.5628 233.788 54.9422 233.47 55.3879C232.766 56.3733 232.847 57.7655 233.41 58.8377C233.528 59.0596 233.664 59.2719 233.815 59.4727C233.862 59.9795 234.008 60.4722 234.244 60.9232C234.806 61.9954 235.775 62.7967 236.786 63.4623C236.703 63.1067 236.653 62.7443 236.636 62.3796C236.622 62.258 236.638 62.1349 236.682 62.0208C236.795 61.7854 237.093 61.7227 237.32 61.5938C237.79 61.3266 237.974 60.7355 237.988 60.195C238.001 59.6545 237.887 59.1131 237.943 58.5754C237.945 58.4517 237.974 58.3299 238.026 58.2178C238.078 58.1057 238.153 58.0057 238.246 57.9244C238.42 57.8254 238.618 57.7782 238.817 57.7882C239.781 57.749 240.787 57.7313 241.636 57.2758C241.91 57.0938 242.205 56.9448 242.514 56.8319C243.236 56.6437 243.974 57.1497 244.39 57.769C244.806 58.3884 245.013 59.1254 245.397 59.7652C245.781 60.405 246.444 60.9755 247.187 60.8997C247.228 60.8998 247.27 60.8911 247.308 60.8741C247.346 60.8571 247.38 60.8322 247.408 60.8011C247.44 60.7436 247.454 60.6779 247.449 60.6123L247.491 57.775C247.525 57.2896 247.477 56.802 247.347 56.3329Z" fill="#2F2E41"/>
<path d="M232.608 73.6729C232.608 73.6729 238.28 76.2512 238.022 81.6656C237.764 87.08 239.569 87.5957 235.186 88.1113C230.803 88.627 229.772 88.1113 229.514 88.627C229.256 89.1426 227.709 76.7669 228.74 75.4777C229.772 74.1886 232.608 73.6729 232.608 73.6729Z" fill="#07923B"/>
<path d="M118.518 29.9709C123.075 29.9709 126.769 26.277 126.769 21.7204C126.769 17.1637 123.075 13.4698 118.518 13.4698C113.962 13.4698 110.268 17.1637 110.268 21.7204C110.268 26.277 113.962 29.9709 118.518 29.9709Z" fill="#2F2E41"/>
<path d="M124.062 112.089L119.421 124.723C119.421 124.723 115.553 127.817 117.874 128.848C120.194 129.88 124.835 127.817 124.835 127.817L128.445 118.535L127.929 112.089H124.062Z" fill="#2F2E41"/>
<path opacity="0.1" d="M124.062 112.089L119.421 124.723C119.421 124.723 115.553 127.817 117.874 128.848C120.194 129.88 124.835 127.817 124.835 127.817L128.445 118.535L127.929 112.089H124.062Z" fill="black"/>
<path d="M124.448 37.1902L128.316 37.7058C128.316 37.7058 130.121 51.8864 129.347 52.9177C128.574 53.9491 124.706 58.0743 123.159 57.043C121.612 56.0117 124.448 37.1902 124.448 37.1902Z" fill="#575A89"/>
<path d="M87.4499 63.1019C87.4499 63.1019 82.0355 65.4224 81.0042 65.6802C79.9729 65.938 78.4259 68.5163 80.2307 69.032C82.0355 69.5477 88.9969 64.3911 88.9969 64.3911L87.4499 63.1019Z" fill="#A0616A"/>
<path d="M125.866 117.246L128.703 127.817C128.703 127.817 128.96 131.684 130.25 131.942C131.539 132.2 135.406 130.653 135.406 130.137C135.406 129.622 133.859 125.497 133.859 125.497C133.859 125.497 133.859 122.403 132.312 121.113C130.765 119.824 129.372 115.506 129.372 115.506L125.866 117.246Z" fill="#2F2E41"/>
<path d="M129.476 93.0101C129.997 94.2244 129.932 103.034 129.363 108.897C129.087 111.746 128.692 113.899 128.187 114.152L124.492 113.229L123.03 112.863L122.992 109.656L122.772 91.9788L118.389 73.6729V69.032L129.476 70.0633L131.234 72.8246L131.281 72.8994C131.281 72.8994 128.703 91.2053 129.476 93.0101Z" fill="#2F2E41"/>
<path opacity="0.1" d="M127.156 98.6823C127.707 99.5099 128.628 104.465 129.363 108.897C129.087 111.746 128.692 113.899 128.187 114.152L124.492 113.229C124.435 113.11 124.379 112.987 124.319 112.863C123.848 111.873 123.404 110.78 122.992 109.656L122.772 91.9788L118.389 73.6729V69.032L129.476 70.0633L131.234 72.8246L120.968 72.1259L123.288 82.1813L126.124 92.7522C126.124 92.7522 126.124 97.1353 127.156 98.6823Z" fill="black"/>
<path d="M108.85 58.7189C108.85 58.7189 105.24 66.7116 110.397 77.7982C113.588 84.6976 116.427 91.7539 118.905 98.9402C118.905 98.9402 120.71 107.449 123.288 112.863C125.867 118.277 125.351 118.535 125.351 118.535L129.476 116.215C129.476 116.215 127.156 100.229 126.124 98.6824C125.093 97.1354 125.093 92.7523 125.093 92.7523L122.257 82.1813L119.936 72.126L131.281 72.8995C131.281 72.8995 131.281 58.2032 126.124 55.3671L108.85 58.7189Z" fill="#2F2E41"/>
<path d="M113.104 25.5878C113.104 25.5878 113.104 29.7131 111.815 29.9709C110.526 30.2288 107.947 30.2288 107.174 31.5179C106.4 32.807 113.104 49.8237 113.104 49.8237L120.065 45.4407L122.386 33.8384C122.386 33.8384 119.034 31.7757 119.034 30.7444V26.1035L113.104 25.5878Z" fill="#A0616A"/>
<path opacity="0.1" d="M113.104 25.5878C113.104 25.5878 113.104 29.7131 111.815 29.9709C110.526 30.2288 107.947 30.2288 107.174 31.5179C106.4 32.807 113.104 49.8237 113.104 49.8237L120.065 45.4407L122.386 33.8384C122.386 33.8384 119.034 31.7757 119.034 30.7444V26.1035L113.104 25.5878Z" fill="black"/>
<path d="M117.1 30.0998C120.518 30.0998 123.288 27.3294 123.288 23.912C123.288 20.4945 120.518 17.7241 117.1 17.7241C113.683 17.7241 110.912 20.4945 110.912 23.912C110.912 27.3294 113.683 30.0998 117.1 30.0998Z" fill="#A0616A"/>
<path d="M113.877 44.6671C113.877 44.6671 111.557 29.9709 111.041 29.9709C110.526 29.9709 103.306 31.5179 102.791 31.7757C102.275 32.0335 100.47 34.354 100.47 34.354L104.08 44.6671C104.08 44.6671 105.627 51.8863 106.658 53.1755C107.689 54.4646 109.752 58.0742 108.721 58.5899C107.689 59.1056 106.658 59.879 107.689 59.879C108.721 59.879 117.229 58.3321 117.745 59.1056C118.26 59.879 126.769 56.2694 126.769 56.0116C126.769 55.7538 125.737 43.6358 125.737 43.6358L128.316 37.7058L120.581 32.2913L113.877 44.6671Z" fill="#575A89"/>
<path d="M103.049 33.0648L100.47 34.354C100.47 34.354 93.251 50.855 92.7354 51.1128C92.2197 51.3707 89.6414 56.2694 89.3836 57.3007C89.1258 58.3321 88.6101 61.6838 87.8366 62.1995C87.4217 62.4812 86.9913 62.7395 86.5475 62.973C86.5475 62.973 88.0945 65.5513 88.8679 65.5513C89.6414 65.5513 92.2197 61.9417 92.2197 61.9417C92.2197 61.9417 97.892 65.5513 99.4389 62.7151C100.986 59.879 104.853 41.831 104.853 41.831L103.049 33.0648Z" fill="#575A89"/>
<path d="M123.288 40.9287C123.288 40.9287 119.679 32.1625 117.616 33.1938C115.553 34.2252 119.163 40.4131 121.483 41.4444L123.288 40.9287Z" fill="#A0616A"/>
<path opacity="0.1" d="M119.679 41.1864L123.296 40.3687L124.062 44.2804C124.062 44.2804 127.413 50.2104 126.64 52.7887C125.867 55.367 121.226 59.4923 119.679 57.1718C118.132 54.8514 116.842 51.2417 117.874 49.1791C118.905 47.1165 120.452 42.2177 119.679 41.1864Z" fill="black"/>
<path d="M120.452 40.6709L124.07 39.8531L124.835 43.7648C124.835 43.7648 128.187 49.6949 127.413 52.2732C126.64 54.8514 121.999 58.9767 120.452 56.6563C118.905 54.3358 117.616 50.7262 118.647 48.6636C119.679 46.6009 121.226 41.7022 120.452 40.6709Z" fill="#575A89"/>
<path d="M124.38 22.6695C125.074 21.1866 123.129 18.8093 120.034 17.3595C116.939 15.9097 113.867 15.9366 113.173 17.4195C112.478 18.9024 114.424 21.2798 117.518 22.7295C120.613 24.1793 123.685 24.1524 124.38 22.6695Z" fill="#2F2E41"/>
<path d="M123.417 18.3686C125.411 18.3686 127.027 16.7525 127.027 14.759C127.027 12.7655 125.411 11.1494 123.417 11.1494C121.424 11.1494 119.807 12.7655 119.807 14.759C119.807 16.7525 121.424 18.3686 123.417 18.3686Z" fill="#2F2E41"/>
<path d="M120.065 13.4699C120.065 12.5796 120.395 11.7208 120.989 11.0585C121.584 10.3961 122.403 9.977 123.288 9.88163C122.784 9.82657 122.274 9.87835 121.791 10.0336C121.309 10.1888 120.864 10.444 120.486 10.7825C120.109 11.1211 119.807 11.5354 119.6 11.9984C119.393 12.4614 119.287 12.9628 119.287 13.4699C119.287 13.977 119.393 14.4784 119.6 14.9414C119.807 15.4044 120.109 15.8187 120.486 16.1573C120.864 16.4958 121.309 16.751 121.791 16.9062C122.274 17.0614 122.784 17.1132 123.288 17.0582C122.403 16.9628 121.584 16.5437 120.989 15.8813C120.395 15.219 120.065 14.3602 120.065 13.4699Z" fill="#2F2E41"/>
<path d="M107.174 68.1296H16.9337V130.782H107.174V68.1296Z" fill="#3F3D56"/>
<path d="M36.013 74.3175H24.1528V86.1776H36.013V74.3175Z" fill="#F2F2F2"/>
<path d="M36.013 93.6547H24.1528V105.515H36.013V93.6547Z" fill="#07923B"/>
<path d="M36.013 112.992H24.1528V124.852H36.013V112.992Z" fill="#F2F2F2"/>
<path d="M98.1498 78.056H41.6853V79.0873H98.1498V78.056Z" fill="#F2F2F2"/>
<path d="M59.2177 81.4078H41.6853V82.4392H59.2177V81.4078Z" fill="#F2F2F2"/>
<path d="M98.1498 97.3932H41.6853V98.4245H98.1498V97.3932Z" fill="#F2F2F2"/>
<path d="M59.2177 100.745H41.6853V101.776H59.2177V100.745Z" fill="#F2F2F2"/>
<path d="M98.1498 116.73H41.6853V117.762H98.1498V116.73Z" fill="#F2F2F2"/>
<path d="M59.2177 120.082H41.6853V121.113H59.2177V120.082Z" fill="#F2F2F2"/>
<path d="M255.425 169.181C255.425 174.43 252.306 176.262 248.457 176.262C248.368 176.262 248.279 176.261 248.19 176.259C248.012 176.255 247.835 176.247 247.66 176.234C244.186 175.989 241.488 174.062 241.488 169.181C241.488 164.131 247.942 157.757 248.428 157.285L248.429 157.284C248.447 157.265 248.457 157.256 248.457 157.256C248.457 157.256 255.425 163.933 255.425 169.181Z" fill="#07923B"/>
<path d="M248.203 175.459L250.752 171.898L248.196 175.85L248.19 176.259C248.012 176.255 247.835 176.247 247.66 176.234L247.935 170.984L247.933 170.943L247.937 170.936L247.964 170.439L245.402 166.478L247.971 170.068L247.978 170.173L248.185 166.206L245.992 162.112L248.212 165.51L248.428 157.285L248.429 157.256V157.284L248.393 163.77L250.576 161.198L248.384 164.328L248.326 167.88L250.365 164.471L248.318 168.403L248.286 170.378L251.244 165.633L248.274 171.067L248.203 175.459Z" fill="#3F3D56"/>
<path d="M29.3095 133.343C29.3095 138.591 26.1898 140.424 22.3408 140.424C22.2517 140.424 22.1625 140.423 22.074 140.421C21.8957 140.417 21.7187 140.408 21.5442 140.396C18.0705 140.151 15.3722 138.224 15.3722 133.343C15.3722 128.293 21.8258 121.919 22.312 121.447L22.3126 121.446C22.3312 121.427 22.3408 121.418 22.3408 121.418C22.3408 121.418 29.3095 128.095 29.3095 133.343Z" fill="#07923B"/>
<path d="M22.0868 139.621L24.6357 136.06L22.0804 140.012L22.074 140.421C21.8957 140.417 21.7187 140.408 21.5442 140.396L21.8187 135.146L21.8168 135.105L21.8213 135.098L21.8476 134.601L19.2859 130.64L21.8553 134.229L21.8617 134.335L22.0689 130.368L19.876 126.274L22.0958 129.672L22.3119 121.447L22.3126 121.418V121.446L22.2767 127.932L24.4599 125.36L22.2677 128.49L22.21 132.042L24.2489 128.633L22.2016 132.565L22.1696 134.54L25.1283 129.795L22.158 135.229L22.0868 139.621Z" fill="#3F3D56"/>
</svg>
