<svg width="514" height="292" viewBox="0 0 514 292" fill="none" xmlns="http://www.w3.org/2000/svg">
<path opacity="0.9" d="M513.034 193.079C513.062 207.909 509.013 222.461 501.33 235.146C501.33 250.66 494.097 264.721 482.366 274.969C479.43 277.535 476.269 279.831 472.92 281.83C472.786 281.915 472.647 281.995 472.508 282.076C472.257 282.224 472.006 282.372 471.751 282.524L471.513 282.663C460.409 288.852 447.893 292.065 435.181 291.993H97.7204C74.4505 291.993 53.3853 283.891 38.123 270.797C22.8606 257.704 13.455 239.583 13.455 219.597C4.90856 206.437 0.374817 191.075 0.406291 175.383C0.406291 130.958 35.9138 94.9445 79.7202 94.9445C81.2706 94.9445 82.8076 94.9982 84.3357 95.0834C111.822 48.212 173.821 15.5275 245.849 15.5275C290.131 15.5275 330.608 27.8727 361.612 48.2702C373.356 41.6311 386.621 38.1497 400.113 38.1655C443.91 38.1655 479.427 74.1794 479.427 118.604C479.42 121.415 479.27 124.224 478.978 127.02C489.536 134.493 498.141 144.396 504.068 155.893C509.995 167.39 513.07 180.144 513.034 193.079Z" fill="white"/>
<path opacity="0.1" d="M185.472 218.482C282.484 218.482 361.128 216.375 361.128 213.776C361.128 211.178 282.484 209.071 185.472 209.071C88.4599 209.071 9.81616 211.178 9.81616 213.776C9.81616 216.375 88.4599 218.482 185.472 218.482Z" fill="#07923B"/>
<g opacity="0.7">
<path opacity="0.7" d="M120.049 179.049H64.0365V209.968H120.049V179.049Z" fill="#65617D"/>
<path opacity="0.1" d="M100.781 184.426H83.7529V188.011H100.781V184.426Z" fill="black"/>
<path opacity="0.1" d="M98.6524 184.874H85.8815V187.563H98.6524V184.874Z" fill="black"/>
<path opacity="0.7" d="M176.958 179.049H120.945V209.968H176.958V179.049Z" fill="#65617D"/>
<path opacity="0.1" d="M157.69 184.426H140.662V188.011H157.69V184.426Z" fill="black"/>
<path opacity="0.1" d="M155.561 184.874H142.79V187.563H155.561V184.874Z" fill="black"/>
<path opacity="0.7" d="M120.049 147.233H64.0365V178.152H120.049V147.233Z" fill="#65617D"/>
<path opacity="0.1" d="M100.781 152.611H83.7529V156.195H100.781V152.611Z" fill="black"/>
<path opacity="0.1" d="M98.6524 153.059H85.8815V155.747H98.6524V153.059Z" fill="black"/>
<path opacity="0.7" d="M176.958 147.233H120.945V178.152H176.958V147.233Z" fill="#65617D"/>
<path opacity="0.1" d="M157.69 152.611H140.662V156.195H157.69V152.611Z" fill="black"/>
<path opacity="0.1" d="M155.561 153.059H142.79V155.747H155.561V153.059Z" fill="black"/>
<path opacity="0.7" d="M120.049 114.97H64.0365V145.889H120.049V114.97Z" fill="#65617D"/>
<path opacity="0.1" d="M100.781 120.347H83.7529V123.932H100.781V120.347Z" fill="black"/>
<path opacity="0.1" d="M98.6524 120.795H85.8815V123.484H98.6524V120.795Z" fill="black"/>
<path opacity="0.7" d="M176.958 114.97H120.945V145.889H176.958V114.97Z" fill="#65617D"/>
<path opacity="0.1" d="M157.69 120.347H140.662V123.932H157.69V120.347Z" fill="black"/>
<path opacity="0.1" d="M155.561 120.795H142.79V123.484H155.561V120.795Z" fill="black"/>
<path opacity="0.7" d="M176.958 82.7068H120.945V113.626H176.958V82.7068Z" fill="#65617D"/>
<path opacity="0.1" d="M157.69 88.084H140.662V91.6689H157.69V88.084Z" fill="black"/>
<path opacity="0.1" d="M155.561 88.5321H142.79V91.2208H155.561V88.5321Z" fill="black"/>
</g>
<g opacity="0.7">
<path opacity="0.7" d="M233.867 178.6H177.854V209.519H233.867V178.6Z" fill="#65617D"/>
<path opacity="0.1" d="M214.599 183.978H197.571V187.563H214.599V183.978Z" fill="black"/>
<path opacity="0.1" d="M212.47 184.426H199.699V187.114H212.47V184.426Z" fill="black"/>
<path opacity="0.7" d="M290.776 178.6H234.763V209.519H290.776V178.6Z" fill="#65617D"/>
<path opacity="0.1" d="M271.507 183.978H254.479V187.563H271.507V183.978Z" fill="black"/>
<path opacity="0.1" d="M269.379 184.426H256.608V187.114H269.379V184.426Z" fill="black"/>
<path opacity="0.7" d="M233.867 146.785H177.854V177.704H233.867V146.785Z" fill="#65617D"/>
<path opacity="0.1" d="M214.599 152.163H197.571V155.747H214.599V152.163Z" fill="black"/>
<path opacity="0.1" d="M212.47 152.611H199.699V155.299H212.47V152.611Z" fill="black"/>
<path opacity="0.7" d="M290.776 146.785H234.763V177.704H290.776V146.785Z" fill="#65617D"/>
<path opacity="0.1" d="M271.507 152.163H254.479V155.747H271.507V152.163Z" fill="black"/>
<path opacity="0.1" d="M269.379 152.611H256.608V155.299H269.379V152.611Z" fill="black"/>
<path opacity="0.7" d="M233.867 114.522H177.854V145.441H233.867V114.522Z" fill="#65617D"/>
<path opacity="0.1" d="M214.599 119.899H197.571V123.484H214.599V119.899Z" fill="black"/>
<path opacity="0.1" d="M212.47 120.347H199.699V123.036H212.47V120.347Z" fill="black"/>
<path opacity="0.7" d="M290.776 114.522H234.763V145.441H290.776V114.522Z" fill="#65617D"/>
<path opacity="0.1" d="M271.507 119.899H254.479V123.484H271.507V119.899Z" fill="black"/>
<path opacity="0.1" d="M269.379 120.347H256.608V123.036H269.379V120.347Z" fill="black"/>
<path opacity="0.7" d="M290.776 82.2587H234.763V113.178H290.776V82.2587Z" fill="#65617D"/>
<path opacity="0.1" d="M271.507 87.6359H254.479V91.2208H271.507V87.6359Z" fill="black"/>
<path opacity="0.1" d="M269.379 88.084H256.608V90.7727H269.379V88.084Z" fill="black"/>
</g>
<path opacity="0.1" d="M393.969 0.188985C393.969 0.188985 356.243 -2.08737 360.679 24.3506C360.679 24.3506 359.783 29.0243 364.031 31.1438C364.031 31.1438 364.098 29.1856 367.903 29.8533C369.257 30.0778 370.633 30.144 372.003 30.0504C373.853 29.9227 375.612 29.196 377.013 27.9802C377.013 27.9802 387.619 23.5978 391.742 6.26523C391.742 6.26523 394.793 2.48326 394.672 1.51088L388.305 4.23086C388.305 4.23086 390.483 8.8239 388.753 12.6417C388.753 12.6417 388.547 4.39666 387.324 4.5759C387.077 4.61623 384.017 6.16666 384.017 6.16666C384.017 6.16666 387.758 14.1653 384.935 19.9816C384.935 19.9816 386.006 10.1234 382.847 6.74471L378.366 9.36162C378.366 9.36162 382.739 17.6246 379.773 24.3685C379.773 24.3685 380.535 14.0263 377.421 9.99792L373.361 13.166C373.361 13.166 377.47 21.3125 374.965 26.9048C374.965 26.9048 374.638 14.8643 372.482 13.9547C372.482 13.9547 368.929 17.0914 368.387 18.3729C368.387 18.3729 371.201 24.2879 369.453 27.4067C369.453 27.4067 368.382 19.3856 367.504 19.3408C367.504 19.3408 363.964 24.6553 363.597 28.3029C363.597 28.3029 363.749 22.8808 366.648 18.8345C366.648 18.8345 363.225 19.4215 361.226 21.6441C361.226 21.6441 361.777 17.8845 367.522 17.5574C367.522 17.5574 370.448 13.5245 371.228 13.278C371.228 13.278 365.519 12.803 362.055 14.3355C362.055 14.3355 365.102 10.7911 372.276 12.4042L376.287 9.1286C376.287 9.1286 368.768 8.10245 365.577 9.23615C365.577 9.23615 369.247 6.09944 377.367 8.38924L381.74 5.79921C381.74 5.79921 375.328 4.41906 371.51 4.90301C371.51 4.90301 375.543 2.72972 383.022 5.08673L386.158 3.68417C386.158 3.68417 381.462 2.76108 380.087 2.61321C378.711 2.46534 378.639 2.08893 378.639 2.08893C381.615 1.59282 384.669 1.93255 387.462 3.07028C387.462 3.07028 394.085 0.605719 393.969 0.188985Z" fill="#07923B"/>
<path opacity="0.1" d="M347.438 6.91497C347.438 6.91497 330.41 5.88433 332.404 17.8352C332.404 17.8352 332.005 19.9458 333.914 20.9047C333.914 20.9047 333.946 20.0085 335.666 20.3177C336.277 20.4205 336.899 20.4506 337.517 20.4073C338.353 20.3505 339.148 20.0215 339.78 19.4708C339.78 19.4708 344.575 17.4946 346.439 9.66182C346.439 9.66182 347.814 7.95008 347.761 7.51094L344.884 8.73874C344.884 8.73874 345.87 10.8179 345.094 12.5431C345.094 12.5431 345 8.81491 344.449 8.90453C344.337 8.90453 342.952 9.6215 342.952 9.6215C342.952 9.6215 344.646 13.2377 343.369 15.868C343.369 15.868 343.853 11.4139 342.424 9.88587L340.398 11.0689C340.398 11.0689 342.379 14.8015 341.035 17.8486C341.035 17.8486 341.38 13.1749 339.973 11.3556L338.14 12.7851C338.14 12.7851 339.995 16.4685 338.866 18.9958C338.866 18.9958 338.718 13.5513 337.741 13.1436C337.741 13.1436 336.137 14.5596 335.89 15.1421C335.89 15.1421 337.163 17.8307 336.374 19.2198C336.374 19.2198 335.89 15.5947 335.478 15.5812C335.478 15.5812 333.883 17.9831 333.713 19.6142C333.792 18.0919 334.268 16.6169 335.093 15.3348C334.17 15.5096 333.318 15.9504 332.642 16.6029C332.642 16.6029 332.893 14.9091 335.487 14.7567C335.487 14.7567 336.831 12.9374 337.163 12.8254C337.163 12.8254 334.582 12.6103 333.018 13.3049C333.018 13.3049 334.394 11.7007 337.638 12.4311L339.43 10.9524C339.43 10.9524 336.034 10.5043 334.591 11.0016C334.591 11.0016 336.249 9.58565 339.919 10.6163L341.89 9.43777C341.89 9.43777 338.996 8.81043 337.266 9.03896C337.266 9.03896 339.09 8.05314 342.468 9.11962L343.88 8.4878C343.88 8.4878 341.756 8.06658 341.133 8.00385C340.51 7.94112 340.479 7.76636 340.479 7.76636C341.824 7.54258 343.205 7.69774 344.467 8.21446C344.467 8.21446 347.492 7.10317 347.438 6.91497Z" fill="#07923B"/>
<path d="M100.866 289.057C110.817 289.057 118.884 287.693 118.884 286.01C118.884 284.328 110.817 282.963 100.866 282.963C90.915 282.963 82.848 284.328 82.848 286.01C82.848 287.693 90.915 289.057 100.866 289.057Z" fill="#07923B"/>
<path d="M108.318 281.027C109.141 280.357 109.739 279.452 110.034 278.433C110.258 277.407 109.819 276.192 108.833 275.794C107.731 275.372 106.552 276.139 105.661 276.909C104.769 277.68 103.743 278.563 102.578 278.397C103.178 277.852 103.627 277.16 103.882 276.39C104.136 275.62 104.187 274.797 104.03 274.001C103.979 273.672 103.839 273.362 103.626 273.105C103.012 272.451 101.906 272.729 101.171 273.244C98.8405 274.884 98.1908 278.052 98.1773 280.898C97.9443 279.871 98.1415 278.8 98.137 277.761C98.1325 276.721 97.8413 275.52 96.9495 274.969C96.3996 274.673 95.7813 274.528 95.1571 274.548C94.1131 274.508 92.9435 274.615 92.231 275.381C91.3348 276.331 91.5723 277.927 92.3431 278.966C93.1138 280.006 94.2923 280.673 95.3767 281.395C96.2442 281.912 96.9839 282.618 97.541 283.461C97.6082 283.578 97.6623 283.703 97.7023 283.833H104.272C105.741 283.084 107.102 282.141 108.318 281.027Z" fill="#07923B"/>
<path d="M321.856 153.395C321.819 153.055 321.698 152.731 321.503 152.45C321.308 152.17 321.046 151.943 320.74 151.791C320.483 151.681 320.206 151.624 319.927 151.624C319.647 151.623 319.371 151.679 319.113 151.788C318.855 151.896 318.622 152.056 318.428 152.257C318.233 152.457 318.081 152.695 317.98 152.956L308.028 173.895L305.787 256.346H309.372L310.716 174.079L321.668 154.694C321.866 154.292 321.932 153.837 321.856 153.395Z" fill="#3F3D56"/>
<path opacity="0.1" d="M482.366 274.969C479.43 277.535 476.268 279.831 472.92 281.83C472.868 281.903 472.809 281.972 472.745 282.036C472.39 282.337 471.967 282.549 471.513 282.654C460.408 288.843 447.893 292.057 435.181 291.984H188.806C160.575 289.08 143.35 285.231 143.35 281.005C143.35 277.729 153.693 274.678 171.5 272.124C173.346 271.855 175.272 271.595 177.276 271.344C178.51 271.189 179.772 271.039 181.063 270.896L183.254 270.641C184.879 270.455 186.547 270.275 188.259 270.098H188.398L190.19 269.919C191.705 269.762 193.251 269.614 194.828 269.471L195.975 269.368L198.901 269.108C200.801 268.938 202.743 268.775 204.727 268.62C206.373 268.491 208.046 268.363 209.746 268.234C226.979 266.957 246.848 265.994 268.469 265.371L274.644 265.16L276.723 265.115L281.115 265.017L282.876 264.981L284.726 264.945L286.044 264.923L292.227 264.824L295.405 264.779H296.054C303.567 264.69 311.221 264.643 319.015 264.64C334.421 264.64 349.36 264.824 363.597 265.174C371.77 265.371 379.694 265.622 387.368 265.926H387.44C409.567 266.796 429.373 268.077 445.765 269.668L446.065 269.699C450.273 270.107 454.256 270.542 457.994 270.99C461.511 271.411 464.814 271.855 467.879 272.307C468.941 272.464 469.971 272.626 470.975 272.782L471.23 272.827C475.478 273.513 479.207 274.212 482.366 274.969Z" fill="#07923B"/>
<path d="M472.92 281.83C472.868 281.903 472.81 281.972 472.745 282.036C472.39 282.337 471.967 282.549 471.513 282.654C470.607 282.908 469.675 283.059 468.735 283.102H468.453C467.916 283.12 467.378 283.102 466.844 283.048C466.454 282.992 466.06 282.966 465.665 282.972H465.612C465.039 283.053 464.476 283.192 463.931 283.389C462.719 283.721 461.469 283.899 460.212 283.918H459.764C458.357 283.918 456.932 283.868 455.52 283.877C455.292 283.877 455.072 283.877 454.835 283.877C452.415 283.94 450.009 284.326 447.589 284.366H446.814C444.443 284.308 442.019 283.801 440.133 282.367C439.752 282.116 439.443 281.77 439.236 281.364C439.076 280.935 439.022 280.473 439.08 280.019C439.124 279.208 439.281 278.325 439.891 277.779C440.274 277.485 440.713 277.273 441.181 277.156C442.001 276.892 442.826 276.636 443.646 276.381C444.466 276.125 445.402 275.852 446.285 275.592L446.455 275.538L446.948 275.39L447.266 275.283C447.652 275.159 448.022 274.991 448.369 274.781C448.826 274.492 449.213 274.104 449.502 273.647C449.552 273.567 449.606 273.481 449.65 273.396C449.695 273.311 449.65 273.257 449.619 273.186C449.543 272.626 449.484 272.052 449.386 271.505C448.125 271.213 446.975 270.563 446.074 269.632C445.301 268.865 444.649 267.984 444.143 267.02C443.027 264.923 442.454 262.579 441.62 260.352C440.343 256.964 438.484 253.837 436.611 250.736C434.899 247.877 433.178 245.009 431.233 242.307C429.938 240.515 428.545 238.807 427.263 237.011C423.638 231.997 421.037 226.317 419.61 220.296C419.391 219.141 419.081 218.005 418.682 216.9C417.911 215.018 416.5 213.485 415.406 211.764C414.231 209.91 413.426 207.845 413.036 205.684C412.812 204.456 412.436 203.13 411.212 202.995L411.082 203.251C408.546 208.18 405.943 213.198 402.12 217.222C401.509 217.814 400.95 218.457 400.449 219.145C400.047 219.811 399.688 220.503 399.373 221.215C398.768 222.493 397.965 223.669 396.994 224.697C396.705 224.989 396.39 225.254 396.053 225.49C395.605 225.815 395.107 226.065 394.579 226.229C394.37 226.293 394.158 226.341 393.942 226.373C393.942 226.426 393.965 226.476 393.969 226.529C393.974 226.583 393.996 226.646 394.005 226.704C394.664 230.289 394.382 233.984 393.185 237.427C393.154 237.535 393.118 237.638 393.078 237.745C392.892 238.247 392.691 238.74 392.473 239.224C391.926 240.412 391.276 241.55 390.765 242.755C390.68 242.961 390.595 243.167 390.519 243.374C388.726 248.173 389.175 253.532 388.942 258.69C388.921 259.817 388.787 260.94 388.543 262.041C388.238 263.283 387.75 264.564 387.481 265.846C387.236 266.807 387.216 267.811 387.422 268.781L387.315 268.821C386.835 269 386.347 269.162 385.859 269.314V269.381C386.033 270.385 386.204 271.389 386.378 272.388C386.526 273.248 386.701 274.181 387.301 274.79C387.465 274.925 387.615 275.075 387.75 275.238C388.104 275.794 387.79 276.529 387.857 277.187C387.956 278.119 388.816 278.912 388.682 279.84C388.621 280.117 388.494 280.375 388.311 280.592C388.129 280.81 387.896 280.979 387.633 281.086C387.412 281.186 387.181 281.259 386.943 281.305L386.795 281.337C386.526 281.386 386.257 281.413 385.989 281.44C382.65 281.771 379.267 282.103 375.96 281.538C375.306 281.426 374.656 281.278 373.993 281.225C373.155 281.187 372.315 281.222 371.484 281.328C365.349 281.909 359.179 282.028 353.026 281.686C351.427 281.597 349.589 281.337 348.742 279.97C348.039 278.836 348.294 277.371 348.648 276.076C348.75 275.6 348.933 275.145 349.19 274.732C349.219 274.687 349.252 274.645 349.289 274.606C350.114 273.58 351.664 273.517 352.999 273.558L357.364 273.688C357.794 273.722 358.226 273.689 358.645 273.589C359.353 273.383 359.891 272.818 360.554 272.5C361.388 272.101 362.436 272.052 363.037 271.371L363.113 271.272C363.219 271.128 363.318 270.978 363.409 270.824C363.409 270.793 363.449 270.761 363.471 270.73C363.488 270.702 363.506 270.675 363.525 270.649C364.076 269.924 365.04 269.682 365.824 269.22C365.943 269.151 366.055 269.071 366.16 268.983L366.25 268.902C365.405 268.3 364.669 267.559 364.072 266.711C363.842 266.463 363.671 266.166 363.575 265.841C363.52 265.598 363.538 265.344 363.628 265.111C363.648 265.054 363.672 264.998 363.7 264.945L363.722 264.9C364.027 264.3 364.654 263.758 365 263.144C365.013 263.124 365.023 263.103 365.031 263.081C365.506 262.185 365.6 260.796 364.896 260.074C365.255 254.173 366.877 248.424 367.236 242.504C367.379 240.161 367.321 237.808 367.428 235.456C367.536 233.103 367.787 230.822 368.051 228.515C368.643 223.24 370.076 218.074 369.875 212.777C369.858 212.283 369.879 211.789 369.938 211.298C369.935 211.263 369.935 211.227 369.938 211.191C370.081 210.106 370.42 209.055 370.937 208.09C371.586 206.999 372.322 205.963 373.137 204.989C375.893 201.404 379.204 197.82 380.186 193.41C380.692 191.134 381.812 189.05 382.928 187.002C383.587 185.784 384.272 184.533 385.325 183.637C385.896 183.242 386.425 182.792 386.907 182.293C387.642 181.343 387.669 180.03 388.104 178.901C388.328 178.314 388.673 177.776 388.843 177.171C388.843 177.108 388.874 177.05 388.888 176.987C388.987 176.377 389.039 175.76 389.045 175.141C389.045 174.962 389.071 174.787 389.094 174.612C389.356 172.841 389.87 171.116 390.622 169.491C390.716 169.284 390.806 169.074 390.895 168.868C388.828 167.662 387.004 166.079 385.518 164.203C385.014 163.596 384.577 162.936 384.214 162.236C383.291 160.403 383.08 158.315 382.646 156.307C381.606 151.522 379.227 147.014 378.895 142.121C378.797 140.628 378.895 139.087 378.375 137.675C378.232 137.294 378.063 136.923 377.869 136.564C377.788 136.412 377.712 136.259 377.631 136.116L377.542 135.946L377.313 135.498L376.946 135.784C367.779 142.963 358.154 149.537 348.133 155.465L347.273 155.976C346.825 156.192 346.435 156.511 346.134 156.908C346.099 156.966 346.067 157.024 346.036 157.083C345.83 157.508 345.776 157.979 345.588 158.427C345.184 159.453 344.149 160.107 343.092 160.412C341.179 160.904 339.149 160.643 337.423 159.682C337.204 159.57 336.975 159.453 336.778 159.323C336.254 159.614 335.701 159.849 335.129 160.027C333.337 160.547 331.459 160.524 329.604 160.52C327.749 160.515 325.853 160.52 324.097 161.129C322.923 161.528 321.785 162.187 320.566 162.249C320.426 162.258 320.285 162.258 320.145 162.249C319.45 162.17 318.774 161.971 318.146 161.662L317.779 161.496C317.588 161.406 317.403 161.306 317.223 161.196C317.027 161.075 316.845 160.932 316.681 160.771C316.444 160.532 316.271 160.238 316.179 159.915C316.118 159.681 316.118 159.436 316.179 159.202C316.196 159.097 316.25 159.002 316.331 158.933C316.411 158.886 316.503 158.863 316.596 158.866C317.109 158.861 317.623 158.904 318.128 158.996C318.425 159.037 318.725 159.053 319.024 159.045H319.186C319.45 159.017 319.705 158.935 319.937 158.804C320.168 158.673 320.37 158.496 320.53 158.284C320.579 158.218 320.618 158.146 320.646 158.069C320.701 157.943 320.728 157.807 320.727 157.67C320.73 157.635 320.73 157.601 320.727 157.567C320.539 157.481 320.351 157.396 320.171 157.293C320.077 157.244 319.988 157.19 319.898 157.136L319.844 157.101C319.683 156.991 319.533 156.867 319.396 156.729C319.309 156.642 319.232 156.546 319.168 156.442C319.049 156.28 318.959 156.098 318.903 155.904C318.534 155.827 318.152 155.838 317.788 155.936C317.299 156.07 316.806 156.357 316.322 156.455C316.078 156.517 315.821 156.506 315.583 156.424C314.884 156.173 314.637 155.322 314.49 154.591C314.463 154.452 314.431 154.309 314.409 154.166C314.357 153.89 314.357 153.608 314.409 153.332C314.626 152.706 315.039 152.167 315.587 151.795L317.057 150.563L317.165 150.473C317.165 150.352 317.115 150.231 317.097 150.11C317.046 149.833 317.046 149.549 317.097 149.272C317.314 148.647 317.728 148.11 318.276 147.74L321.529 145.002C322.139 144.491 322.802 143.953 323.595 143.9C324.773 143.819 325.714 144.796 326.597 145.58C327.709 146.566 329.057 147.372 330.541 147.471C331.247 147.503 331.953 147.406 332.624 147.184L333.005 147.059C332.924 146.893 332.844 146.727 332.768 146.561C332.638 146.288 332.508 146.01 332.382 145.732C334.291 145.611 336.025 144.563 337.473 143.308C338.92 142.053 340.161 140.57 341.622 139.338C343.199 137.994 345.01 136.994 346.609 135.699C350.329 132.684 352.798 128.252 356.777 125.595C358.157 124.667 359.752 123.928 360.693 122.548C360.985 122.099 361.204 121.651 361.504 121.203C362.459 119.859 364.094 119.241 365.443 118.308C366.792 117.376 367.966 116.01 369.064 114.697C369.843 113.76 370.628 112.824 371.371 111.86C372.057 110.583 372.635 109.248 373.352 107.989C373.96 106.925 374.67 105.923 375.472 104.995C375.655 104.637 375.844 104.278 376.045 103.929C376.247 103.579 376.395 103.342 376.583 103.033C376.713 102.831 376.847 102.638 376.986 102.441C376.578 101.72 376.189 101.097 376.005 100.824L375.915 100.703C375.52 100.282 375.098 99.8864 374.652 99.5196C374.183 99.4486 373.719 99.3499 373.262 99.2238C370.497 98.4659 368.057 96.8196 366.32 94.5386C364.582 92.2575 363.643 89.4684 363.646 86.6008C363.644 86.5875 363.644 86.5739 363.646 86.5605C363.648 84.5069 364.136 82.4829 365.071 80.6545C365.259 80.2871 365.461 79.9331 365.681 79.5881C365.476 79.5234 365.277 79.4425 365.085 79.3461C364.758 79.1849 364.472 78.9503 364.251 78.6605C364.069 78.4023 363.95 78.1043 363.906 77.7912C363.83 77.0526 363.941 76.3069 364.229 75.6224C364.351 75.2928 364.49 74.9698 364.645 74.6545C364.658 74.636 364.668 74.6165 364.677 74.5962C366.68 70.5633 370.95 68.0853 375.216 67.9105C379.818 67.7268 384.299 69.8867 387.929 72.9786C389.012 73.8672 389.981 74.8861 390.815 76.0122C392.71 78.647 393.566 82.0168 393.817 85.3551C393.911 86.3876 393.893 87.4273 393.763 88.456C393.716 88.8225 393.641 89.185 393.539 89.5404C393.481 89.751 393.405 89.9616 393.324 90.1722C393.243 90.3828 393.194 90.4769 393.122 90.6203V90.6427C393.055 90.7861 392.979 90.9205 392.903 91.055L392.862 91.1132L392.804 91.2073C392.84 91.2925 392.88 91.3821 392.921 91.4672C392.961 91.5524 392.997 91.633 393.042 91.7137H393.095C393.992 91.7854 394.821 91.9108 395.735 91.9825C396.165 92.0029 396.591 92.069 397.007 92.1797C397.904 92.4486 398.58 93.1028 399.333 93.6315C401.197 94.949 403.491 95.5629 405.324 96.9251C408.013 98.9326 409.357 102.249 410.988 105.219C413.139 109.199 416.643 112.586 418.189 116.843C418.888 118.776 419.59 120.706 420.295 122.633C421.671 126.41 423.047 130.206 424.915 133.768C427.514 138.724 431.032 143.178 433.115 148.385C433.322 148.907 433.71 149.336 434.209 149.595C437.048 153.604 439.572 157.828 441.759 162.227C442.911 164.553 444 166.968 444.336 169.544C444.598 171.838 444.408 174.162 443.776 176.382C443.418 177.702 442.98 178.998 442.463 180.263C442.261 180.706 442.111 181.171 442.015 181.648C442.015 181.697 442.015 181.746 442.015 181.795C441.925 182.656 442.252 183.507 442.342 184.368C442.417 185.06 442.339 185.761 442.113 186.42C442.077 186.523 442.037 186.626 441.997 186.729C441.719 187.253 441.484 187.798 441.293 188.36C441.277 188.428 441.265 188.497 441.257 188.566C441.11 189.539 441.495 190.52 441.705 191.492C442.494 195.006 442.351 198.662 442.154 202.247C442.051 204.039 443.498 205.478 444.708 206.8C446.948 209.278 448.7 212.177 450.39 215.063C451.311 216.528 452.087 218.079 452.706 219.696C453.347 221.542 453.603 223.496 453.957 225.409C455.099 231.324 458.832 236.549 459.845 242.477C460.314 245.192 461.511 247.729 463.308 249.817C463.85 250.377 464.349 250.976 464.801 251.61C465.113 252.115 465.361 252.657 465.54 253.223C465.981 254.541 466.188 255.925 466.154 257.314C466.083 257.979 466.121 258.651 466.266 259.304C466.687 260.679 468.193 261.437 468.816 262.732C469.438 264.027 469.008 265.685 469.264 267.154C469.464 268.339 470.104 269.405 471.056 270.139C470.698 270.452 470.321 270.739 469.936 271.035C470.292 271.312 470.605 271.641 470.863 272.012C471.04 272.26 471.19 272.526 471.312 272.805C471.903 274.181 471.921 275.816 472.405 277.286C472.611 277.895 472.902 278.541 472.723 279.159C472.646 279.336 472.595 279.523 472.571 279.715C472.571 280.118 472.992 280.382 473.153 280.75C473.212 280.934 473.221 281.131 473.18 281.321C473.14 281.51 473.05 281.686 472.92 281.83Z" fill="url(#paint0_linear)"/>
<path d="M378.084 107.07C380.826 106.331 383.268 104.785 385.661 103.257L394 97.9468C391.737 97.7675 389.784 96.1543 388.623 94.2006C387.462 92.2469 386.983 89.975 386.589 87.7435C383.004 89.1416 379.898 91.512 377.004 94.0169C375.857 95.0072 373.419 96.5039 373.065 98.0498C372.711 99.5958 374.969 100.85 375.843 101.886C376.143 102.231 378.971 106.824 378.084 107.07Z" fill="#FBBEBE"/>
<path opacity="0.1" d="M378.084 107.07C380.826 106.331 383.268 104.785 385.661 103.257L394 97.9468C391.737 97.7675 389.784 96.1543 388.623 94.2006C387.462 92.2469 386.983 89.975 386.589 87.7435C383.004 89.1416 379.898 91.512 377.004 94.0169C375.857 95.0072 373.419 96.5039 373.065 98.0498C372.711 99.5958 374.969 100.85 375.843 101.886C376.143 102.231 378.971 106.824 378.084 107.07Z" fill="black"/>
<path d="M332.517 150.93C331.047 151.683 329.483 152.454 327.838 152.346C326.36 152.252 325.011 151.45 323.9 150.469C323.003 149.689 322.08 148.717 320.902 148.797C320.113 148.851 319.45 149.384 318.84 149.891L315.592 152.611C315.045 152.978 314.632 153.513 314.413 154.134C314.349 154.556 314.375 154.987 314.489 155.398C314.637 156.124 314.884 156.971 315.583 157.217C316.282 157.464 317.044 156.935 317.783 156.733C318.235 156.618 318.709 156.626 319.156 156.758C319.603 156.89 320.007 157.14 320.324 157.481C320.588 157.741 320.747 158.089 320.772 158.458C320.772 159.269 319.876 159.803 319.051 159.843C318.227 159.883 317.438 159.614 316.622 159.664C316.573 159.658 316.523 159.661 316.475 159.675C316.428 159.688 316.383 159.711 316.344 159.742C316.305 159.773 316.273 159.811 316.249 159.855C316.225 159.898 316.211 159.946 316.206 159.995C316.155 160.278 316.177 160.57 316.268 160.842C316.36 161.115 316.519 161.36 316.73 161.555C317.156 161.943 317.651 162.247 318.191 162.451C318.818 162.761 319.494 162.958 320.189 163.033C321.565 163.123 322.829 162.361 324.133 161.918C325.889 161.326 327.78 161.308 329.635 161.313C331.49 161.317 333.372 161.344 335.151 160.824C336.93 160.305 338.62 159.153 339.314 157.437C339.396 157.277 339.423 157.094 339.39 156.917C339.321 156.728 339.188 156.57 339.014 156.469C336.514 154.618 335.501 152.369 332.687 151.038L332.517 150.93Z" fill="#FBBEBE"/>
<path opacity="0.1" d="M332.517 150.93C331.047 151.683 329.483 152.454 327.838 152.346C326.36 152.252 325.011 151.45 323.9 150.469C323.003 149.689 322.08 148.717 320.902 148.797C320.113 148.851 319.45 149.384 318.84 149.891L315.592 152.611C315.045 152.978 314.632 153.513 314.413 154.134C314.349 154.556 314.375 154.987 314.489 155.398C314.637 156.124 314.884 156.971 315.583 157.217C316.282 157.464 317.044 156.935 317.783 156.733C318.235 156.618 318.709 156.626 319.156 156.758C319.603 156.89 320.007 157.14 320.324 157.481C320.588 157.741 320.747 158.089 320.772 158.458C320.772 159.269 319.876 159.803 319.051 159.843C318.227 159.883 317.438 159.614 316.622 159.664C316.573 159.658 316.523 159.661 316.475 159.675C316.428 159.688 316.383 159.711 316.344 159.742C316.305 159.773 316.273 159.811 316.249 159.855C316.225 159.898 316.211 159.946 316.206 159.995C316.155 160.278 316.177 160.57 316.268 160.842C316.36 161.115 316.519 161.36 316.73 161.555C317.156 161.943 317.651 162.247 318.191 162.451C318.818 162.761 319.494 162.958 320.189 163.033C321.565 163.123 322.829 162.361 324.133 161.918C325.889 161.326 327.78 161.308 329.635 161.313C331.49 161.317 333.372 161.344 335.151 160.824C336.93 160.305 338.62 159.153 339.314 157.437C339.396 157.277 339.423 157.094 339.39 156.917C339.321 156.728 339.188 156.57 339.014 156.469C336.514 154.618 335.501 152.369 332.687 151.038L332.517 150.93Z" fill="black"/>
<path d="M384.989 103.14C384.294 102.692 383.505 102.408 382.683 102.313C381.861 102.217 381.028 102.312 380.248 102.589C378.687 103.151 377.286 104.085 376.166 105.309C375.048 106.449 374.079 107.728 373.285 109.113C372.523 110.458 371.94 111.865 371.179 113.205C369.834 115.602 368.078 117.717 366.312 119.814C365.214 121.118 364.103 122.44 362.696 123.399C361.289 124.358 359.716 124.945 358.762 126.276C358.462 126.697 358.246 127.172 357.951 127.598C357.014 128.969 355.423 129.704 354.039 130.622C350.069 133.266 347.6 137.666 343.889 140.664C342.29 141.955 340.484 142.967 338.911 144.285C337.446 145.508 336.222 146.973 334.762 148.228C333.301 149.483 331.584 150.518 329.68 150.634C330.953 153.471 332.472 156.254 334.654 158.463C336.836 160.672 340.107 162.083 343.087 161.219C344.145 160.914 345.18 160.269 345.583 159.247C345.71 158.722 345.887 158.21 346.112 157.719C346.411 157.325 346.8 157.007 347.246 156.791C359.208 149.809 370.61 141.909 381.351 133.163C384.232 130.815 387.091 128.713 390.048 126.441C391.109 125.689 392.089 124.831 392.974 123.878C394.208 122.405 394.978 120.601 395.189 118.691C395.399 116.782 395.04 114.853 394.157 113.146C393.364 111.841 392.456 110.61 391.442 109.467C389.598 107.067 387.426 104.937 384.989 103.14Z" fill="#07923B"/>
<path opacity="0.1" d="M384.989 103.14C384.294 102.692 383.505 102.408 382.683 102.313C381.861 102.217 381.028 102.312 380.248 102.589C378.687 103.151 377.286 104.085 376.166 105.309C375.048 106.449 374.079 107.728 373.285 109.113C372.523 110.458 371.94 111.865 371.179 113.205C369.834 115.602 368.078 117.717 366.312 119.814C365.214 121.118 364.103 122.44 362.696 123.399C361.289 124.358 359.716 124.945 358.762 126.276C358.462 126.697 358.246 127.172 357.951 127.598C357.014 128.969 355.423 129.704 354.039 130.622C350.069 133.266 347.6 137.666 343.889 140.664C342.29 141.955 340.484 142.967 338.911 144.285C337.446 145.508 336.222 146.973 334.762 148.228C333.301 149.483 331.584 150.518 329.68 150.634C330.953 153.471 332.472 156.254 334.654 158.463C336.836 160.672 340.107 162.083 343.087 161.219C344.145 160.914 345.18 160.269 345.583 159.247C345.71 158.722 345.887 158.21 346.112 157.719C346.411 157.325 346.8 157.007 347.246 156.791C359.208 149.809 370.61 141.909 381.351 133.163C384.232 130.815 387.091 128.713 390.048 126.441C391.109 125.689 392.089 124.831 392.974 123.878C394.208 122.405 394.978 120.601 395.189 118.691C395.399 116.782 395.04 114.853 394.157 113.146C393.364 111.841 392.456 110.61 391.442 109.467C389.598 107.067 387.426 104.937 384.989 103.14Z" fill="black"/>
<path d="M365.734 269.372C364.95 269.821 363.986 270.071 363.435 270.797C363.256 271.03 363.135 271.304 362.942 271.528C362.346 272.227 361.289 272.258 360.46 272.657C359.796 272.971 359.259 273.553 358.555 273.737C358.134 273.837 357.7 273.87 357.269 273.835L352.914 273.706C351.533 273.665 349.916 273.737 349.114 274.862C348.853 275.274 348.668 275.729 348.567 276.206C348.231 277.492 347.958 278.948 348.661 280.078C349.504 281.422 351.35 281.695 352.941 281.785C359.086 282.125 365.248 282.005 371.375 281.426C372.204 281.32 373.041 281.286 373.876 281.323C374.539 281.377 375.189 281.525 375.843 281.637C379.146 282.197 382.524 281.87 385.858 281.538C386.421 281.511 386.977 281.393 387.503 281.189C387.764 281.082 387.996 280.913 388.178 280.697C388.36 280.481 388.486 280.224 388.547 279.948C388.686 279.024 387.821 278.24 387.727 277.313C387.659 276.659 387.973 275.928 387.615 275.372C387.48 275.209 387.33 275.059 387.167 274.924C386.566 274.302 386.391 273.392 386.243 272.54L385.459 267.938C385.437 267.614 385.304 267.307 385.083 267.069C384.918 266.95 384.728 266.872 384.527 266.841C381.113 266.07 377.613 266.773 374.221 267.204C372.475 267.459 370.709 267.548 368.947 267.468C368.185 267.419 367.889 267.329 367.32 267.826C366.751 268.324 366.446 268.956 365.734 269.372Z" fill="#3F3D56"/>
<path d="M448.189 274.911C447.59 275.246 446.947 275.498 446.28 275.659C444.521 276.173 442.764 276.709 441.01 277.268C440.544 277.383 440.106 277.594 439.724 277.886C439.115 278.424 438.958 279.302 438.913 280.127C438.855 280.581 438.909 281.042 439.07 281.471C439.28 281.873 439.588 282.215 439.966 282.466C441.974 283.985 444.595 284.455 447.114 284.455C449.632 284.455 452.132 284.03 454.651 283.963C457.693 283.882 460.816 284.312 463.743 283.461C464.301 283.254 464.881 283.113 465.472 283.039C465.865 283.033 466.258 283.059 466.646 283.116C468.216 283.271 469.8 283.126 471.315 282.69C471.772 282.589 472.196 282.378 472.552 282.076C472.729 281.923 472.854 281.721 472.914 281.496C472.973 281.27 472.962 281.032 472.884 280.812C472.723 280.449 472.31 280.185 472.306 279.786C472.327 279.595 472.377 279.407 472.454 279.231C472.637 278.617 472.342 277.976 472.135 277.371C471.557 275.641 471.652 273.652 470.616 272.151C469.581 270.649 467.681 270.031 465.876 269.794C464.408 269.586 462.915 269.629 461.462 269.919C459.826 270.269 458.298 270.999 456.694 271.465C454.832 272 452.887 272.184 450.958 272.007C449.677 271.9 450.116 272.101 449.681 273.177C449.373 273.894 448.852 274.499 448.189 274.911Z" fill="#3F3D56"/>
<path d="M376.587 100.855C383.764 100.855 389.582 95.0369 389.582 87.86C389.582 80.6831 383.764 74.8651 376.587 74.8651C369.41 74.8651 363.592 80.6831 363.592 87.86C363.592 95.0369 369.41 100.855 376.587 100.855Z" fill="#FBBEBE"/>
<path d="M470.796 270.264C466.763 273.728 461.319 275.243 456.009 275.296C453.768 275.319 451.443 275.077 449.534 273.916C449.399 273.181 449.345 272.388 449.211 271.653C446.894 271.169 445.097 269.283 443.977 267.195C442.857 265.106 442.288 262.785 441.454 260.572C440.182 257.202 438.318 254.097 436.454 251.014C434.742 248.173 433.026 245.323 431.076 242.639C429.786 240.846 428.388 239.161 427.111 237.373C423.493 232.397 420.896 226.752 419.471 220.767C419.253 219.619 418.942 218.491 418.543 217.393C417.772 215.52 416.361 213.996 415.272 212.289C414.098 210.446 413.292 208.393 412.901 206.244C412.682 205.025 412.305 203.708 411.082 203.582C408.51 208.579 405.889 213.655 401.999 217.72C401.388 218.307 400.829 218.945 400.328 219.629C399.926 220.292 399.567 220.981 399.252 221.69C398.649 222.962 397.847 224.129 396.877 225.149C396.064 226.019 394.993 226.603 393.821 226.816C394.685 231.122 394.171 235.59 392.351 239.587C391.809 240.77 391.16 241.899 390.649 243.096C388.561 248.025 389.044 253.586 388.825 258.932C388.806 260.052 388.674 261.167 388.431 262.261C387.888 264.448 386.768 266.773 387.31 268.96C381.691 271.107 375.449 270.972 369.498 270.067C368.334 269.961 367.204 269.617 366.178 269.059C365.334 268.461 364.598 267.725 364 266.881C363.77 266.635 363.599 266.339 363.503 266.016C363.27 264.994 364.399 264.224 364.923 263.328C365.447 262.431 365.542 261.011 364.82 260.276C365.179 254.41 366.801 248.684 367.159 242.8C367.303 240.47 367.244 238.131 367.352 235.796C367.459 233.462 367.71 231.19 367.97 228.895C368.562 223.657 369.996 218.522 369.794 213.257C369.733 211.636 370.105 210.029 370.874 208.601C371.522 207.516 372.256 206.485 373.07 205.518C375.821 201.965 379.128 198.402 380.109 194.015C380.616 191.752 381.736 189.682 382.847 187.648C383.506 186.433 384.192 185.192 385.24 184.3C385.811 183.906 386.34 183.455 386.822 182.956C387.557 182.011 387.584 180.716 388.018 179.586C388.242 179.004 388.587 178.466 388.753 177.866C388.89 177.202 388.957 176.526 388.955 175.849C389.098 173.68 389.932 171.583 390.81 169.598C388.744 168.402 386.921 166.831 385.433 164.965C384.933 164.359 384.497 163.703 384.133 163.007C383.21 161.187 383 159.113 382.565 157.119C381.53 152.36 379.15 147.883 378.819 143.021C378.72 141.538 378.819 140.006 378.303 138.603C378.066 138.009 377.787 137.433 377.47 136.878C377.158 136.332 376.92 135.748 376.762 135.139C376.475 133.817 376.87 132.451 376.762 131.106C376.654 129.919 376.148 128.808 375.897 127.647C375.641 126.137 375.597 124.598 375.767 123.076C375.879 121.284 376.269 119.433 376.117 117.663C375.87 114.734 376.243 111.786 377.212 109.011C378.181 106.236 379.724 103.697 381.74 101.558L381.843 101.455C382.699 100.559 383.636 99.7661 384.407 98.8161C385.455 97.5435 386.199 96.0468 387.306 94.8101C387.79 94.2589 388.336 93.766 388.816 93.2104C389.256 92.6276 389.743 92.082 390.272 91.5793C390.54 91.3305 390.865 91.1511 391.218 91.0566C391.571 90.9621 391.941 90.9554 392.298 91.0371C392.388 91.7053 392.597 92.352 392.916 92.946C393.848 93.0177 394.677 93.1476 395.605 93.2193C396.035 93.2397 396.461 93.3058 396.877 93.4165C397.751 93.6809 398.45 94.3127 399.198 94.8549C401.063 96.1678 403.352 96.7772 405.185 98.1305C407.874 100.125 409.218 103.418 410.84 106.371C412.987 110.328 416.486 113.693 418.01 117.923L420.111 123.677C421.487 127.432 422.863 131.2 424.727 134.74C427.321 139.669 430.834 144.11 432.918 149.268C433.126 149.785 433.512 150.211 434.007 150.469C436.844 154.448 439.366 158.643 441.548 163.016C442.7 165.328 443.789 167.73 444.121 170.288C444.609 173.904 443.623 177.561 442.252 180.94C442.03 181.423 441.879 181.936 441.804 182.463C441.714 183.319 442.041 184.161 442.131 185.017C442.218 185.817 442.099 186.625 441.786 187.365C441.507 187.886 441.272 188.428 441.082 188.988C440.84 190.018 441.271 191.067 441.504 192.097C442.292 195.588 442.149 199.204 441.952 202.78C441.849 204.572 443.296 205.993 444.501 207.306C446.742 209.766 448.49 212.643 450.179 215.515C451.097 216.972 451.872 218.515 452.491 220.122C453.132 221.954 453.387 223.895 453.741 225.799C454.88 231.674 458.608 236.867 459.62 242.76C460.089 245.459 461.285 247.98 463.08 250.05C463.62 250.61 464.119 251.209 464.572 251.843C464.882 252.345 465.128 252.884 465.307 253.447C465.747 254.755 465.955 256.131 465.921 257.511C465.85 258.172 465.888 258.839 466.033 259.487C466.454 260.854 467.96 261.607 468.578 262.893C469.196 264.179 468.771 265.828 469.026 267.289C469.219 268.468 469.851 269.532 470.796 270.264Z" fill="#07923B"/>
<path d="M335.205 146.897C333.735 147.65 332.172 148.421 330.527 148.313C329.048 148.219 327.7 147.417 326.588 146.436C325.692 145.656 324.769 144.684 323.59 144.764C322.802 144.818 322.139 145.351 321.529 145.858L318.28 148.578C317.734 148.945 317.32 149.48 317.102 150.101C317.038 150.523 317.064 150.954 317.178 151.365C317.326 152.091 317.572 152.938 318.272 153.184C318.971 153.431 319.732 152.902 320.472 152.7C320.923 152.585 321.398 152.593 321.845 152.725C322.292 152.857 322.695 153.107 323.012 153.449C323.277 153.708 323.436 154.056 323.461 154.425C323.461 155.237 322.564 155.77 321.74 155.81C320.915 155.85 320.127 155.582 319.311 155.631C319.262 155.625 319.212 155.628 319.164 155.642C319.116 155.655 319.072 155.678 319.033 155.709C318.994 155.74 318.962 155.778 318.938 155.822C318.914 155.865 318.899 155.913 318.894 155.962C318.844 156.245 318.865 156.537 318.957 156.809C319.049 157.082 319.207 157.327 319.419 157.522C319.844 157.91 320.34 158.215 320.879 158.418C321.506 158.728 322.183 158.925 322.878 159.001C324.254 159.09 325.517 158.328 326.821 157.885C328.578 157.293 330.469 157.275 332.324 157.28C334.179 157.284 336.061 157.311 337.84 156.791C339.619 156.272 341.308 155.12 342.003 153.404C342.085 153.244 342.112 153.061 342.079 152.884C342.01 152.695 341.877 152.537 341.703 152.436C339.202 150.585 338.19 148.336 335.376 147.005L335.205 146.897Z" fill="#FBBEBE"/>
<path d="M370.264 79.8748C369.489 80.0003 368.83 80.5246 368.095 80.8158C367.602 81.0074 367.074 81.0922 366.546 81.0643C366.017 81.0365 365.501 80.8968 365.03 80.6545C364.702 80.4951 364.416 80.262 364.192 79.9734C363.592 79.1399 363.803 77.9301 364.17 76.9532C365.909 72.3333 370.551 69.4744 375.149 69.2907C379.746 69.1069 384.218 71.2534 387.843 74.3229C388.921 75.2085 389.889 76.2211 390.725 77.3386C392.616 79.96 393.471 83.3073 393.722 86.6232C393.872 88.0147 393.78 89.4217 393.449 90.7816C393.29 91.4424 392.999 92.0644 392.594 92.6103C392.189 93.1562 391.678 93.6148 391.092 93.9586C389.81 94.6129 388.273 94.4067 386.978 93.7794C385.683 93.1521 384.572 92.1618 383.461 91.2163C382.957 90.7308 382.362 90.3514 381.709 90.1005C381.383 89.9845 381.031 89.9651 380.695 90.0446C380.359 90.1241 380.052 90.2991 379.813 90.5486C379.213 91.27 379.365 92.453 378.818 93.2372C378.272 94.0214 377.134 94.1334 376.175 94.1334C375.216 94.1334 374.243 94.0527 373.67 93.291C373.146 92.6009 373.222 91.5927 373.419 90.7233C373.616 89.854 373.952 88.9937 373.867 88.102C373.683 86.3096 372.115 85.2072 371.626 83.5582C371.308 82.4783 372.007 82.0212 371.936 81.0444C371.882 80.184 370.959 79.7628 370.264 79.8748Z" fill="#3F3D56"/>
<path opacity="0.1" d="M411.091 203.47V203.582C408.519 208.578 405.897 213.655 402.008 217.72C401.396 218.307 400.837 218.945 400.336 219.629C399.935 220.292 399.575 220.981 399.261 221.69C398.657 222.962 397.856 224.129 396.886 225.149L393.642 226.771L403.948 172.999L411.091 203.47Z" fill="black"/>
<path opacity="0.1" d="M396.111 122.086C395.226 123.038 394.245 123.897 393.185 124.649C390.227 126.89 387.36 129.005 384.487 131.371C382.172 133.256 379.824 135.102 377.443 136.909C377.131 136.364 376.893 135.779 376.735 135.171C376.448 133.849 376.843 132.482 376.735 131.138C376.628 129.95 376.121 128.839 375.87 127.678C375.614 126.168 375.57 124.63 375.74 123.108C375.852 121.315 376.242 119.465 376.09 117.695C375.842 114.759 376.217 111.803 377.191 109.023C378.165 106.242 379.715 103.698 381.74 101.558L381.844 101.455C382.326 101.175 382.837 100.947 383.367 100.774C384.148 100.5 384.982 100.41 385.804 100.509C386.626 100.608 387.415 100.895 388.108 101.348C390.544 103.144 392.717 105.274 394.561 107.675C395.574 108.817 396.483 110.049 397.276 111.354C398.162 113.058 398.523 114.987 398.316 116.896C398.109 118.806 397.342 120.611 396.111 122.086Z" fill="black"/>
<path d="M387.678 99.1073C386.982 98.6586 386.193 98.3755 385.371 98.28C384.549 98.1844 383.717 98.2789 382.937 98.5561C381.376 99.1185 379.975 100.052 378.855 101.276C377.736 102.417 376.768 103.695 375.973 105.081C375.212 106.425 374.629 107.832 373.867 109.172C372.523 111.569 370.766 113.684 369.001 115.781C367.903 117.085 366.792 118.407 365.385 119.366C363.978 120.325 362.405 120.912 361.45 122.243C361.15 122.664 360.935 123.139 360.639 123.565C359.703 124.936 358.112 125.671 356.727 126.589C352.757 129.233 350.288 133.634 346.578 136.631C344.978 137.922 343.172 138.935 341.6 140.252C340.134 141.475 338.911 142.941 337.45 144.195C335.989 145.45 334.273 146.485 332.369 146.602C333.641 149.438 335.16 152.221 337.343 154.43C339.525 156.639 342.796 158.051 345.776 157.186C346.833 156.881 347.868 156.236 348.272 155.214C348.399 154.689 348.576 154.177 348.801 153.686C349.1 153.292 349.488 152.974 349.934 152.758C361.896 145.776 373.299 137.876 384.039 129.13C386.92 126.782 389.779 124.68 392.737 122.409C393.797 121.656 394.778 120.798 395.663 119.845C396.896 118.373 397.667 116.568 397.877 114.658C398.088 112.749 397.729 110.82 396.846 109.113C396.053 107.808 395.144 106.577 394.13 105.435C392.286 103.034 390.114 100.904 387.678 99.1073Z" fill="#07923B"/>
<g opacity="0.1">
<path opacity="0.1" d="M377.071 92.3275C376.175 92.3275 375.14 92.2469 374.566 91.4851C374.046 90.795 374.118 89.7868 374.315 88.9175C374.512 88.0482 374.848 87.1878 374.763 86.2961C374.58 84.5037 373.011 83.4014 372.523 81.7523C372.205 80.6724 372.904 80.2154 372.832 79.2385C372.769 78.3916 371.851 77.9704 371.156 78.0824C370.381 78.2079 369.722 78.7321 368.987 79.0234C368.494 79.215 367.966 79.2997 367.437 79.2719C366.909 79.2441 366.393 79.1044 365.922 78.8621C365.594 78.7027 365.307 78.4696 365.084 78.181C364.484 77.3475 364.694 76.1376 365.062 75.1608C365.062 75.1249 365.093 75.0936 365.107 75.0577C364.732 75.6573 364.417 76.2921 364.166 76.9532C363.798 77.93 363.588 79.1399 364.188 79.9734C364.411 80.262 364.698 80.4951 365.026 80.6545C365.496 80.8968 366.013 81.0365 366.541 81.0643C367.07 81.0921 367.598 81.0074 368.091 80.8158C368.826 80.5245 369.485 80.0003 370.26 79.8748C370.954 79.7628 371.873 80.184 371.936 81.0309C372.007 82.0078 371.308 82.4648 371.627 83.5447C372.106 85.1938 373.674 86.314 373.867 88.0885C373.957 88.9847 373.63 89.845 373.419 90.7099C373.208 91.5747 373.15 92.5874 373.67 93.2775C374.243 94.0393 375.27 94.111 376.175 94.1199C377.08 94.1289 378.245 94.0662 378.819 93.2237C379.066 92.8006 379.229 92.3334 379.298 91.8481C378.689 92.2827 377.837 92.3365 377.071 92.3275Z" fill="black"/>
<path opacity="0.1" d="M391.988 92.1662C390.707 92.8205 389.17 92.6143 387.875 91.987C386.58 91.3596 385.469 90.3693 384.357 89.4238C383.854 88.9384 383.258 88.559 382.605 88.3081C382.28 88.1921 381.927 88.1727 381.591 88.2522C381.255 88.3317 380.949 88.5067 380.71 88.7562C380.405 89.206 380.213 89.7224 380.15 90.2618C380.383 90.1245 380.642 90.0387 380.911 90.0101C381.18 89.9815 381.452 90.0108 381.709 90.096C382.362 90.3469 382.958 90.7263 383.461 91.2118C384.572 92.1573 385.702 93.152 386.979 93.7749C388.256 94.3978 389.811 94.6084 391.092 93.9542C392.226 93.2908 393.052 92.2071 393.391 90.9384C393.023 91.4489 392.543 91.8688 391.988 92.1662Z" fill="black"/>
</g>
<path d="M280.469 284.801C287.894 284.801 293.912 278.782 293.912 271.357C293.912 263.933 287.894 257.914 280.469 257.914C273.045 257.914 267.026 263.933 267.026 271.357C267.026 278.782 273.045 284.801 280.469 284.801Z" fill="#3F3D56"/>
<path opacity="0.1" d="M280.469 284.801C287.894 284.801 293.912 278.782 293.912 271.357C293.912 263.933 287.894 257.914 280.469 257.914C273.045 257.914 267.026 263.933 267.026 271.357C267.026 278.782 273.045 284.801 280.469 284.801Z" fill="black"/>
<path d="M280.469 279.871C285.171 279.871 288.983 276.06 288.983 271.357C288.983 266.655 285.171 262.844 280.469 262.844C275.767 262.844 271.955 266.655 271.955 271.357C271.955 276.06 275.767 279.871 280.469 279.871Z" fill="#65617D"/>
<path opacity="0.1" d="M280.469 279.871C285.171 279.871 288.983 276.06 288.983 271.357C288.983 266.655 285.171 262.844 280.469 262.844C275.767 262.844 271.955 266.655 271.955 271.357C271.955 276.06 275.767 279.871 280.469 279.871Z" fill="black"/>
<path d="M270.163 250.297L278.982 270.237C279.113 270.536 279.327 270.791 279.599 270.973C279.87 271.154 280.188 271.254 280.514 271.26C280.841 271.267 281.162 271.18 281.441 271.01C281.72 270.84 281.944 270.593 282.087 270.3L292.568 248.952L270.163 250.297Z" fill="#3F3D56"/>
<path opacity="0.1" d="M270.163 250.297L278.982 270.237C279.113 270.536 279.327 270.791 279.599 270.973C279.87 271.154 280.188 271.254 280.514 271.26C280.841 271.267 281.162 271.18 281.441 271.01C281.72 270.84 281.944 270.593 282.087 270.3L292.568 248.952L270.163 250.297Z" fill="black"/>
<path d="M196.674 284.801C204.099 284.801 210.118 278.782 210.118 271.357C210.118 263.933 204.099 257.914 196.674 257.914C189.25 257.914 183.231 263.933 183.231 271.357C183.231 278.782 189.25 284.801 196.674 284.801Z" fill="#3F3D56"/>
<path opacity="0.1" d="M196.674 284.801C204.099 284.801 210.118 278.782 210.118 271.357C210.118 263.933 204.099 257.914 196.674 257.914C189.25 257.914 183.231 263.933 183.231 271.357C183.231 278.782 189.25 284.801 196.674 284.801Z" fill="black"/>
<path d="M196.674 279.871C201.377 279.871 205.188 276.06 205.188 271.357C205.188 266.655 201.377 262.844 196.674 262.844C191.972 262.844 188.161 266.655 188.161 271.357C188.161 276.06 191.972 279.871 196.674 279.871Z" fill="#65617D"/>
<path opacity="0.1" d="M196.674 279.871C201.377 279.871 205.188 276.06 205.188 271.357C205.188 266.655 201.377 262.844 196.674 262.844C191.972 262.844 188.161 266.655 188.161 271.357C188.161 276.06 191.972 279.871 196.674 279.871Z" fill="black"/>
<path d="M186.368 250.297L195.187 270.237C195.318 270.536 195.532 270.791 195.804 270.973C196.075 271.154 196.393 271.254 196.719 271.26C197.046 271.267 197.367 271.18 197.646 271.01C197.925 270.84 198.149 270.593 198.292 270.3L208.773 248.952L186.368 250.297Z" fill="#3F3D56"/>
<path opacity="0.1" d="M186.368 250.297L195.187 270.237C195.318 270.536 195.532 270.791 195.804 270.973C196.075 271.154 196.393 271.254 196.719 271.26C197.046 271.267 197.367 271.18 197.646 271.01C197.925 270.84 198.149 270.593 198.292 270.3L208.773 248.952L186.368 250.297Z" fill="black"/>
<path d="M324.096 154.291C324.06 153.952 323.938 153.627 323.743 153.347C323.548 153.066 323.286 152.839 322.981 152.687C322.724 152.577 322.447 152.52 322.167 152.52C321.888 152.519 321.611 152.575 321.353 152.684C321.096 152.793 320.863 152.952 320.668 153.153C320.474 153.353 320.321 153.591 320.22 153.852L312.509 172.999L310.268 259.035H313.853L315.197 173.183L323.908 155.59C324.106 155.188 324.172 154.733 324.096 154.291Z" fill="#3F3D56"/>
<path d="M165.531 252.313L177.63 244.695L308.252 243.575L311.612 252.313H165.531Z" fill="#07923B"/>
<path d="M165.531 260.379V252.313L313.978 250.879L313.835 256.346H168.22V260.379H165.531Z" fill="#3F3D56"/>
<path d="M184.352 289.506C191.776 289.506 197.795 283.487 197.795 276.063C197.795 268.638 191.776 262.619 184.352 262.619C176.927 262.619 170.909 268.638 170.909 276.063C170.909 283.487 176.927 289.506 184.352 289.506Z" fill="#3F3D56"/>
<path d="M184.352 284.576C189.054 284.576 192.865 280.765 192.865 276.063C192.865 271.36 189.054 267.549 184.352 267.549C179.649 267.549 175.838 271.36 175.838 276.063C175.838 280.765 179.649 284.576 184.352 284.576Z" fill="#65617D"/>
<path d="M174.045 255.002L182.864 274.942C182.995 275.241 183.209 275.496 183.481 275.678C183.752 275.859 184.07 275.959 184.397 275.965C184.723 275.972 185.044 275.885 185.323 275.715C185.602 275.545 185.826 275.298 185.969 275.005L196.45 253.657L174.045 255.002Z" fill="#3F3D56"/>
<path d="M288.759 289.506C296.184 289.506 302.202 283.487 302.202 276.063C302.202 268.638 296.184 262.619 288.759 262.619C281.335 262.619 275.316 268.638 275.316 276.063C275.316 283.487 281.335 289.506 288.759 289.506Z" fill="#3F3D56"/>
<path d="M288.759 284.576C293.461 284.576 297.273 280.765 297.273 276.063C297.273 271.36 293.461 267.549 288.759 267.549C284.057 267.549 280.245 271.36 280.245 276.063C280.245 280.765 284.057 284.576 288.759 284.576Z" fill="#65617D"/>
<path d="M278.453 255.002L287.272 274.942C287.403 275.241 287.617 275.496 287.889 275.678C288.16 275.859 288.478 275.959 288.804 275.965C289.131 275.972 289.452 275.885 289.731 275.715C290.01 275.545 290.234 275.298 290.377 275.005L300.858 253.657L278.453 255.002Z" fill="#3F3D56"/>
<path d="M238.348 217.137H182.335V248.056H238.348V217.137Z" fill="#65617D"/>
<path opacity="0.1" d="M219.08 222.514H202.052V226.099H219.08V222.514Z" fill="black"/>
<path opacity="0.1" d="M216.951 222.963H204.18V225.651H216.951V222.963Z" fill="black"/>
<path d="M295.257 217.137H239.244V248.056H295.257V217.137Z" fill="#65617D"/>
<path opacity="0.1" d="M275.988 222.514H258.96V226.099H275.988V222.514Z" fill="black"/>
<path opacity="0.1" d="M273.86 222.963H261.089V225.651H273.86V222.963Z" fill="black"/>
<path d="M238.348 185.322H182.335V216.241H238.348V185.322Z" fill="#65617D"/>
<path opacity="0.1" d="M219.08 190.699H202.052V194.284H219.08V190.699Z" fill="black"/>
<path opacity="0.1" d="M216.951 191.147H204.18V193.836H216.951V191.147Z" fill="black"/>
<path d="M295.257 185.322H239.244V216.241H295.257V185.322Z" fill="#65617D"/>
<path opacity="0.1" d="M275.988 190.699H258.96V194.284H275.988V190.699Z" fill="black"/>
<path opacity="0.1" d="M273.86 191.147H261.089V193.836H273.86V191.147Z" fill="black"/>
<path d="M238.348 153.059H182.335V183.978H238.348V153.059Z" fill="#65617D"/>
<path opacity="0.1" d="M219.08 158.436H202.052V162.021H219.08V158.436Z" fill="black"/>
<path opacity="0.1" d="M216.951 158.884H204.18V161.573H216.951V158.884Z" fill="black"/>
<path d="M295.257 153.059H239.244V183.978H295.257V153.059Z" fill="#65617D"/>
<path opacity="0.1" d="M275.988 158.436H258.96V162.021H275.988V158.436Z" fill="black"/>
<path opacity="0.1" d="M273.86 158.884H261.089V161.573H273.86V158.884Z" fill="black"/>
<path d="M295.257 120.795H239.244V151.714H295.257V120.795Z" fill="#65617D"/>
<path opacity="0.1" d="M275.988 126.173H258.96V129.757H275.988V126.173Z" fill="black"/>
<path opacity="0.1" d="M273.86 126.621H261.089V129.309H273.86V126.621Z" fill="black"/>
<defs>
<linearGradient id="paint0_linear" x1="393.763" y1="284.415" x2="393.763" y2="67.9195" gradientUnits="userSpaceOnUse">
<stop stop-color="#808080" stop-opacity="0.25"/>
<stop offset="0.54" stop-color="#808080" stop-opacity="0.12"/>
<stop offset="1" stop-color="#808080" stop-opacity="0.1"/>
</linearGradient>
</defs>
</svg>
